Kaveri-Bold.ufo
<glyph name="exclam" format="2">
  <advance width="267"/>
  <unicode hex="0021"/>
  <outline>
    <contour>
      <point x="203" y="527" type="line"/>
      <point x="64" y="527" type="line"/>
      <point x="64" y="318" type="line"/>
      <point x="85" y="298"/>
      <point x="96" y="282"/>
      <point x="96" y="270" type="curve" smooth="yes"/>
      <point x="96" y="142" type="line"/>
      <point x="172" y="142" type="line"/>
      <point x="172" y="264" type="line" smooth="yes"/>
      <point x="172" y="281"/>
      <point x="182" y="299"/>
      <point x="202" y="319" type="curve"/>
    </contour>
    <contour>
      <point x="164" y="110" type="curve" smooth="yes"/>
      <point x="103" y="110" type="line" smooth="yes"/>
      <point x="76" y="110"/>
      <point x="64" y="93"/>
      <point x="64" y="80" type="curve" smooth="yes"/>
      <point x="64" y="32" type="line" smooth="yes"/>
      <point x="64" y="29"/>
      <point x="65" y="5"/>
      <point x="102" y="1" type="curve"/>
      <point x="170" y="0" type="line" smooth="yes"/>
      <point x="187" y="0"/>
      <point x="203" y="14"/>
      <point x="203" y="32" type="curve" smooth="yes"/>
      <point x="203" y="80" type="line" smooth="yes"/>
      <point x="203" y="95"/>
      <point x="191" y="110"/>
    </contour>
  </outline>
</glyph>
<glyph name="numbersign" format="2">
  <advance width="516"/>
  <unicode hex="0023"/>
  <note>
GF Latin Plus glyph
</note>
  <outline>
    <contour>
      <point x="92" y="0" type="line"/>
      <point x="163" y="0" type="line"/>
      <point x="190" y="147" type="line"/>
      <point x="272" y="147" type="line"/>
      <point x="245" y="0" type="line"/>
      <point x="317" y="0" type="line"/>
      <point x="343" y="147" type="line"/>
      <point x="472" y="147" type="line"/>
      <point x="481" y="218" type="line"/>
      <point x="360" y="218" type="line"/>
      <point x="374" y="303" type="line"/>
      <point x="496" y="303" type="line"/>
      <point x="506" y="374" type="line"/>
      <point x="385" y="374" type="line"/>
      <point x="412" y="522" type="line"/>
      <point x="340" y="522" type="line"/>
      <point x="314" y="374" type="line"/>
      <point x="232" y="374" type="line"/>
      <point x="259" y="522" type="line"/>
      <point x="188" y="522" type="line"/>
      <point x="161" y="374" type="line"/>
      <point x="46" y="374" type="line"/>
      <point x="35" y="303" type="line"/>
      <point x="147" y="303" type="line"/>
      <point x="132" y="218" type="line"/>
      <point x="21" y="218" type="line"/>
      <point x="11" y="147" type="line"/>
      <point x="119" y="147" type="line"/>
    </contour>
    <contour>
      <point x="204" y="218" type="line"/>
      <point x="218" y="303" type="line"/>
      <point x="303" y="303" type="line"/>
      <point x="288" y="218" type="line"/>
    </contour>
  </outline>
</glyph>
<glyph name="dollar" format="2">
  <advance width="435"/>
  <unicode hex="0024"/>
  <note>
GF Latin Plus glyph
</note>
  <outline>
    <component base="S"/>
    <contour>
      <point x="179" y="515" type="line"/>
      <point x="235" y="533" type="line"/>
      <point x="232" y="588" type="line"/>
      <point x="176" y="571" type="line"/>
    </contour>
    <contour>
      <point x="176" y="-63" type="line"/>
      <point x="235" y="-63" type="line"/>
      <point x="235" y="6" type="line"/>
      <point x="176" y="6" type="line"/>
    </contour>
  </outline>
</glyph>
<glyph name="ampersand" format="2">
  <advance width="498"/>
  <unicode hex="0026"/>
  <note>
GF Latin Plus glyph
</note>
  <outline>
    <contour>
      <point x="163" y="-3" type="curve" smooth="yes"/>
      <point x="212" y="-3"/>
      <point x="248" y="9"/>
      <point x="287" y="42" type="curve" smooth="yes"/>
      <point x="313" y="65" type="line"/>
      <point x="365" y="0" type="line"/>
      <point x="474" y="0" type="line"/>
      <point x="380" y="125" type="line"/>
      <point x="421" y="164" type="line"/>
      <point x="469" y="237" type="line"/>
      <point x="431" y="285" type="line"/>
      <point x="328" y="193" type="line"/>
      <point x="229" y="329" type="line" smooth="yes"/>
      <point x="206" y="360"/>
      <point x="196" y="380"/>
      <point x="196" y="396" type="curve" smooth="yes"/>
      <point x="196" y="421"/>
      <point x="213" y="432"/>
      <point x="244" y="432" type="curve" smooth="yes"/>
      <point x="362" y="432" type="line"/>
      <point x="362" y="510" type="line"/>
      <point x="332" y="518"/>
      <point x="279" y="526"/>
      <point x="224" y="526" type="curve" smooth="yes"/>
      <point x="149" y="526"/>
      <point x="90" y="497"/>
      <point x="90" y="421" type="curve" smooth="yes"/>
      <point x="90" y="395"/>
      <point x="93" y="367"/>
      <point x="122" y="322" type="curve" smooth="yes"/>
      <point x="132" y="307" type="line"/>
      <point x="89" y="271" type="line" smooth="yes"/>
      <point x="47" y="235"/>
      <point x="24" y="189"/>
      <point x="24" y="137" type="curve" smooth="yes"/>
      <point x="24" y="53"/>
      <point x="83" y="-3"/>
    </contour>
    <contour>
      <point x="182" y="92" type="curve" smooth="yes"/>
      <point x="147" y="92"/>
      <point x="125" y="116"/>
      <point x="125" y="149" type="curve" smooth="yes"/>
      <point x="125" y="171"/>
      <point x="132" y="189"/>
      <point x="156" y="211" type="curve" smooth="yes"/>
      <point x="183" y="235" type="line"/>
      <point x="257" y="136" type="line"/>
      <point x="240" y="118" type="line" smooth="yes"/>
      <point x="219" y="98"/>
      <point x="202" y="92"/>
    </contour>
  </outline>
</glyph>
<glyph name="quotesingle" format="2">
  <advance width="155"/>
  <unicode hex="0027"/>
  <note>
GF Latin Plus glyph
</note>
  <outline>
    <contour>
      <point x="31" y="355" type="line"/>
      <point x="119" y="355" type="line"/>
      <point x="126" y="490" type="line"/>
      <point x="126" y="538" type="line"/>
      <point x="24" y="538" type="line"/>
      <point x="24" y="490" type="line"/>
    </contour>
  </outline>
</glyph>
<glyph name="parenleft" format="2">
  <advance width="276"/>
  <unicode hex="0028"/>
  <note>
GF Latin Plus glyph
</note>
  <outline>
    <contour>
      <point x="170" y="-150" type="curve"/>
      <point x="265" y="-150" type="line"/>
      <point x="193" y="-30"/>
      <point x="147" y="76"/>
      <point x="147" y="232" type="curve" smooth="yes"/>
      <point x="147" y="390"/>
      <point x="203" y="512"/>
      <point x="265" y="614" type="curve"/>
      <point x="170" y="614" type="line"/>
      <point x="104" y="527"/>
      <point x="41" y="406"/>
      <point x="41" y="232" type="curve" smooth="yes"/>
      <point x="41" y="50"/>
      <point x="100" y="-62"/>
    </contour>
  </outline>
</glyph>
<glyph name="parenright" format="2">
  <advance width="275"/>
  <unicode hex="0029"/>
  <note>
GF Latin Plus glyph
</note>
  <outline>
    <contour>
      <point x="10" y="-150" type="curve"/>
      <point x="105" y="-150" type="line"/>
      <point x="174" y="-60"/>
      <point x="234" y="57"/>
      <point x="234" y="231" type="curve" smooth="yes"/>
      <point x="234" y="413"/>
      <point x="176" y="525"/>
      <point x="105" y="614" type="curve"/>
      <point x="10" y="614" type="line"/>
      <point x="84" y="493"/>
      <point x="128" y="387"/>
      <point x="128" y="231" type="curve" smooth="yes"/>
      <point x="128" y="74"/>
      <point x="74" y="-46"/>
    </contour>
  </outline>
</glyph>
<glyph name="asterisk" format="2">
  <advance width="308"/>
  <unicode hex="002A"/>
  <note>
GF Latin Plus glyph
</note>
  <outline>
    <contour>
      <point x="208" y="362" type="line"/>
      <point x="281" y="430" type="line"/>
      <point x="258" y="462" type="line"/>
      <point x="174" y="404" type="line"/>
    </contour>
    <contour>
      <point x="105" y="285" type="line"/>
      <point x="140" y="381" type="line"/>
      <point x="87" y="394" type="line"/>
      <point x="68" y="296" type="line"/>
    </contour>
    <contour>
      <point x="130" y="405" type="line"/>
      <point x="127" y="459" type="line"/>
      <point x="27" y="448" type="line"/>
      <point x="27" y="409" type="line"/>
    </contour>
    <contour>
      <point x="225" y="286" type="line"/>
      <point x="248" y="318" type="line"/>
      <point x="166" y="380" type="line"/>
      <point x="137" y="334" type="line"/>
    </contour>
    <contour>
      <point x="153" y="418" type="line"/>
      <point x="203" y="438" type="line"/>
      <point x="159" y="528" type="line"/>
      <point x="121" y="515" type="line"/>
    </contour>
  </outline>
</glyph>
<glyph name="plus" format="2">
  <advance width="435"/>
  <unicode hex="002B"/>
  <note>
GF Latin Plus glyph
</note>
  <outline>
    <contour>
      <point x="174" y="94" type="line"/>
      <point x="259" y="94" type="line"/>
      <point x="259" y="414" type="line"/>
      <point x="174" y="414" type="line"/>
    </contour>
    <contour>
      <point x="57" y="211" type="line"/>
      <point x="377" y="211" type="line"/>
      <point x="377" y="296" type="line"/>
      <point x="57" y="296" type="line"/>
    </contour>
  </outline>
</glyph>
<glyph name="hyphen" format="2">
  <advance width="349"/>
  <unicode hex="002D"/>
  <outline>
    <contour>
      <point x="285" y="195" type="line"/>
      <point x="285" y="273" type="line"/>
      <point x="64" y="273" type="line"/>
      <point x="64" y="195" type="line"/>
    </contour>
  </outline>
</glyph>
<glyph name="zero" format="2">
  <advance width="566"/>
  <unicode hex="0030"/>
  <outline>
    <contour>
      <point x="463" y="488" type="curve" smooth="yes"/>
      <point x="347" y="488" type="line" smooth="yes"/>
      <point x="278" y="488"/>
      <point x="231" y="448"/>
      <point x="231" y="402" type="curve" smooth="yes"/>
      <point x="231" y="103" type="line" smooth="yes"/>
      <point x="231" y="74"/>
      <point x="242" y="51"/>
      <point x="263" y="32" type="curve" smooth="yes"/>
      <point x="283" y="11"/>
      <point x="308" y="1"/>
      <point x="337" y="1" type="curve" smooth="yes"/>
      <point x="469" y="0" type="line" smooth="yes"/>
      <point x="521" y="0"/>
      <point x="574" y="39"/>
      <point x="574" y="89" type="curve" smooth="yes"/>
      <point x="574" y="383" type="line" smooth="yes"/>
      <point x="574" y="444"/>
      <point x="528" y="488"/>
    </contour>
    <contour>
      <point x="444" y="81" type="curve" smooth="yes"/>
      <point x="368" y="81" type="line" smooth="yes"/>
      <point x="348" y="81"/>
      <point x="328" y="92"/>
      <point x="328" y="109" type="curve" smooth="yes"/>
      <point x="328" y="377" type="line" smooth="yes"/>
      <point x="328" y="383"/>
      <point x="332" y="390"/>
      <point x="339" y="399" type="curve" smooth="yes"/>
      <point x="347" y="407"/>
      <point x="347" y="407"/>
      <point x="368" y="407" type="curve" smooth="yes"/>
      <point x="444" y="407" type="line" smooth="yes"/>
      <point x="467" y="407"/>
      <point x="477" y="391"/>
      <point x="477" y="377" type="curve" smooth="yes"/>
      <point x="477" y="112" type="line" smooth="yes"/>
      <point x="477" y="96"/>
      <point x="461" y="81"/>
    </contour>
  </outline>
</glyph>
<glyph name="one" format="2">
  <advance width="265"/>
  <unicode hex="0031"/>
  <note>
GF Latin Plus glyph
</note>
  <outline>
    <contour>
      <point x="115" y="0" type="line"/>
      <point x="221" y="0" type="line"/>
      <point x="221" y="533" type="line"/>
      <point x="127" y="533" type="line"/>
      <point x="21" y="488" type="line"/>
      <point x="21" y="420" type="line"/>
      <point x="115" y="431" type="line"/>
    </contour>
  </outline>
</glyph>
<glyph name="two" format="2">
  <advance width="418"/>
  <unicode hex="0032"/>
  <note>
GF Latin Plus glyph
</note>
  <outline>
    <contour>
      <point x="32" y="0" type="line"/>
      <point x="393" y="0" type="line"/>
      <point x="393" y="95" type="line"/>
      <point x="173" y="95" type="line"/>
      <point x="292" y="213" type="line" smooth="yes"/>
      <point x="348" y="268"/>
      <point x="377" y="317"/>
      <point x="377" y="388" type="curve" smooth="yes"/>
      <point x="377" y="479"/>
      <point x="337" y="532"/>
      <point x="214" y="532" type="curve" smooth="yes"/>
      <point x="145" y="532"/>
      <point x="90" y="523"/>
      <point x="45" y="516" type="curve"/>
      <point x="45" y="432" type="line"/>
      <point x="193" y="432" type="line" smooth="yes"/>
      <point x="251" y="432"/>
      <point x="271" y="409"/>
      <point x="271" y="371" type="curve" smooth="yes"/>
      <point x="271" y="331"/>
      <point x="251" y="301"/>
      <point x="209" y="260" type="curve" smooth="yes"/>
      <point x="32" y="84" type="line"/>
    </contour>
  </outline>
</glyph>
<glyph name="three" format="2">
  <advance width="413"/>
  <unicode hex="0033"/>
  <note>
GF Latin Plus glyph
</note>
  <outline>
    <contour>
      <point x="229" y="-4" type="curve" smooth="yes"/>
      <point x="323" y="-4"/>
      <point x="380" y="41"/>
      <point x="380" y="125" type="curve" smooth="yes"/>
      <point x="380" y="152" type="line" smooth="yes"/>
      <point x="380" y="214"/>
      <point x="345" y="254"/>
      <point x="306" y="265" type="curve"/>
      <point x="343" y="277"/>
      <point x="372" y="307"/>
      <point x="372" y="363" type="curve" smooth="yes"/>
      <point x="372" y="402" type="line" smooth="yes"/>
      <point x="372" y="487"/>
      <point x="320" y="531"/>
      <point x="228" y="532" type="curve" smooth="yes"/>
      <point x="157" y="533"/>
      <point x="92" y="525"/>
      <point x="38" y="517" type="curve"/>
      <point x="38" y="432" type="line"/>
      <point x="185" y="432" type="line" smooth="yes"/>
      <point x="244" y="432"/>
      <point x="267" y="414"/>
      <point x="267" y="377" type="curve" smooth="yes"/>
      <point x="267" y="359" type="line" smooth="yes"/>
      <point x="267" y="326"/>
      <point x="242" y="315"/>
      <point x="199" y="313" type="curve" smooth="yes"/>
      <point x="74" y="306" type="line"/>
      <point x="74" y="225" type="line"/>
      <point x="204" y="219" type="line" smooth="yes"/>
      <point x="242" y="218"/>
      <point x="273" y="204"/>
      <point x="273" y="167" type="curve" smooth="yes"/>
      <point x="273" y="145" type="line" smooth="yes"/>
      <point x="273" y="106"/>
      <point x="247" y="95"/>
      <point x="189" y="95" type="curve" smooth="yes"/>
      <point x="26" y="95" type="line"/>
      <point x="26" y="10" type="line"/>
      <point x="82" y="1"/>
      <point x="153" y="-4"/>
    </contour>
  </outline>
</glyph>
<glyph name="four" format="2">
  <advance width="566"/>
  <unicode hex="0034"/>
  <outline>
    <contour>
      <point x="275" y="114" type="curve" smooth="yes"/>
      <point x="406" y="114" type="line"/>
      <point x="406" y="0" type="line"/>
      <point x="503" y="0" type="line"/>
      <point x="503" y="114" type="line"/>
      <point x="574" y="114" type="line"/>
      <point x="574" y="195" type="line"/>
      <point x="503" y="195" type="line"/>
      <point x="503" y="488" type="line"/>
      <point x="406" y="488" type="line"/>
      <point x="406" y="195" type="line"/>
      <point x="285" y="195" type="line"/>
      <point x="286" y="198" type="line"/>
      <point x="286" y="206"/>
      <point x="289" y="220"/>
      <point x="296" y="239" type="curve" smooth="yes"/>
      <point x="392" y="488" type="line"/>
      <point x="294" y="488" type="line"/>
      <point x="206" y="247" type="line" smooth="yes"/>
      <point x="195" y="218"/>
      <point x="190" y="196"/>
      <point x="190" y="179" type="curve" smooth="yes"/>
      <point x="190" y="135"/>
      <point x="239" y="114"/>
    </contour>
  </outline>
</glyph>
<glyph name="five" format="2">
  <advance width="433"/>
  <unicode hex="0035"/>
  <note>
GF Latin Plus glyph
</note>
  <outline>
    <contour>
      <point x="224" y="-3" type="curve" smooth="yes"/>
      <point x="339" y="-3"/>
      <point x="401" y="36"/>
      <point x="401" y="129" type="curve" smooth="yes"/>
      <point x="401" y="206" type="line" smooth="yes"/>
      <point x="401" y="277"/>
      <point x="361" y="331"/>
      <point x="279" y="331" type="curve" smooth="yes"/>
      <point x="221" y="331" type="line" smooth="yes"/>
      <point x="189" y="331"/>
      <point x="163" y="322"/>
      <point x="149" y="308" type="curve"/>
      <point x="154" y="433" type="line"/>
      <point x="381" y="433" type="line"/>
      <point x="381" y="528" type="line"/>
      <point x="64" y="528" type="line"/>
      <point x="49" y="203" type="line"/>
      <point x="149" y="203" type="line"/>
      <point x="153" y="229"/>
      <point x="168" y="241"/>
      <point x="200" y="241" type="curve" smooth="yes"/>
      <point x="241" y="241" type="line" smooth="yes"/>
      <point x="280" y="241"/>
      <point x="295" y="221"/>
      <point x="295" y="187" type="curve" smooth="yes"/>
      <point x="295" y="151" type="line" smooth="yes"/>
      <point x="295" y="121"/>
      <point x="280" y="91"/>
      <point x="228" y="91" type="curve" smooth="yes"/>
      <point x="42" y="91" type="line"/>
      <point x="42" y="7" type="line"/>
      <point x="98" y="1"/>
      <point x="166" y="-3"/>
    </contour>
  </outline>
</glyph>
<glyph name="eight" format="2">
  <advance width="448"/>
  <unicode hex="0038"/>
  <note>
GF Latin Plus glyph
</note>
  <outline>
    <contour>
      <point x="180" y="-3" type="curve" smooth="yes"/>
      <point x="277" y="-3" type="line" smooth="yes"/>
      <point x="349" y="-3"/>
      <point x="407" y="18"/>
      <point x="407" y="111" type="curve" smooth="yes"/>
      <point x="407" y="186" type="line" smooth="yes"/>
      <point x="407" y="217"/>
      <point x="397" y="267"/>
      <point x="349" y="278" type="curve"/>
      <point x="386" y="285"/>
      <point x="396" y="337"/>
      <point x="396" y="362" type="curve" smooth="yes"/>
      <point x="396" y="422" type="line" smooth="yes"/>
      <point x="396" y="502"/>
      <point x="343" y="532"/>
      <point x="275" y="532" type="curve" smooth="yes"/>
      <point x="175" y="532" type="line" smooth="yes"/>
      <point x="108" y="532"/>
      <point x="51" y="502"/>
      <point x="51" y="422" type="curve" smooth="yes"/>
      <point x="51" y="362" type="line" smooth="yes"/>
      <point x="51" y="324"/>
      <point x="56" y="290"/>
      <point x="99" y="269" type="curve"/>
      <point x="63" y="260"/>
      <point x="41" y="225"/>
      <point x="41" y="184" type="curve" smooth="yes"/>
      <point x="41" y="111" type="line" smooth="yes"/>
      <point x="41" y="18"/>
      <point x="107" y="-3"/>
    </contour>
    <contour>
      <point x="199" y="86" type="line" smooth="yes"/>
      <point x="165" y="86"/>
      <point x="147" y="98"/>
      <point x="147" y="131" type="curve" smooth="yes"/>
      <point x="147" y="178" type="line" smooth="yes"/>
      <point x="147" y="209"/>
      <point x="173" y="225"/>
      <point x="198" y="225" type="curve" smooth="yes"/>
      <point x="251" y="225" type="line" smooth="yes"/>
      <point x="286" y="225"/>
      <point x="301" y="208"/>
      <point x="301" y="178" type="curve" smooth="yes"/>
      <point x="301" y="131" type="line" smooth="yes"/>
      <point x="301" y="103"/>
      <point x="291" y="86"/>
      <point x="252" y="86" type="curve" smooth="yes"/>
    </contour>
    <contour>
      <point x="198" y="315" type="line" smooth="yes"/>
      <point x="168" y="315"/>
      <point x="155" y="327"/>
      <point x="155" y="363" type="curve" smooth="yes"/>
      <point x="155" y="396" type="line" smooth="yes"/>
      <point x="155" y="433"/>
      <point x="168" y="442"/>
      <point x="199" y="442" type="curve" smooth="yes"/>
      <point x="252" y="442" type="line" smooth="yes"/>
      <point x="277" y="442"/>
      <point x="293" y="435"/>
      <point x="293" y="396" type="curve" smooth="yes"/>
      <point x="293" y="363" type="line" smooth="yes"/>
      <point x="293" y="335"/>
      <point x="285" y="315"/>
      <point x="250" y="315" type="curve" smooth="yes"/>
    </contour>
  </outline>
</glyph>
<glyph name="nine" format="2">
  <advance width="566"/>
  <unicode hex="0039"/>
  <outline>
    <contour>
      <point x="463" y="488" type="curve" smooth="yes"/>
      <point x="327" y="488" type="line" smooth="yes"/>
      <point x="262" y="488"/>
      <point x="210" y="456"/>
      <point x="210" y="411" type="curve" smooth="yes"/>
      <point x="210" y="264" type="line" smooth="yes"/>
      <point x="210" y="220"/>
      <point x="260" y="180"/>
      <point x="320" y="180" type="curve" smooth="yes"/>
      <point x="477" y="180" type="line"/>
      <point x="477" y="112" type="line" smooth="yes"/>
      <point x="477" y="100"/>
      <point x="459" y="81"/>
      <point x="422" y="81" type="curve" smooth="yes"/>
      <point x="231" y="81" type="line"/>
      <point x="231" y="0" type="line"/>
      <point x="454" y="0" type="line" smooth="yes"/>
      <point x="521" y="0"/>
      <point x="574" y="46"/>
      <point x="574" y="99" type="curve" smooth="yes"/>
      <point x="574" y="396" type="line" smooth="yes"/>
      <point x="574" y="450"/>
      <point x="520" y="488"/>
    </contour>
    <contour>
      <point x="307" y="288" type="curve" smooth="yes"/>
      <point x="307" y="383" type="line" smooth="yes"/>
      <point x="307" y="403"/>
      <point x="323" y="407"/>
      <point x="340" y="407" type="curve" smooth="yes"/>
      <point x="439" y="407" type="line" smooth="yes"/>
      <point x="475" y="407"/>
      <point x="477" y="387"/>
      <point x="477" y="383" type="curve" smooth="yes"/>
      <point x="477" y="261" type="line"/>
      <point x="347" y="261" type="line" smooth="yes"/>
      <point x="330" y="261"/>
      <point x="307" y="274"/>
    </contour>
  </outline>
</glyph>
<glyph name="less" format="2">
  <advance width="435"/>
  <unicode hex="003C"/>
  <note>
GF Latin Plus glyph
</note>
  <outline>
    <contour>
      <point x="365" y="106" type="line"/>
      <point x="365" y="198" type="line"/>
      <point x="171" y="251" type="line"/>
      <point x="365" y="298" type="line"/>
      <point x="365" y="390" type="line"/>
      <point x="68" y="296" type="line"/>
      <point x="68" y="203" type="line"/>
    </contour>
  </outline>
</glyph>
<glyph name="greater" format="2">
  <advance width="435"/>
  <unicode hex="003E"/>
  <note>
GF Latin Plus glyph
</note>
  <outline>
    <contour>
      <point x="70" y="106" type="line"/>
      <point x="366" y="203" type="line"/>
      <point x="366" y="296" type="line"/>
      <point x="70" y="390" type="line"/>
      <point x="70" y="298" type="line"/>
      <point x="263" y="250" type="line"/>
      <point x="70" y="198" type="line"/>
    </contour>
  </outline>
</glyph>
<glyph name="question" format="2">
  <advance width="521"/>
  <unicode hex="003F"/>
  <outline>
    <contour>
      <point x="347" y="547" type="curve" smooth="yes"/>
      <point x="62" y="547" type="line"/>
      <point x="62" y="417" type="line" smooth="yes"/>
      <point x="62" y="367"/>
      <point x="105" y="323"/>
      <point x="162" y="323" type="curve" smooth="yes"/>
      <point x="232" y="323" type="line"/>
      <point x="232" y="404" type="line"/>
      <point x="184" y="404" type="line" smooth="yes"/>
      <point x="176" y="404"/>
      <point x="162" y="412"/>
      <point x="159" y="427" type="curve"/>
      <point x="160" y="466" type="line"/>
      <point x="332" y="466" type="line" smooth="yes"/>
      <point x="343" y="466"/>
      <point x="351" y="463"/>
      <point x="357" y="456" type="curve" smooth="yes"/>
      <point x="366" y="451"/>
      <point x="370" y="443"/>
      <point x="370" y="432" type="curve" smooth="yes"/>
      <point x="370" y="327" type="line" smooth="yes"/>
      <point x="370" y="318"/>
      <point x="359" y="290"/>
      <point x="332" y="290" type="curve" smooth="yes"/>
      <point x="275" y="290" type="line" smooth="yes"/>
      <point x="220" y="290"/>
      <point x="177" y="249"/>
      <point x="177" y="189" type="curve" smooth="yes"/>
      <point x="177" y="142" type="line"/>
      <point x="273" y="142" type="line"/>
      <point x="273" y="185" type="line" smooth="yes"/>
      <point x="273" y="206"/>
      <point x="291" y="209"/>
      <point x="301" y="209" type="curve" smooth="yes"/>
      <point x="347" y="209" type="line" smooth="yes"/>
      <point x="407" y="209"/>
      <point x="457" y="250"/>
      <point x="457" y="303" type="curve" smooth="yes"/>
      <point x="457" y="441" type="line" smooth="yes"/>
      <point x="457" y="480"/>
      <point x="429" y="547"/>
    </contour>
    <contour>
      <point x="250" y="110" type="curve" smooth="yes"/>
      <point x="203" y="110" type="line" smooth="yes"/>
      <point x="161" y="110"/>
      <point x="155" y="90"/>
      <point x="155" y="80" type="curve" smooth="yes"/>
      <point x="155" y="37" type="line" smooth="yes"/>
      <point x="155" y="14"/>
      <point x="177" y="0"/>
      <point x="198" y="0" type="curve" smooth="yes"/>
      <point x="254" y="0" type="line" smooth="yes"/>
      <point x="277" y="0"/>
      <point x="293" y="17"/>
      <point x="293" y="32" type="curve" smooth="yes"/>
      <point x="293" y="80" type="line" smooth="yes"/>
      <point x="293" y="89"/>
      <point x="284" y="110"/>
    </contour>
  </outline>
</glyph>
<glyph name="at" format="2">
  <advance width="630"/>
  <unicode hex="0040"/>
  <note>
GF Latin Plus glyph
</note>
  <outline>
    <contour>
      <point x="192" y="-131" type="curve" smooth="yes"/>
      <point x="425" y="-131" type="line" smooth="yes"/>
      <point x="529" y="-131"/>
      <point x="583" y="-79"/>
      <point x="583" y="37" type="curve" smooth="yes"/>
      <point x="583" y="350" type="line" smooth="yes"/>
      <point x="583" y="481"/>
      <point x="501" y="524"/>
      <point x="420" y="524" type="curve" smooth="yes"/>
      <point x="356" y="524" type="line" smooth="yes"/>
      <point x="266" y="524"/>
      <point x="169" y="515"/>
      <point x="134" y="508" type="curve"/>
      <point x="134" y="444" type="line"/>
      <point x="420" y="444" type="line" smooth="yes"/>
      <point x="472" y="444"/>
      <point x="503" y="408"/>
      <point x="503" y="350" type="curve" smooth="yes"/>
      <point x="503" y="37" type="line" smooth="yes"/>
      <point x="503" y="-18"/>
      <point x="483" y="-51"/>
      <point x="420" y="-51" type="curve" smooth="yes"/>
      <point x="192" y="-51" type="line" smooth="yes"/>
      <point x="158" y="-51"/>
      <point x="116" y="-32"/>
      <point x="116" y="37" type="curve" smooth="yes"/>
      <point x="116" y="228" type="line" smooth="yes"/>
      <point x="116" y="289"/>
      <point x="151" y="302"/>
      <point x="192" y="302" type="curve" smooth="yes"/>
      <point x="323" y="302" type="line" smooth="yes"/>
      <point x="355" y="302"/>
      <point x="371" y="292"/>
      <point x="371" y="259" type="curve" smooth="yes"/>
      <point x="371" y="232" type="line"/>
      <point x="275" y="232" type="line" smooth="yes"/>
      <point x="207" y="232"/>
      <point x="167" y="200"/>
      <point x="167" y="136" type="curve" smooth="yes"/>
      <point x="167" y="109" type="line" smooth="yes"/>
      <point x="167" y="60"/>
      <point x="195" y="9"/>
      <point x="258" y="9" type="curve" smooth="yes"/>
      <point x="323" y="9"/>
      <point x="371" y="56"/>
      <point x="373" y="56" type="curve"/>
      <point x="387" y="16" type="line"/>
      <point x="451" y="16" type="line"/>
      <point x="451" y="266" type="line" smooth="yes"/>
      <point x="451" y="369"/>
      <point x="385" y="381"/>
      <point x="321" y="381" type="curve" smooth="yes"/>
      <point x="192" y="381" type="line" smooth="yes"/>
      <point x="68" y="381"/>
      <point x="36" y="306"/>
      <point x="36" y="233" type="curve" smooth="yes"/>
      <point x="36" y="26" type="line" smooth="yes"/>
      <point x="36" y="-90"/>
      <point x="109" y="-131"/>
    </contour>
    <contour>
      <point x="292" y="89" type="curve" smooth="yes"/>
      <point x="264" y="89"/>
      <point x="252" y="101"/>
      <point x="252" y="124" type="curve" smooth="yes"/>
      <point x="252" y="139" type="line" smooth="yes"/>
      <point x="252" y="167"/>
      <point x="270" y="170"/>
      <point x="292" y="171" type="curve" smooth="yes"/>
      <point x="371" y="176" type="line"/>
      <point x="371" y="119" type="line"/>
      <point x="354" y="100"/>
      <point x="318" y="89"/>
    </contour>
  </outline>
</glyph>
<glyph name="A" format="2">
  <advance width="489"/>
  <unicode hex="0041"/>
  <note>
GF Latin Plus glyph
</note>
  <outline>
    <contour>
      <point x="11" y="0" type="line"/>
      <point x="120" y="0" type="line"/>
      <point x="153" y="110" type="line"/>
      <point x="333" y="110" type="line"/>
      <point x="367" y="0" type="line"/>
      <point x="477" y="0" type="line"/>
      <point x="311" y="528" type="line"/>
      <point x="178" y="528" type="line"/>
    </contour>
    <contour>
      <point x="178" y="205" type="line"/>
      <point x="243" y="437" type="line"/>
      <point x="308" y="205" type="line"/>
    </contour>
  </outline>
</glyph>
<glyph name="B" format="2">
  <advance width="447"/>
  <unicode hex="0042"/>
  <note>
GF Latin Plus glyph
</note>
  <outline>
    <contour>
      <point x="45" y="0" type="line"/>
      <point x="262" y="0" type="line" smooth="yes"/>
      <point x="365" y="0"/>
      <point x="421" y="37"/>
      <point x="421" y="145" type="curve" smooth="yes"/>
      <point x="421" y="224"/>
      <point x="376" y="263"/>
      <point x="331" y="274" type="curve"/>
      <point x="376" y="286"/>
      <point x="404" y="326"/>
      <point x="404" y="389" type="curve" smooth="yes"/>
      <point x="404" y="478"/>
      <point x="358" y="528"/>
      <point x="253" y="528" type="curve" smooth="yes"/>
      <point x="45" y="528" type="line"/>
    </contour>
    <contour>
      <point x="151" y="95" type="line"/>
      <point x="151" y="229" type="line"/>
      <point x="259" y="229" type="line" smooth="yes"/>
      <point x="295" y="229"/>
      <point x="320" y="205"/>
      <point x="320" y="164" type="curve" smooth="yes"/>
      <point x="320" y="114"/>
      <point x="297" y="95"/>
      <point x="259" y="95" type="curve" smooth="yes"/>
    </contour>
    <contour>
      <point x="151" y="310" type="line"/>
      <point x="151" y="433" type="line"/>
      <point x="252" y="433" type="line" smooth="yes"/>
      <point x="281" y="433"/>
      <point x="304" y="418"/>
      <point x="303" y="371" type="curve" smooth="yes"/>
      <point x="303" y="335"/>
      <point x="284" y="310"/>
      <point x="254" y="310" type="curve" smooth="yes"/>
    </contour>
  </outline>
</glyph>
<glyph name="C" format="2">
  <advance width="418"/>
  <unicode hex="0043"/>
  <note>
GF Latin Plus glyph
</note>
  <anchor x="240" y="-107" name="bottom"/>
  <anchor x="225" y="578" name="top"/>
  <outline>
    <contour>
      <point x="223" y="-4" type="curve" smooth="yes"/>
      <point x="297" y="-4"/>
      <point x="351" y="3"/>
      <point x="390" y="16" type="curve"/>
      <point x="390" y="98" type="line"/>
      <point x="362" y="94"/>
      <point x="319" y="90"/>
      <point x="247" y="90" type="curve" smooth="yes"/>
      <point x="160" y="90"/>
      <point x="138" y="122"/>
      <point x="138" y="264" type="curve" smooth="yes"/>
      <point x="138" y="412"/>
      <point x="166" y="438"/>
      <point x="247" y="438" type="curve" smooth="yes"/>
      <point x="308" y="438"/>
      <point x="363" y="431"/>
      <point x="390" y="426" type="curve"/>
      <point x="390" y="508" type="line"/>
      <point x="355" y="520"/>
      <point x="295" y="533"/>
      <point x="224" y="533" type="curve" smooth="yes"/>
      <point x="104" y="533"/>
      <point x="32" y="484"/>
      <point x="32" y="265" type="curve" smooth="yes"/>
      <point x="32" y="38"/>
      <point x="101" y="-4"/>
    </contour>
  </outline>
</glyph>
<glyph name="D" format="2">
  <advance width="486"/>
  <unicode hex="0044"/>
  <note>
GF Latin Plus glyph
</note>
  <anchor x="210" y="-107" name="bottom"/>
  <anchor x="233" y="578" name="top"/>
  <outline>
    <contour>
      <point x="45" y="0" type="line"/>
      <point x="269" y="0" type="line" smooth="yes"/>
      <point x="392" y="0"/>
      <point x="453" y="86"/>
      <point x="453" y="264" type="curve" smooth="yes"/>
      <point x="453" y="421"/>
      <point x="412" y="528"/>
      <point x="269" y="528" type="curve" smooth="yes"/>
      <point x="45" y="528" type="line"/>
    </contour>
    <contour>
      <point x="151" y="95" type="line"/>
      <point x="151" y="433" type="line"/>
      <point x="258" y="433" type="line" smooth="yes"/>
      <point x="317" y="433"/>
      <point x="347" y="401"/>
      <point x="347" y="264" type="curve" smooth="yes"/>
      <point x="347" y="152"/>
      <point x="323" y="95"/>
      <point x="258" y="95" type="curve" smooth="yes"/>
    </contour>
  </outline>
</glyph>
<glyph name="E" format="2">
  <advance width="426"/>
  <unicode hex="0045"/>
  <note>
GF Latin Plus glyph
</note>
  <anchor x="237" y="-107" name="bottom"/>
  <anchor x="223" y="578" name="top"/>
  <outline>
    <contour>
      <point x="174" y="-3" type="curve" smooth="yes"/>
      <point x="244" y="-3"/>
      <point x="331" y="0"/>
      <point x="394" y="6" type="curve"/>
      <point x="394" y="95" type="line"/>
      <point x="195" y="95" type="line" smooth="yes"/>
      <point x="171" y="95"/>
      <point x="151" y="105"/>
      <point x="151" y="142" type="curve" smooth="yes"/>
      <point x="151" y="215" type="line"/>
      <point x="360" y="221" type="line"/>
      <point x="360" y="305" type="line"/>
      <point x="151" y="311" type="line"/>
      <point x="151" y="387" type="line" smooth="yes"/>
      <point x="151" y="416"/>
      <point x="168" y="430"/>
      <point x="197" y="430" type="curve" smooth="yes"/>
      <point x="394" y="430" type="line"/>
      <point x="394" y="519" type="line"/>
      <point x="339" y="523"/>
      <point x="273" y="528"/>
      <point x="166" y="528" type="curve" smooth="yes"/>
      <point x="110" y="528"/>
      <point x="45" y="502"/>
      <point x="45" y="407" type="curve" smooth="yes"/>
      <point x="45" y="112" type="line" smooth="yes"/>
      <point x="45" y="5"/>
      <point x="127" y="-3"/>
    </contour>
  </outline>
</glyph>
<glyph name="F" format="2">
  <advance width="416"/>
  <unicode hex="0046"/>
  <note>
GF Latin Plus glyph
</note>
  <anchor x="223" y="578" name="top"/>
  <outline>
    <contour>
      <point x="45" y="0" type="line"/>
      <point x="151" y="0" type="line"/>
      <point x="151" y="202" type="line"/>
      <point x="360" y="208" type="line"/>
      <point x="360" y="292" type="line"/>
      <point x="151" y="297" type="line"/>
      <point x="151" y="388" type="line" smooth="yes"/>
      <point x="151" y="413"/>
      <point x="166" y="430"/>
      <point x="195" y="430" type="curve" smooth="yes"/>
      <point x="394" y="430" type="line"/>
      <point x="394" y="519" type="line"/>
      <point x="314" y="527"/>
      <point x="217" y="528"/>
      <point x="166" y="528" type="curve" smooth="yes"/>
      <point x="110" y="528"/>
      <point x="45" y="502"/>
      <point x="45" y="407" type="curve" smooth="yes"/>
    </contour>
  </outline>
</glyph>
<glyph name="G" format="2">
  <advance width="475"/>
  <unicode hex="0047"/>
  <note>
GF Latin Plus glyph
</note>
  <anchor x="251" y="-107" name="bottom"/>
  <anchor x="232" y="578" name="top"/>
  <outline>
    <contour>
      <point x="195" y="-3" type="curve" smooth="yes"/>
      <point x="255" y="-3"/>
      <point x="308" y="19"/>
      <point x="336" y="35" type="curve"/>
      <point x="350" y="0" type="line"/>
      <point x="430" y="0" type="line"/>
      <point x="430" y="300" type="line"/>
      <point x="410" y="301"/>
      <point x="386" y="302"/>
      <point x="355" y="302" type="curve" smooth="yes"/>
      <point x="314" y="302"/>
      <point x="263" y="299"/>
      <point x="233" y="294" type="curve"/>
      <point x="233" y="211" type="line"/>
      <point x="328" y="211" type="line"/>
      <point x="328" y="108" type="line"/>
      <point x="306" y="101"/>
      <point x="268" y="93"/>
      <point x="229" y="93" type="curve" smooth="yes"/>
      <point x="160" y="93"/>
      <point x="138" y="126"/>
      <point x="138" y="263" type="curve" smooth="yes"/>
      <point x="138" y="395"/>
      <point x="155" y="438"/>
      <point x="246" y="438" type="curve" smooth="yes"/>
      <point x="312" y="438"/>
      <point x="374" y="432"/>
      <point x="405" y="428" type="curve"/>
      <point x="405" y="510" type="line"/>
      <point x="351" y="523"/>
      <point x="300" y="533"/>
      <point x="227" y="533" type="curve" smooth="yes"/>
      <point x="67" y="533"/>
      <point x="32" y="433"/>
      <point x="32" y="264" type="curve" smooth="yes"/>
      <point x="32" y="102"/>
      <point x="63" y="-3"/>
    </contour>
  </outline>
</glyph>
<glyph name="H" format="2">
  <advance width="502"/>
  <unicode hex="0048"/>
  <note>
GF Latin Plus glyph
</note>
  <outline>
    <contour>
      <point x="45" y="0" type="line"/>
      <point x="151" y="0" type="line"/>
      <point x="151" y="213" type="line"/>
      <point x="350" y="213" type="line"/>
      <point x="350" y="0" type="line"/>
      <point x="456" y="0" type="line"/>
      <point x="456" y="528" type="line"/>
      <point x="350" y="528" type="line"/>
      <point x="350" y="308" type="line"/>
      <point x="151" y="308" type="line"/>
      <point x="151" y="528" type="line"/>
      <point x="45" y="528" type="line"/>
    </contour>
  </outline>
</glyph>
<glyph name="I" format="2">
  <advance width="197"/>
  <unicode hex="0049"/>
  <note>
GF Latin Plus glyph
</note>
  <outline>
    <contour>
      <point x="45" y="0" type="line"/>
      <point x="151" y="0" type="line"/>
      <point x="151" y="528" type="line"/>
      <point x="45" y="528" type="line"/>
    </contour>
  </outline>
</glyph>
<glyph name="J" format="2">
  <advance width="288"/>
  <unicode hex="004A"/>
  <note>
GF Latin Plus glyph
</note>
  <anchor x="190" y="578" name="top"/>
  <outline>
    <contour>
      <point x="105" y="-4" type="curve" smooth="yes"/>
      <point x="202" y="-4"/>
      <point x="243" y="39"/>
      <point x="243" y="129" type="curve" smooth="yes"/>
      <point x="243" y="528" type="line"/>
      <point x="137" y="528" type="line"/>
      <point x="137" y="145" type="line" smooth="yes"/>
      <point x="137" y="105"/>
      <point x="118" y="90"/>
      <point x="81" y="90" type="curve" smooth="yes"/>
      <point x="61" y="90"/>
      <point x="38" y="92"/>
      <point x="18" y="94" type="curve"/>
      <point x="18" y="9" type="line"/>
      <point x="40" y="2"/>
      <point x="74" y="-4"/>
    </contour>
  </outline>
</glyph>
<glyph name="K" format="2">
  <advance width="460"/>
  <unicode hex="004B"/>
  <note>
GF Latin Plus glyph
</note>
  <anchor x="229" y="-107" name="bottom"/>
  <anchor x="229" y="578" name="top"/>
  <outline>
    <contour>
      <point x="45" y="0" type="line"/>
      <point x="151" y="0" type="line"/>
      <point x="151" y="214" type="line"/>
      <point x="221" y="214" type="line"/>
      <point x="334" y="0" type="line"/>
      <point x="447" y="0" type="line"/>
      <point x="305" y="263" type="line"/>
      <point x="442" y="528" type="line"/>
      <point x="329" y="528" type="line"/>
      <point x="221" y="309" type="line"/>
      <point x="151" y="309" type="line"/>
      <point x="151" y="528" type="line"/>
      <point x="45" y="528" type="line"/>
    </contour>
  </outline>
</glyph>
<glyph name="L" format="2">
  <advance width="382"/>
  <unicode hex="004C"/>
  <note>
GF Latin Plus glyph
</note>
  <outline>
    <contour>
      <point x="170" y="0" type="curve" smooth="yes"/>
      <point x="366" y="0" type="line"/>
      <point x="366" y="95" type="line"/>
      <point x="198" y="95" type="line" smooth="yes"/>
      <point x="170" y="95"/>
      <point x="151" y="106"/>
      <point x="151" y="142" type="curve" smooth="yes"/>
      <point x="151" y="528" type="line"/>
      <point x="45" y="528" type="line"/>
      <point x="45" y="124" type="line" smooth="yes"/>
      <point x="45" y="34"/>
      <point x="88" y="0"/>
    </contour>
  </outline>
</glyph>
<glyph name="M" format="2">
  <advance width="630"/>
  <unicode hex="004D"/>
  <note>
GF Latin Plus glyph
</note>
  <anchor x="309" y="-107" name="bottom"/>
  <anchor x="309" y="578" name="top"/>
  <outline>
    <contour>
      <point x="31" y="0" type="line"/>
      <point x="133" y="0" type="line"/>
      <point x="177" y="388" type="line"/>
      <point x="160" y="387" type="line"/>
      <point x="265" y="0" type="line"/>
      <point x="364" y="0" type="line"/>
      <point x="467" y="387" type="line"/>
      <point x="451" y="389" type="line"/>
      <point x="497" y="0" type="line"/>
      <point x="599" y="0" type="line"/>
      <point x="536" y="528" type="line"/>
      <point x="436" y="528" type="line"/>
      <point x="315" y="123" type="line"/>
      <point x="194" y="528" type="line"/>
      <point x="92" y="528" type="line"/>
    </contour>
  </outline>
</glyph>
<glyph name="N" format="2">
  <advance width="503"/>
  <unicode hex="004E"/>
  <note>
GF Latin Plus glyph
</note>
  <anchor x="244" y="-107" name="bottom"/>
  <anchor x="244" y="578" name="top"/>
  <outline>
    <contour>
      <point x="49" y="0" type="line"/>
      <point x="155" y="0" type="line"/>
      <point x="155" y="348" type="line"/>
      <point x="376" y="0" type="line"/>
      <point x="461" y="0" type="line"/>
      <point x="461" y="528" type="line"/>
      <point x="355" y="528" type="line"/>
      <point x="355" y="180" type="line"/>
      <point x="134" y="528" type="line"/>
      <point x="49" y="528" type="line"/>
    </contour>
  </outline>
</glyph>
<glyph name="O" format="2">
  <advance width="499"/>
  <unicode hex="004F"/>
  <note>
GF Latin Plus glyph
</note>
  <anchor x="249" y="-107" name="bottom"/>
  <anchor x="249" y="578" name="top"/>
  <outline>
    <contour>
      <point x="249" y="-4" type="curve" smooth="yes"/>
      <point x="394" y="-4"/>
      <point x="467" y="36"/>
      <point x="467" y="263" type="curve" smooth="yes"/>
      <point x="467" y="490"/>
      <point x="394" y="533"/>
      <point x="249" y="533" type="curve" smooth="yes"/>
      <point x="106" y="533"/>
      <point x="32" y="490"/>
      <point x="32" y="263" type="curve" smooth="yes"/>
      <point x="32" y="36"/>
      <point x="105" y="-4"/>
    </contour>
    <contour>
      <point x="249" y="90" type="curve" smooth="yes"/>
      <point x="163" y="90"/>
      <point x="138" y="118"/>
      <point x="138" y="263" type="curve" smooth="yes"/>
      <point x="138" y="414"/>
      <point x="167" y="438"/>
      <point x="249" y="438" type="curve" smooth="yes"/>
      <point x="334" y="438"/>
      <point x="361" y="414"/>
      <point x="361" y="263" type="curve" smooth="yes"/>
      <point x="361" y="118"/>
      <point x="334" y="90"/>
    </contour>
  </outline>
</glyph>
<glyph name="P" format="2">
  <advance width="443"/>
  <unicode hex="0050"/>
  <note>
GF Latin Plus glyph
</note>
  <anchor x="217" y="578" name="top"/>
  <outline>
    <contour>
      <point x="45" y="0" type="line"/>
      <point x="151" y="0" type="line"/>
      <point x="151" y="172" type="line"/>
      <point x="175" y="169"/>
      <point x="238" y="161"/>
      <point x="272" y="161" type="curve" smooth="yes"/>
      <point x="337" y="161"/>
      <point x="420" y="185"/>
      <point x="420" y="347" type="curve" smooth="yes"/>
      <point x="420" y="507"/>
      <point x="337" y="528"/>
      <point x="268" y="528" type="curve" smooth="yes"/>
      <point x="45" y="528" type="line"/>
    </contour>
    <contour>
      <point x="151" y="256" type="line"/>
      <point x="151" y="433" type="line"/>
      <point x="258" y="433" type="line" smooth="yes"/>
      <point x="292" y="433"/>
      <point x="314" y="409"/>
      <point x="314" y="346" type="curve" smooth="yes"/>
      <point x="314" y="281"/>
      <point x="293" y="256"/>
      <point x="256" y="256" type="curve" smooth="yes"/>
    </contour>
  </outline>
</glyph>
<glyph name="Q" format="2">
  <advance width="499"/>
  <unicode hex="0051"/>
  <note>
GF Latin Plus glyph
</note>
  <outline>
    <component base="O"/>
    <contour>
      <point x="367" y="-140" type="curve" smooth="yes"/>
      <point x="380" y="-140"/>
      <point x="392" y="-137"/>
      <point x="406" y="-135" type="curve"/>
      <point x="406" y="-57" type="line"/>
      <point x="393" y="-60"/>
      <point x="377" y="-64"/>
      <point x="361" y="-64" type="curve" smooth="yes"/>
      <point x="334" y="-64"/>
      <point x="306" y="-54"/>
      <point x="299" y="-26" type="curve"/>
      <point x="226" y="-26" type="line"/>
      <point x="230" y="-105"/>
      <point x="299" y="-140"/>
    </contour>
  </outline>
</glyph>
<glyph name="R" format="2">
  <advance width="447"/>
  <unicode hex="0052"/>
  <note>
GF Latin Plus glyph
</note>
  <outline>
    <contour>
      <point x="45" y="0" type="line"/>
      <point x="151" y="0" type="line"/>
      <point x="151" y="196" type="line"/>
      <point x="177" y="196"/>
      <point x="213" y="195"/>
      <point x="237" y="195" type="curve"/>
      <point x="322" y="0" type="line"/>
      <point x="429" y="0" type="line"/>
      <point x="331" y="212" type="line"/>
      <point x="373" y="229"/>
      <point x="414" y="260"/>
      <point x="414" y="359" type="curve" smooth="yes"/>
      <point x="414" y="495"/>
      <point x="347" y="528"/>
      <point x="264" y="528" type="curve" smooth="yes"/>
      <point x="45" y="528" type="line"/>
    </contour>
    <contour>
      <point x="151" y="280" type="line"/>
      <point x="151" y="433" type="line"/>
      <point x="245" y="433" type="line" smooth="yes"/>
      <point x="282" y="433"/>
      <point x="309" y="419"/>
      <point x="309" y="359" type="curve" smooth="yes"/>
      <point x="309" y="297"/>
      <point x="283" y="280"/>
      <point x="245" y="280" type="curve" smooth="yes"/>
    </contour>
  </outline>
</glyph>
<glyph name="S" format="2">
  <advance width="421"/>
  <unicode hex="0053"/>
  <note>
GF Latin Plus glyph
</note>
  <outline>
    <contour>
      <point x="205" y="-4" type="curve" smooth="yes"/>
      <point x="314" y="-4"/>
      <point x="388" y="22"/>
      <point x="388" y="146" type="curve" smooth="yes"/>
      <point x="388" y="177" type="line" smooth="yes"/>
      <point x="388" y="255"/>
      <point x="342" y="312"/>
      <point x="248" y="312" type="curve" smooth="yes"/>
      <point x="195" y="312" type="line" smooth="yes"/>
      <point x="154" y="312"/>
      <point x="133" y="328"/>
      <point x="133" y="365" type="curve" smooth="yes"/>
      <point x="133" y="379" type="line" smooth="yes"/>
      <point x="133" y="426"/>
      <point x="165" y="437"/>
      <point x="215" y="437" type="curve" smooth="yes"/>
      <point x="261" y="437"/>
      <point x="319" y="434"/>
      <point x="363" y="431" type="curve"/>
      <point x="363" y="514" type="line"/>
      <point x="323" y="523"/>
      <point x="261" y="532"/>
      <point x="203" y="532" type="curve" smooth="yes"/>
      <point x="93" y="532"/>
      <point x="32" y="487"/>
      <point x="32" y="384" type="curve" smooth="yes"/>
      <point x="32" y="358" type="line" smooth="yes"/>
      <point x="32" y="252"/>
      <point x="87" y="212"/>
      <point x="189" y="212" type="curve" smooth="yes"/>
      <point x="234" y="212" type="line" smooth="yes"/>
      <point x="267" y="212"/>
      <point x="288" y="194"/>
      <point x="288" y="163" type="curve" smooth="yes"/>
      <point x="288" y="144" type="line" smooth="yes"/>
      <point x="288" y="102"/>
      <point x="253" y="90"/>
      <point x="199" y="90" type="curve" smooth="yes"/>
      <point x="147" y="90"/>
      <point x="81" y="92"/>
      <point x="39" y="96" type="curve"/>
      <point x="39" y="13" type="line"/>
      <point x="83" y="2"/>
      <point x="150" y="-4"/>
    </contour>
  </outline>
</glyph>
<glyph name="T" format="2">
  <advance width="418"/>
  <unicode hex="0054"/>
  <note>
GF Latin Plus glyph
</note>
  <outline>
    <contour>
      <point x="156" y="0" type="line"/>
      <point x="262" y="0" type="line"/>
      <point x="262" y="433" type="line"/>
      <point x="407" y="433" type="line"/>
      <point x="407" y="528" type="line"/>
      <point x="11" y="528" type="line"/>
      <point x="11" y="433" type="line"/>
      <point x="156" y="433" type="line"/>
    </contour>
  </outline>
</glyph>
<glyph name="U" format="2">
  <advance width="489"/>
  <unicode hex="0055"/>
  <note>
GF Latin Plus glyph
</note>
  <outline>
    <contour>
      <point x="244" y="-3" type="curve" smooth="yes"/>
      <point x="362" y="-3"/>
      <point x="451" y="28"/>
      <point x="451" y="170" type="curve" smooth="yes"/>
      <point x="451" y="528" type="line"/>
      <point x="345" y="528" type="line"/>
      <point x="345" y="170" type="line" smooth="yes"/>
      <point x="345" y="112"/>
      <point x="308" y="91"/>
      <point x="244" y="91" type="curve" smooth="yes"/>
      <point x="181" y="91"/>
      <point x="144" y="112"/>
      <point x="144" y="170" type="curve" smooth="yes"/>
      <point x="144" y="528" type="line"/>
      <point x="38" y="528" type="line"/>
      <point x="38" y="170" type="line" smooth="yes"/>
      <point x="38" y="28"/>
      <point x="127" y="-3"/>
    </contour>
  </outline>
</glyph>
<glyph name="V" format="2">
  <advance width="489"/>
  <unicode hex="0056"/>
  <note>
GF Latin Plus glyph
</note>
  <outline>
    <contour>
      <point x="178" y="0" type="line"/>
      <point x="311" y="0" type="line"/>
      <point x="477" y="528" type="line"/>
      <point x="368" y="528" type="line"/>
      <point x="245" y="114" type="line"/>
      <point x="121" y="528" type="line"/>
      <point x="11" y="528" type="line"/>
    </contour>
  </outline>
</glyph>
<glyph name="W" format="2">
  <advance width="707"/>
  <unicode hex="0057"/>
  <note>
GF Latin Plus glyph
</note>
  <anchor x="373" y="578" name="top"/>
  <outline>
    <contour>
      <point x="138" y="0" type="line"/>
      <point x="246" y="0" type="line"/>
      <point x="354" y="373" type="line"/>
      <point x="461" y="0" type="line"/>
      <point x="569" y="0" type="line"/>
      <point x="696" y="528" type="line"/>
      <point x="586" y="528" type="line"/>
      <point x="501" y="156" type="line"/>
      <point x="402" y="528" type="line"/>
      <point x="305" y="528" type="line"/>
      <point x="206" y="156" type="line"/>
      <point x="121" y="528" type="line"/>
      <point x="11" y="528" type="line"/>
    </contour>
  </outline>
</glyph>
<glyph name="X" format="2">
  <advance width="473"/>
  <unicode hex="0058"/>
  <note>
GF Latin Plus glyph
</note>
  <outline>
    <contour>
      <point x="342" y="0" type="line"/>
      <point x="459" y="0" type="line"/>
      <point x="128" y="528" type="line"/>
      <point x="12" y="528" type="line"/>
    </contour>
    <contour>
      <point x="14" y="0" type="line"/>
      <point x="131" y="0" type="line"/>
      <point x="245" y="199" type="line"/>
      <point x="191" y="288" type="line"/>
    </contour>
    <contour>
      <point x="281" y="233" type="line"/>
      <point x="461" y="528" type="line"/>
      <point x="344" y="528" type="line"/>
      <point x="228" y="322" type="line"/>
    </contour>
  </outline>
</glyph>
<glyph name="Y" format="2">
  <advance width="448"/>
  <unicode hex="0059"/>
  <note>
GF Latin Plus glyph
</note>
  <outline>
    <contour>
      <point x="171" y="0" type="line"/>
      <point x="277" y="0" type="line"/>
      <point x="277" y="160" type="line"/>
      <point x="436" y="528" type="line"/>
      <point x="330" y="528" type="line"/>
      <point x="226" y="267" type="line"/>
      <point x="122" y="528" type="line"/>
      <point x="12" y="528" type="line"/>
      <point x="171" y="160" type="line"/>
    </contour>
  </outline>
</glyph>
<glyph name="Z" format="2">
  <advance width="409"/>
  <unicode hex="005A"/>
  <note>
GF Latin Plus glyph
</note>
  <anchor x="201" y="-107" name="bottom"/>
  <anchor x="201" y="578" name="top"/>
  <outline>
    <contour>
      <point x="27" y="0" type="line"/>
      <point x="384" y="0" type="line"/>
      <point x="384" y="95" type="line"/>
      <point x="156" y="95" type="line"/>
      <point x="384" y="443" type="line"/>
      <point x="384" y="528" type="line"/>
      <point x="27" y="528" type="line"/>
      <point x="27" y="433" type="line"/>
      <point x="255" y="433" type="line"/>
      <point x="27" y="84" type="line"/>
    </contour>
  </outline>
</glyph>
<glyph name="bracketleft" format="2">
  <advance width="242"/>
  <unicode hex="005B"/>
  <note>
GF Latin Plus glyph
</note>
  <outline>
    <contour>
      <point x="175" y="-150" type="curve" smooth="yes"/>
      <point x="232" y="-150" type="line"/>
      <point x="232" y="-65" type="line"/>
      <point x="206" y="-65" type="line" smooth="yes"/>
      <point x="171" y="-65"/>
      <point x="153" y="-42"/>
      <point x="153" y="4" type="curve" smooth="yes"/>
      <point x="153" y="447" type="line" smooth="yes"/>
      <point x="153" y="499"/>
      <point x="174" y="516"/>
      <point x="206" y="516" type="curve" smooth="yes"/>
      <point x="232" y="516" type="line"/>
      <point x="232" y="601" type="line"/>
      <point x="175" y="601" type="line" smooth="yes"/>
      <point x="79" y="601"/>
      <point x="47" y="543"/>
      <point x="47" y="462" type="curve" smooth="yes"/>
      <point x="47" y="-1" type="line" smooth="yes"/>
      <point x="47" y="-63"/>
      <point x="64" y="-150"/>
    </contour>
  </outline>
</glyph>
<glyph name="backslash" format="2">
  <advance width="330"/>
  <unicode hex="005C"/>
  <note>
GF Latin Plus glyph
</note>
  <outline>
    <contour>
      <point x="211" y="-51" type="line"/>
      <point x="319" y="-51" type="line"/>
      <point x="118" y="550" type="line"/>
      <point x="10" y="550" type="line"/>
    </contour>
  </outline>
</glyph>
<glyph name="bracketright" format="2">
  <advance width="242"/>
  <unicode hex="005D"/>
  <note>
GF Latin Plus glyph
</note>
  <outline>
    <contour>
      <point x="10" y="-150" type="line"/>
      <point x="67" y="-150" type="line" smooth="yes"/>
      <point x="179" y="-150"/>
      <point x="196" y="-63"/>
      <point x="196" y="-1" type="curve" smooth="yes"/>
      <point x="196" y="462" type="line" smooth="yes"/>
      <point x="196" y="543"/>
      <point x="163" y="601"/>
      <point x="67" y="601" type="curve" smooth="yes"/>
      <point x="10" y="601" type="line"/>
      <point x="10" y="516" type="line"/>
      <point x="36" y="516" type="line" smooth="yes"/>
      <point x="68" y="516"/>
      <point x="90" y="499"/>
      <point x="90" y="447" type="curve" smooth="yes"/>
      <point x="90" y="4" type="line" smooth="yes"/>
      <point x="90" y="-42"/>
      <point x="71" y="-65"/>
      <point x="36" y="-65" type="curve" smooth="yes"/>
      <point x="10" y="-65" type="line"/>
    </contour>
  </outline>
</glyph>
<glyph name="asciicircum" format="2">
  <advance width="275"/>
  <unicode hex="005E"/>
  <note>
GF Latin Plus glyph
</note>
  <outline>
    <contour>
      <point x="27" y="379" type="line"/>
      <point x="89" y="379" type="line"/>
      <point x="139" y="428" type="line"/>
      <point x="186" y="379" type="line"/>
      <point x="248" y="379" type="line"/>
      <point x="177" y="477" type="line"/>
      <point x="105" y="477" type="line"/>
    </contour>
  </outline>
</glyph>
<glyph name="grave" format="2">
  <advance width="166"/>
  <unicode hex="0060"/>
  <note>
GF Latin Plus glyph
</note>
  <outline>
    <contour>
      <point x="92" y="450" type="line"/>
      <point x="155" y="450" type="line"/>
      <point x="96" y="550" type="line"/>
      <point x="10" y="550" type="line"/>
    </contour>
  </outline>
</glyph>
<glyph name="a" format="2">
  <advance width="393"/>
  <unicode hex="0061"/>
  <note>
GF Latin Plus glyph
</note>
  <anchor x="192" y="-107" name="bottom"/>
  <anchor x="192" y="464" name="top"/>
  <outline>
    <contour>
      <point x="122" y="-4" type="curve" smooth="yes"/>
      <point x="185" y="-4"/>
      <point x="240" y="27"/>
      <point x="253" y="40" type="curve"/>
      <point x="270" y="0" type="line"/>
      <point x="354" y="0" type="line"/>
      <point x="354" y="260" type="line" smooth="yes"/>
      <point x="354" y="359"/>
      <point x="299" y="388"/>
      <point x="203" y="388" type="curve" smooth="yes"/>
      <point x="134" y="388"/>
      <point x="87" y="378"/>
      <point x="50" y="366" type="curve"/>
      <point x="50" y="305" type="line"/>
      <point x="164" y="305" type="line" smooth="yes"/>
      <point x="235" y="305"/>
      <point x="248" y="289"/>
      <point x="248" y="253" type="curve" smooth="yes"/>
      <point x="248" y="227" type="line"/>
      <point x="150" y="227" type="line" smooth="yes"/>
      <point x="63" y="227"/>
      <point x="23" y="185"/>
      <point x="23" y="127" type="curve" smooth="yes"/>
      <point x="23" y="92" type="line" smooth="yes"/>
      <point x="23" y="32"/>
      <point x="64" y="-4"/>
    </contour>
    <contour>
      <point x="175" y="69" type="curve" smooth="yes"/>
      <point x="150" y="69"/>
      <point x="129" y="79"/>
      <point x="129" y="110" type="curve" smooth="yes"/>
      <point x="129" y="125" type="line" smooth="yes"/>
      <point x="129" y="153"/>
      <point x="146" y="169"/>
      <point x="184" y="172" type="curve" smooth="yes"/>
      <point x="248" y="177" type="line"/>
      <point x="248" y="87" type="line"/>
      <point x="243" y="85"/>
      <point x="200" y="68"/>
    </contour>
  </outline>
</glyph>
<glyph name="b" format="2">
  <advance width="417"/>
  <unicode hex="0062"/>
  <note>
GF Latin Plus glyph
</note>
  <outline>
    <contour>
      <point x="257" y="-4" type="curve" smooth="yes"/>
      <point x="347" y="-4"/>
      <point x="388" y="58"/>
      <point x="388" y="187" type="curve" smooth="yes"/>
      <point x="388" y="331"/>
      <point x="351" y="389"/>
      <point x="252" y="389" type="curve" smooth="yes"/>
      <point x="218" y="389"/>
      <point x="176" y="373"/>
      <point x="146" y="356" type="curve"/>
      <point x="146" y="545" type="line"/>
      <point x="40" y="545" type="line"/>
      <point x="40" y="0" type="line"/>
      <point x="129" y="0" type="line"/>
      <point x="146" y="36" type="line"/>
      <point x="174" y="14"/>
      <point x="206" y="-4"/>
    </contour>
    <contour>
      <point x="218" y="81" type="curve" smooth="yes"/>
      <point x="186" y="81"/>
      <point x="163" y="91"/>
      <point x="146" y="100" type="curve"/>
      <point x="146" y="282" type="line"/>
      <point x="164" y="293"/>
      <point x="190" y="304"/>
      <point x="218" y="304" type="curve" smooth="yes"/>
      <point x="252" y="304"/>
      <point x="282" y="291"/>
      <point x="282" y="193" type="curve" smooth="yes"/>
      <point x="282" y="106"/>
      <point x="255" y="81"/>
    </contour>
  </outline>
</glyph>
<glyph name="c" format="2">
  <advance width="350"/>
  <unicode hex="0063"/>
  <note>
GF Latin Plus glyph
</note>
  <outline>
    <contour>
      <point x="189" y="-4" type="curve" smooth="yes"/>
      <point x="239" y="-4"/>
      <point x="296" y="4"/>
      <point x="331" y="15" type="curve"/>
      <point x="331" y="75" type="line"/>
      <point x="227" y="75" type="line" smooth="yes"/>
      <point x="159" y="75"/>
      <point x="135" y="94"/>
      <point x="135" y="190" type="curve" smooth="yes"/>
      <point x="135" y="288"/>
      <point x="160" y="310"/>
      <point x="226" y="310" type="curve" smooth="yes"/>
      <point x="326" y="310" type="line"/>
      <point x="326" y="371" type="line"/>
      <point x="279" y="384"/>
      <point x="239" y="389"/>
      <point x="193" y="389" type="curve" smooth="yes"/>
      <point x="88" y="389"/>
      <point x="29" y="346"/>
      <point x="29" y="190" type="curve" smooth="yes"/>
      <point x="29" y="38"/>
      <point x="96" y="-4"/>
    </contour>
  </outline>
</glyph>
<glyph name="d" format="2">
  <advance width="416"/>
  <unicode hex="0064"/>
  <note>
GF Latin Plus glyph
</note>
  <outline>
    <contour>
      <point x="166" y="-4" type="curve" smooth="yes"/>
      <point x="204" y="-4"/>
      <point x="246" y="14"/>
      <point x="271" y="36" type="curve"/>
      <point x="288" y="0" type="line"/>
      <point x="377" y="0" type="line"/>
      <point x="377" y="545" type="line"/>
      <point x="271" y="545" type="line"/>
      <point x="271" y="371" type="line"/>
      <point x="244" y="380"/>
      <point x="208" y="389"/>
      <point x="173" y="389" type="curve" smooth="yes"/>
      <point x="63" y="389"/>
      <point x="29" y="329"/>
      <point x="29" y="187" type="curve" smooth="yes"/>
      <point x="29" y="48"/>
      <point x="76" y="-4"/>
    </contour>
    <contour>
      <point x="203" y="80" type="curve" smooth="yes"/>
      <point x="153" y="80"/>
      <point x="135" y="103"/>
      <point x="135" y="193" type="curve" smooth="yes"/>
      <point x="135" y="288"/>
      <point x="154" y="309"/>
      <point x="207" y="309" type="curve" smooth="yes"/>
      <point x="231" y="309"/>
      <point x="252" y="302"/>
      <point x="271" y="295" type="curve"/>
      <point x="271" y="102" type="line"/>
      <point x="255" y="92"/>
      <point x="232" y="80"/>
    </contour>
  </outline>
</glyph>
<glyph name="e" format="2">
  <advance width="383"/>
  <unicode hex="0065"/>
  <note>
GF Latin Plus glyph
</note>
  <anchor x="192" y="-107" name="bottom"/>
  <anchor x="192" y="464" name="top"/>
  <outline>
    <contour>
      <point x="202" y="-3" type="curve" smooth="yes"/>
      <point x="263" y="-3"/>
      <point x="304" y="4"/>
      <point x="342" y="13" type="curve"/>
      <point x="342" y="75" type="line"/>
      <point x="230" y="75" type="line" smooth="yes"/>
      <point x="152" y="75"/>
      <point x="136" y="96"/>
      <point x="134" y="154" type="curve"/>
      <point x="230" y="154" type="line" smooth="yes"/>
      <point x="306" y="154"/>
      <point x="354" y="179"/>
      <point x="354" y="256" type="curve" smooth="yes"/>
      <point x="354" y="361"/>
      <point x="312" y="389"/>
      <point x="198" y="389" type="curve" smooth="yes"/>
      <point x="71" y="389"/>
      <point x="29" y="347"/>
      <point x="29" y="191" type="curve" smooth="yes"/>
      <point x="29" y="38"/>
      <point x="75" y="-3"/>
    </contour>
    <contour>
      <point x="132" y="217" type="line"/>
      <point x="132" y="292"/>
      <point x="149" y="313"/>
      <point x="198" y="313" type="curve" smooth="yes"/>
      <point x="243" y="313"/>
      <point x="261" y="298"/>
      <point x="261" y="256" type="curve" smooth="yes"/>
      <point x="261" y="227"/>
      <point x="248" y="217"/>
      <point x="220" y="217" type="curve" smooth="yes"/>
    </contour>
  </outline>
</glyph>
<glyph name="f" format="2">
  <advance width="280"/>
  <unicode hex="0066"/>
  <note>
GF Latin Plus glyph
</note>
  <anchor x="194" y="622" name="top"/>
  <outline>
    <contour>
      <point x="67" y="0" type="line"/>
      <point x="173" y="0" type="line"/>
      <point x="173" y="298" type="line"/>
      <point x="270" y="298" type="line"/>
      <point x="270" y="383" type="line"/>
      <point x="173" y="383" type="line"/>
      <point x="173" y="414" type="line" smooth="yes"/>
      <point x="173" y="448"/>
      <point x="183" y="463"/>
      <point x="215" y="463" type="curve" smooth="yes"/>
      <point x="274" y="463" type="line"/>
      <point x="274" y="538" type="line"/>
      <point x="256" y="543"/>
      <point x="227" y="549"/>
      <point x="194" y="549" type="curve" smooth="yes"/>
      <point x="103" y="549"/>
      <point x="67" y="506"/>
      <point x="67" y="409" type="curve" smooth="yes"/>
      <point x="67" y="383" type="line"/>
      <point x="13" y="366" type="line"/>
      <point x="13" y="298" type="line"/>
      <point x="67" y="298" type="line"/>
    </contour>
  </outline>
</glyph>
<glyph name="g" format="2">
  <advance width="415"/>
  <unicode hex="0067"/>
  <note>
GF Latin Plus glyph
</note>
  <outline>
    <contour>
      <point x="139" y="-177" type="curve" smooth="yes"/>
      <point x="254" y="-177" type="line" smooth="yes"/>
      <point x="353" y="-177"/>
      <point x="400" y="-131"/>
      <point x="400" y="-55" type="curve" smooth="yes"/>
      <point x="400" y="-45" type="line" smooth="yes"/>
      <point x="400" y="38"/>
      <point x="350" y="69"/>
      <point x="262" y="69" type="curve" smooth="yes"/>
      <point x="156" y="69" type="line" smooth="yes"/>
      <point x="139" y="69"/>
      <point x="122" y="75"/>
      <point x="122" y="91" type="curve" smooth="yes"/>
      <point x="122" y="110"/>
      <point x="140" y="118"/>
      <point x="166" y="118" type="curve" smooth="yes"/>
      <point x="234" y="118" type="line" smooth="yes"/>
      <point x="334" y="118"/>
      <point x="372" y="168"/>
      <point x="372" y="235" type="curve" smooth="yes"/>
      <point x="372" y="280"/>
      <point x="357" y="300"/>
      <point x="344" y="314" type="curve"/>
      <point x="402" y="325" type="line"/>
      <point x="402" y="383" type="line"/>
      <point x="195" y="383" type="line" smooth="yes"/>
      <point x="87" y="383"/>
      <point x="35" y="343"/>
      <point x="35" y="258" type="curve" smooth="yes"/>
      <point x="35" y="214"/>
      <point x="51" y="173"/>
      <point x="96" y="148" type="curve"/>
      <point x="57" y="139"/>
      <point x="33" y="112"/>
      <point x="33" y="73" type="curve" smooth="yes"/>
      <point x="33" y="26"/>
      <point x="74" y="-9"/>
      <point x="159" y="-9" type="curve" smooth="yes"/>
      <point x="245" y="-9" type="line" smooth="yes"/>
      <point x="283" y="-9"/>
      <point x="300" y="-24"/>
      <point x="300" y="-50" type="curve" smooth="yes"/>
      <point x="300" y="-61" type="line" smooth="yes"/>
      <point x="300" y="-89"/>
      <point x="277" y="-103"/>
      <point x="242" y="-103" type="curve" smooth="yes"/>
      <point x="169" y="-103" type="line" smooth="yes"/>
      <point x="133" y="-103"/>
      <point x="114" y="-88"/>
      <point x="114" y="-60" type="curve" smooth="yes"/>
      <point x="114" y="-52" type="line" smooth="yes"/>
      <point x="114" y="-24"/>
      <point x="136" y="-9"/>
      <point x="168" y="-9" type="curve"/>
      <point x="136" y="23" type="line"/>
      <point x="74" y="23"/>
      <point x="13" y="-11"/>
      <point x="13" y="-73" type="curve" smooth="yes"/>
      <point x="13" y="-84" type="line" smooth="yes"/>
      <point x="13" y="-144"/>
      <point x="67" y="-177"/>
    </contour>
    <contour>
      <point x="181" y="197" type="line" smooth="yes"/>
      <point x="147" y="197"/>
      <point x="131" y="213"/>
      <point x="131" y="251" type="curve" smooth="yes"/>
      <point x="131" y="290"/>
      <point x="148" y="304"/>
      <point x="184" y="304" type="curve" smooth="yes"/>
      <point x="224" y="304" type="line" smooth="yes"/>
      <point x="258" y="304"/>
      <point x="277" y="289"/>
      <point x="277" y="249" type="curve" smooth="yes"/>
      <point x="277" y="218"/>
      <point x="265" y="197"/>
      <point x="222" y="197" type="curve" smooth="yes"/>
    </contour>
  </outline>
</glyph>
<glyph name="h" format="2">
  <advance width="425"/>
  <unicode hex="0068"/>
  <note>
GF Latin Plus glyph
</note>
  <anchor x="212" y="-107" name="bottom"/>
  <anchor x="106" y="616" name="top"/>
  <outline>
    <contour>
      <point x="40" y="0" type="line"/>
      <point x="146" y="0" type="line"/>
      <point x="146" y="266" type="line"/>
      <point x="169" y="282"/>
      <point x="194" y="294"/>
      <point x="225" y="294" type="curve" smooth="yes"/>
      <point x="257" y="294"/>
      <point x="280" y="276"/>
      <point x="280" y="240" type="curve" smooth="yes"/>
      <point x="280" y="0" type="line"/>
      <point x="386" y="0" type="line"/>
      <point x="386" y="253" type="line" smooth="yes"/>
      <point x="386" y="334"/>
      <point x="355" y="389"/>
      <point x="268" y="389" type="curve" smooth="yes"/>
      <point x="221" y="389"/>
      <point x="173" y="366"/>
      <point x="146" y="344" type="curve"/>
      <point x="146" y="544" type="line"/>
      <point x="40" y="544" type="line"/>
    </contour>
  </outline>
</glyph>
<glyph name="i" format="2">
  <advance width="186"/>
  <unicode hex="0069"/>
  <note>
GF Latin Plus glyph
</note>
  <anchor x="93" y="-107" name="bottom"/>
  <outline>
    <component base="dotlessi"/>
    <contour>
      <point x="53" y="439" type="curve" smooth="yes"/>
      <point x="134" y="439" type="line" smooth="yes"/>
      <point x="143" y="439"/>
      <point x="148" y="444"/>
      <point x="148" y="454" type="curve" smooth="yes"/>
      <point x="148" y="524" type="line" smooth="yes"/>
      <point x="148" y="532"/>
      <point x="144" y="539"/>
      <point x="134" y="539" type="curve" smooth="yes"/>
      <point x="53" y="539" type="line" smooth="yes"/>
      <point x="43" y="539"/>
      <point x="38" y="533"/>
      <point x="38" y="524" type="curve" smooth="yes"/>
      <point x="38" y="454" type="line" smooth="yes"/>
      <point x="38" y="445"/>
      <point x="44" y="439"/>
    </contour>
  </outline>
</glyph>
<glyph name="j" format="2">
  <advance width="186"/>
  <unicode hex="006A"/>
  <note>
GF Latin Plus glyph
</note>
  <outline>
    <component base="jdotless"/>
    <contour>
      <point x="52" y="439" type="curve" smooth="yes"/>
      <point x="134" y="439" type="line" smooth="yes"/>
      <point x="142" y="439"/>
      <point x="147" y="444"/>
      <point x="147" y="454" type="curve" smooth="yes"/>
      <point x="147" y="524" type="line" smooth="yes"/>
      <point x="147" y="532"/>
      <point x="143" y="539"/>
      <point x="134" y="539" type="curve" smooth="yes"/>
      <point x="52" y="539" type="line" smooth="yes"/>
      <point x="42" y="539"/>
      <point x="37" y="533"/>
      <point x="37" y="524" type="curve" smooth="yes"/>
      <point x="37" y="454" type="line" smooth="yes"/>
      <point x="37" y="445"/>
      <point x="44" y="439"/>
    </contour>
  </outline>
</glyph>
<glyph name="k" format="2">
  <advance width="395"/>
  <unicode hex="006B"/>
  <note>
GF Latin Plus glyph
</note>
  <anchor x="197" y="-107" name="bottom"/>
  <outline>
    <contour>
      <point x="40" y="0" type="line"/>
      <point x="146" y="0" type="line"/>
      <point x="146" y="155" type="line"/>
      <point x="190" y="155" type="line"/>
      <point x="286" y="0" type="line"/>
      <point x="394" y="0" type="line"/>
      <point x="269" y="202" type="line"/>
      <point x="383" y="383" type="line"/>
      <point x="275" y="383" type="line"/>
      <point x="191" y="250" type="line"/>
      <point x="146" y="250" type="line"/>
      <point x="146" y="545" type="line"/>
      <point x="40" y="545" type="line"/>
    </contour>
  </outline>
</glyph>
<glyph name="l" format="2">
  <advance width="223"/>
  <unicode hex="006C"/>
  <note>
GF Latin Plus glyph
</note>
  <outline>
    <contour>
      <point x="160" y="-1" type="curve" smooth="yes"/>
      <point x="215" y="-1" type="line"/>
      <point x="215" y="75" type="line"/>
      <point x="186" y="79" type="line" smooth="yes"/>
      <point x="159" y="82"/>
      <point x="146" y="96"/>
      <point x="146" y="139" type="curve" smooth="yes"/>
      <point x="146" y="545" type="line"/>
      <point x="40" y="545" type="line"/>
      <point x="40" y="123" type="line" smooth="yes"/>
      <point x="40" y="36"/>
      <point x="79" y="-1"/>
    </contour>
  </outline>
</glyph>
<glyph name="m" format="2">
  <advance width="665"/>
  <unicode hex="006D"/>
  <note>
GF Latin Plus glyph
</note>
  <anchor x="332" y="-107" name="bottom"/>
  <anchor x="343" y="464" name="top"/>
  <outline>
    <contour>
      <point x="40" y="0" type="line"/>
      <point x="146" y="0" type="line"/>
      <point x="146" y="266" type="line"/>
      <point x="169" y="283"/>
      <point x="194" y="294"/>
      <point x="225" y="294" type="curve" smooth="yes"/>
      <point x="259" y="294"/>
      <point x="280" y="276"/>
      <point x="280" y="239" type="curve" smooth="yes"/>
      <point x="280" y="0" type="line"/>
      <point x="386" y="0" type="line"/>
      <point x="386" y="237" type="line" smooth="yes"/>
      <point x="386" y="246"/>
      <point x="385" y="255"/>
      <point x="383" y="264" type="curve"/>
      <point x="406" y="281"/>
      <point x="437" y="294"/>
      <point x="465" y="294" type="curve" smooth="yes"/>
      <point x="499" y="294"/>
      <point x="520" y="276"/>
      <point x="520" y="239" type="curve" smooth="yes"/>
      <point x="520" y="0" type="line"/>
      <point x="626" y="0" type="line"/>
      <point x="626" y="248" type="line" smooth="yes"/>
      <point x="626" y="333"/>
      <point x="597" y="389"/>
      <point x="505" y="389" type="curve" smooth="yes"/>
      <point x="455" y="389"/>
      <point x="402" y="360"/>
      <point x="370" y="336" type="curve"/>
      <point x="353" y="367"/>
      <point x="322" y="389"/>
      <point x="274" y="389" type="curve" smooth="yes"/>
      <point x="216" y="389"/>
      <point x="179" y="368"/>
      <point x="146" y="344" type="curve"/>
      <point x="127" y="383" type="line"/>
      <point x="40" y="383" type="line"/>
    </contour>
  </outline>
</glyph>
<glyph name="n" format="2">
  <advance width="425"/>
  <unicode hex="006E"/>
  <note>
GF Latin Plus glyph
</note>
  <anchor x="212" y="-107" name="bottom"/>
  <anchor x="212" y="464" name="top"/>
  <outline>
    <contour>
      <point x="40" y="0" type="line"/>
      <point x="146" y="0" type="line"/>
      <point x="146" y="266" type="line"/>
      <point x="169" y="283"/>
      <point x="194" y="294"/>
      <point x="225" y="294" type="curve" smooth="yes"/>
      <point x="259" y="294"/>
      <point x="280" y="276"/>
      <point x="280" y="239" type="curve" smooth="yes"/>
      <point x="280" y="0" type="line"/>
      <point x="386" y="0" type="line"/>
      <point x="386" y="252" type="line" smooth="yes"/>
      <point x="386" y="328"/>
      <point x="360" y="389"/>
      <point x="267" y="389" type="curve" smooth="yes"/>
      <point x="221" y="389"/>
      <point x="174" y="367"/>
      <point x="146" y="344" type="curve"/>
      <point x="127" y="383" type="line"/>
      <point x="40" y="383" type="line"/>
    </contour>
  </outline>
</glyph>
<glyph name="o" format="2">
  <advance width="410"/>
  <unicode hex="006F"/>
  <note>
GF Latin Plus glyph
</note>
  <outline>
    <contour>
      <point x="205" y="-3" type="curve" smooth="yes"/>
      <point x="334" y="-3"/>
      <point x="381" y="40"/>
      <point x="381" y="192" type="curve" smooth="yes"/>
      <point x="381" y="346"/>
      <point x="331" y="389"/>
      <point x="205" y="389" type="curve" smooth="yes"/>
      <point x="79" y="389"/>
      <point x="29" y="349"/>
      <point x="29" y="192" type="curve" smooth="yes"/>
      <point x="29" y="44"/>
      <point x="78" y="-3"/>
    </contour>
    <contour>
      <point x="205" y="80" type="curve" smooth="yes"/>
      <point x="155" y="80"/>
      <point x="135" y="91"/>
      <point x="135" y="193" type="curve" smooth="yes"/>
      <point x="135" y="293"/>
      <point x="155" y="304"/>
      <point x="205" y="304" type="curve" smooth="yes"/>
      <point x="254" y="304"/>
      <point x="275" y="293"/>
      <point x="275" y="193" type="curve" smooth="yes"/>
      <point x="275" y="91"/>
      <point x="254" y="80"/>
    </contour>
  </outline>
</glyph>
<glyph name="p" format="2">
  <advance width="417"/>
  <unicode hex="0070"/>
  <note>
GF Latin Plus glyph
</note>
  <anchor x="201" y="464" name="top"/>
  <outline>
    <contour>
      <point x="40" y="-169" type="line"/>
      <point x="146" y="-169" type="line"/>
      <point x="146" y="19" type="line"/>
      <point x="177" y="3"/>
      <point x="216" y="-5"/>
      <point x="252" y="-5" type="curve" smooth="yes"/>
      <point x="356" y="-5"/>
      <point x="388" y="67"/>
      <point x="388" y="191" type="curve" smooth="yes"/>
      <point x="388" y="314"/>
      <point x="347" y="389"/>
      <point x="252" y="389" type="curve" smooth="yes"/>
      <point x="208" y="389"/>
      <point x="173" y="368"/>
      <point x="146" y="346" type="curve"/>
      <point x="129" y="383" type="line"/>
      <point x="40" y="383" type="line"/>
    </contour>
    <contour>
      <point x="218" y="81" type="curve" smooth="yes"/>
      <point x="192" y="81"/>
      <point x="165" y="89"/>
      <point x="146" y="100" type="curve"/>
      <point x="146" y="282" type="line"/>
      <point x="163" y="292"/>
      <point x="189" y="304"/>
      <point x="218" y="304" type="curve" smooth="yes"/>
      <point x="255" y="304"/>
      <point x="282" y="277"/>
      <point x="282" y="191" type="curve" smooth="yes"/>
      <point x="282" y="103"/>
      <point x="251" y="81"/>
    </contour>
  </outline>
</glyph>
<glyph name="q" format="2">
  <advance width="416"/>
  <unicode hex="0071"/>
  <note>
GF Latin Plus glyph
</note>
  <outline>
    <contour>
      <point x="271" y="-169" type="line"/>
      <point x="377" y="-169" type="line"/>
      <point x="377" y="374" type="line"/>
      <point x="326" y="381"/>
      <point x="244" y="389"/>
      <point x="175" y="389" type="curve" smooth="yes"/>
      <point x="75" y="389"/>
      <point x="29" y="338"/>
      <point x="29" y="191" type="curve" smooth="yes"/>
      <point x="29" y="56"/>
      <point x="63" y="-4"/>
      <point x="169" y="-4" type="curve" smooth="yes"/>
      <point x="204" y="-4"/>
      <point x="244" y="14"/>
      <point x="271" y="36" type="curve"/>
    </contour>
    <contour>
      <point x="200" y="80" type="curve" smooth="yes"/>
      <point x="152" y="80"/>
      <point x="135" y="103"/>
      <point x="135" y="195" type="curve" smooth="yes"/>
      <point x="135" y="273"/>
      <point x="152" y="309"/>
      <point x="208" y="309" type="curve" smooth="yes"/>
      <point x="271" y="309" type="line"/>
      <point x="271" y="102" type="line"/>
      <point x="252" y="90"/>
      <point x="222" y="80"/>
    </contour>
  </outline>
</glyph>
<glyph name="r" format="2">
  <advance width="302"/>
  <unicode hex="0072"/>
  <note>
GF Latin Plus glyph
</note>
  <anchor x="93" y="-107" name="bottom"/>
  <anchor x="158" y="464" name="top"/>
  <outline>
    <contour>
      <point x="40" y="0" type="line"/>
      <point x="146" y="0" type="line"/>
      <point x="146" y="238" type="line"/>
      <point x="171" y="266"/>
      <point x="199" y="279"/>
      <point x="241" y="279" type="curve" smooth="yes"/>
      <point x="255" y="279"/>
      <point x="271" y="278"/>
      <point x="286" y="276" type="curve"/>
      <point x="286" y="385" type="line"/>
      <point x="276" y="387"/>
      <point x="265" y="388"/>
      <point x="255" y="388" type="curve" smooth="yes"/>
      <point x="207" y="388"/>
      <point x="173" y="359"/>
      <point x="146" y="324" type="curve"/>
      <point x="122" y="383" type="line"/>
      <point x="40" y="383" type="line"/>
    </contour>
  </outline>
</glyph>
<glyph name="s" format="2">
  <advance width="360"/>
  <unicode hex="0073"/>
  <note>
GF Latin Plus glyph
</note>
  <outline>
    <contour>
      <point x="180" y="-4" type="curve" smooth="yes"/>
      <point x="280" y="-4"/>
      <point x="335" y="20"/>
      <point x="335" y="98" type="curve" smooth="yes"/>
      <point x="335" y="132" type="line" smooth="yes"/>
      <point x="335" y="195"/>
      <point x="301" y="233"/>
      <point x="223" y="233" type="curve" smooth="yes"/>
      <point x="161" y="233" type="line" smooth="yes"/>
      <point x="131" y="233"/>
      <point x="115" y="238"/>
      <point x="115" y="263" type="curve" smooth="yes"/>
      <point x="115" y="275" type="line" smooth="yes"/>
      <point x="115" y="299"/>
      <point x="129" y="307"/>
      <point x="157" y="307" type="curve" smooth="yes"/>
      <point x="318" y="307" type="line"/>
      <point x="318" y="369" type="line"/>
      <point x="290" y="378"/>
      <point x="226" y="387"/>
      <point x="179" y="387" type="curve" smooth="yes"/>
      <point x="61" y="387"/>
      <point x="25" y="348"/>
      <point x="25" y="275" type="curve" smooth="yes"/>
      <point x="25" y="252" type="line" smooth="yes"/>
      <point x="25" y="174"/>
      <point x="75" y="148"/>
      <point x="141" y="148" type="curve" smooth="yes"/>
      <point x="201" y="148" type="line" smooth="yes"/>
      <point x="234" y="148"/>
      <point x="245" y="137"/>
      <point x="245" y="118" type="curve" smooth="yes"/>
      <point x="245" y="106" type="line" smooth="yes"/>
      <point x="245" y="80"/>
      <point x="231" y="75"/>
      <point x="201" y="75" type="curve" smooth="yes"/>
      <point x="31" y="75" type="line"/>
      <point x="31" y="13" type="line"/>
      <point x="63" y="1"/>
      <point x="131" y="-4"/>
    </contour>
  </outline>
</glyph>
<glyph name="t" format="2">
  <advance width="277"/>
  <unicode hex="0074"/>
  <note>
GF Latin Plus glyph
</note>
  <outline>
    <contour>
      <point x="186" y="0" type="curve" smooth="yes"/>
      <point x="255" y="0" type="line"/>
      <point x="255" y="78" type="line"/>
      <point x="207" y="83" type="line" smooth="yes"/>
      <point x="186" y="85"/>
      <point x="169" y="95"/>
      <point x="169" y="136" type="curve" smooth="yes"/>
      <point x="169" y="298" type="line"/>
      <point x="259" y="298" type="line"/>
      <point x="259" y="383" type="line"/>
      <point x="169" y="383" type="line"/>
      <point x="169" y="490" type="line"/>
      <point x="85" y="490" type="line"/>
      <point x="71" y="383" type="line"/>
      <point x="7" y="366" type="line"/>
      <point x="7" y="298" type="line"/>
      <point x="67" y="298" type="line"/>
      <point x="64" y="136" type="line" smooth="yes"/>
      <point x="61" y="34"/>
      <point x="98" y="0"/>
    </contour>
  </outline>
</glyph>
<glyph name="u" format="2">
  <advance width="425"/>
  <unicode hex="0075"/>
  <note>
GF Latin Plus glyph
</note>
  <outline>
    <contour>
      <point x="149" y="-4" type="curve" smooth="yes"/>
      <point x="198" y="-4"/>
      <point x="244" y="16"/>
      <point x="279" y="39" type="curve"/>
      <point x="298" y="0" type="line"/>
      <point x="385" y="0" type="line"/>
      <point x="385" y="383" type="line"/>
      <point x="279" y="383" type="line"/>
      <point x="279" y="116" type="line"/>
      <point x="257" y="99"/>
      <point x="227" y="89"/>
      <point x="201" y="89" type="curve" smooth="yes"/>
      <point x="166" y="89"/>
      <point x="145" y="100"/>
      <point x="145" y="143" type="curve" smooth="yes"/>
      <point x="145" y="383" type="line"/>
      <point x="39" y="383" type="line"/>
      <point x="39" y="112" type="line" smooth="yes"/>
      <point x="39" y="38"/>
      <point x="79" y="-4"/>
    </contour>
  </outline>
</glyph>
<glyph name="v" format="2">
  <advance width="402"/>
  <unicode hex="0076"/>
  <note>
GF Latin Plus glyph
</note>
  <outline>
    <contour>
      <point x="137" y="0" type="line"/>
      <point x="259" y="0" type="line"/>
      <point x="393" y="383" type="line"/>
      <point x="285" y="383" type="line"/>
      <point x="200" y="97" type="line"/>
      <point x="117" y="383" type="line"/>
      <point x="8" y="383" type="line"/>
    </contour>
  </outline>
</glyph>
<glyph name="w" format="2">
  <advance width="589"/>
  <unicode hex="0077"/>
  <note>
GF Latin Plus glyph
</note>
  <outline>
    <contour>
      <point x="110" y="0" type="line"/>
      <point x="225" y="0" type="line"/>
      <point x="295" y="233" type="line"/>
      <point x="364" y="0" type="line"/>
      <point x="481" y="0" type="line"/>
      <point x="581" y="383" type="line"/>
      <point x="472" y="383" type="line"/>
      <point x="417" y="97" type="line"/>
      <point x="341" y="383" type="line"/>
      <point x="254" y="383" type="line"/>
      <point x="178" y="97" type="line"/>
      <point x="117" y="383" type="line"/>
      <point x="8" y="383" type="line"/>
    </contour>
  </outline>
</glyph>
<glyph name="x" format="2">
  <advance width="386"/>
  <unicode hex="0078"/>
  <note>
GF Latin Plus glyph
</note>
  <outline>
    <contour>
      <point x="273" y="0" type="line"/>
      <point x="380" y="0" type="line"/>
      <point x="113" y="383" type="line"/>
      <point x="6" y="383" type="line"/>
    </contour>
    <contour>
      <point x="6" y="0" type="line"/>
      <point x="113" y="0" type="line"/>
      <point x="192" y="125" type="line"/>
      <point x="154" y="224" type="line"/>
    </contour>
    <contour>
      <point x="232" y="157" type="line"/>
      <point x="380" y="383" type="line"/>
      <point x="273" y="383" type="line"/>
      <point x="187" y="245" type="line"/>
    </contour>
  </outline>
</glyph>
<glyph name="y" format="2">
  <advance width="406"/>
  <unicode hex="0079"/>
  <note>
GF Latin Plus glyph
</note>
  <anchor x="371" y="-107" name="bottom"/>
  <anchor x="196" y="464" name="top"/>
  <outline>
    <contour>
      <point x="160" y="-169" type="line"/>
      <point x="248" y="-169" type="line"/>
      <point x="283" y="-98" type="line"/>
      <point x="397" y="383" type="line"/>
      <point x="289" y="383" type="line"/>
      <point x="220" y="86" type="line"/>
      <point x="212" y="86"/>
      <point x="188" y="88"/>
      <point x="179" y="124" type="curve" smooth="yes"/>
      <point x="118" y="383" type="line"/>
      <point x="8" y="383" type="line"/>
      <point x="80" y="102" type="line" smooth="yes"/>
      <point x="97" y="36"/>
      <point x="136" y="0"/>
      <point x="202" y="0" type="curve"/>
    </contour>
  </outline>
</glyph>
<glyph name="z" format="2">
  <advance width="360"/>
  <unicode hex="007A"/>
  <note>
GF Latin Plus glyph
</note>
  <anchor x="174" y="-107" name="bottom"/>
  <anchor x="174" y="464" name="top"/>
  <outline>
    <contour>
      <point x="32" y="0" type="line"/>
      <point x="335" y="0" type="line"/>
      <point x="335" y="84" type="line"/>
      <point x="154" y="84" type="line"/>
      <point x="335" y="307" type="line"/>
      <point x="335" y="383" type="line"/>
      <point x="25" y="383" type="line"/>
      <point x="25" y="298" type="line"/>
      <point x="212" y="298" type="line"/>
      <point x="32" y="76" type="line"/>
    </contour>
  </outline>
</glyph>
<glyph name="braceleft" format="2">
  <advance width="226"/>
  <unicode hex="007B"/>
  <note>
GF Latin Plus glyph
</note>
  <outline>
    <contour>
      <point x="215" y="-150" type="curve"/>
      <point x="215" y="-70" type="line"/>
      <point x="174" y="-70"/>
      <point x="164" y="-46"/>
      <point x="164" y="9" type="curve" smooth="yes"/>
      <point x="164" y="168" type="line" smooth="yes"/>
      <point x="164" y="206"/>
      <point x="137" y="230"/>
      <point x="95" y="238" type="curve"/>
      <point x="137" y="242"/>
      <point x="165" y="262"/>
      <point x="165" y="310" type="curve" smooth="yes"/>
      <point x="165" y="426" type="line" smooth="yes"/>
      <point x="165" y="498"/>
      <point x="176" y="516"/>
      <point x="215" y="516" type="curve"/>
      <point x="215" y="601" type="line"/>
      <point x="104" y="601"/>
      <point x="59" y="549"/>
      <point x="59" y="468" type="curve" smooth="yes"/>
      <point x="59" y="328" type="line" smooth="yes"/>
      <point x="59" y="297"/>
      <point x="34" y="289"/>
      <point x="10" y="287" type="curve"/>
      <point x="10" y="189" type="line"/>
      <point x="39" y="191"/>
      <point x="58" y="174"/>
      <point x="58" y="147" type="curve" smooth="yes"/>
      <point x="58" y="-27" type="line" smooth="yes"/>
      <point x="58" y="-106"/>
      <point x="95" y="-150"/>
    </contour>
  </outline>
</glyph>
<glyph name="bar" format="2">
  <advance width="179"/>
  <unicode hex="007C"/>
  <note>
GF Latin Plus glyph
</note>
  <outline>
    <contour>
      <point x="47" y="-51" type="line"/>
      <point x="132" y="-51" type="line"/>
      <point x="132" y="550" type="line"/>
      <point x="47" y="550" type="line"/>
    </contour>
  </outline>
</glyph>
<glyph name="braceright" format="2">
  <advance width="226"/>
  <unicode hex="007D"/>
  <note>
GF Latin Plus glyph
</note>
  <outline>
    <contour>
      <point x="10" y="-150" type="line"/>
      <point x="131" y="-150"/>
      <point x="167" y="-106"/>
      <point x="167" y="-27" type="curve" smooth="yes"/>
      <point x="167" y="147" type="line" smooth="yes"/>
      <point x="167" y="174"/>
      <point x="187" y="191"/>
      <point x="215" y="189" type="curve"/>
      <point x="215" y="287" type="line"/>
      <point x="192" y="289"/>
      <point x="167" y="297"/>
      <point x="167" y="328" type="curve" smooth="yes"/>
      <point x="167" y="468" type="line" smooth="yes"/>
      <point x="167" y="549"/>
      <point x="122" y="601"/>
      <point x="10" y="601" type="curve"/>
      <point x="10" y="516" type="line"/>
      <point x="49" y="516"/>
      <point x="61" y="498"/>
      <point x="61" y="426" type="curve" smooth="yes"/>
      <point x="61" y="310" type="line" smooth="yes"/>
      <point x="61" y="262"/>
      <point x="89" y="242"/>
      <point x="131" y="238" type="curve"/>
      <point x="89" y="230"/>
      <point x="61" y="206"/>
      <point x="61" y="168" type="curve" smooth="yes"/>
      <point x="61" y="9" type="line" smooth="yes"/>
      <point x="61" y="-46"/>
      <point x="52" y="-70"/>
      <point x="10" y="-70" type="curve"/>
    </contour>
  </outline>
</glyph>
<glyph name="asciitilde" format="2">
  <advance width="301"/>
  <unicode hex="007E"/>
  <note>
GF Latin Plus glyph
</note>
  <outline>
    <contour>
      <point x="195" y="381" type="curve" smooth="yes"/>
      <point x="230" y="381"/>
      <point x="256" y="407"/>
      <point x="274" y="430" type="curve"/>
      <point x="259" y="470" type="line"/>
      <point x="243" y="455"/>
      <point x="220" y="439"/>
      <point x="197" y="439" type="curve" smooth="yes"/>
      <point x="175" y="439"/>
      <point x="143" y="471"/>
      <point x="112" y="471" type="curve" smooth="yes"/>
      <point x="75" y="471"/>
      <point x="47" y="446"/>
      <point x="27" y="422" type="curve"/>
      <point x="42" y="385" type="line"/>
      <point x="65" y="403"/>
      <point x="83" y="413"/>
      <point x="105" y="413" type="curve" smooth="yes"/>
      <point x="126" y="413"/>
      <point x="164" y="381"/>
    </contour>
  </outline>
</glyph>
<glyph name="cent" format="2">
  <advance width="347"/>
  <unicode hex="00A2"/>
  <note>
GF Latin Plus glyph
</note>
  <outline>
    <contour>
      <point x="159" y="-65" type="line"/>
      <point x="218" y="-65" type="line"/>
      <point x="218" y="-3" type="line"/>
      <point x="256" y="-3"/>
      <point x="289" y="4"/>
      <point x="324" y="21" type="curve"/>
      <point x="324" y="84" type="line"/>
      <point x="311" y="81"/>
      <point x="269" y="75"/>
      <point x="207" y="75" type="curve" smooth="yes"/>
      <point x="150" y="75"/>
      <point x="127" y="95"/>
      <point x="127" y="188" type="curve" smooth="yes"/>
      <point x="127" y="287"/>
      <point x="150" y="303"/>
      <point x="205" y="303" type="curve" smooth="yes"/>
      <point x="266" y="303"/>
      <point x="309" y="298"/>
      <point x="320" y="296" type="curve"/>
      <point x="320" y="359" type="line"/>
      <point x="286" y="371"/>
      <point x="251" y="379"/>
      <point x="221" y="381" type="curve"/>
      <point x="221" y="449" type="line"/>
      <point x="161" y="449" type="line"/>
      <point x="161" y="382" type="line"/>
      <point x="79" y="382"/>
      <point x="21" y="343"/>
      <point x="21" y="190" type="curve" smooth="yes"/>
      <point x="21" y="37"/>
      <point x="82" y="-2"/>
      <point x="159" y="-3" type="curve"/>
    </contour>
  </outline>
</glyph>
<glyph name="sterling" format="2">
  <advance width="435"/>
  <unicode hex="00A3"/>
  <note>
GF Latin Plus glyph
</note>
  <outline>
    <contour>
      <point x="41" y="0" type="line"/>
      <point x="399" y="0" type="line"/>
      <point x="399" y="95" type="line"/>
      <point x="213" y="95" type="line"/>
      <point x="213" y="225" type="line"/>
      <point x="343" y="232" type="line"/>
      <point x="343" y="290" type="line"/>
      <point x="213" y="300" type="line"/>
      <point x="213" y="365" type="line" smooth="yes"/>
      <point x="213" y="423"/>
      <point x="235" y="437"/>
      <point x="284" y="437" type="curve" smooth="yes"/>
      <point x="396" y="437" type="line"/>
      <point x="396" y="522" type="line"/>
      <point x="370" y="526"/>
      <point x="327" y="531"/>
      <point x="279" y="531" type="curve" smooth="yes"/>
      <point x="161" y="531"/>
      <point x="107" y="484"/>
      <point x="107" y="354" type="curve" smooth="yes"/>
      <point x="107" y="300" type="line"/>
      <point x="41" y="285" type="line"/>
      <point x="41" y="232" type="line"/>
      <point x="107" y="225" type="line"/>
      <point x="107" y="95" type="line"/>
      <point x="41" y="80" type="line"/>
    </contour>
  </outline>
</glyph>
<glyph name="currency" format="2">
  <advance width="435"/>
  <unicode hex="00A4"/>
  <note>
GF Latin Plus glyph
</note>
  <outline>
    <contour>
      <point x="217" y="127" type="curve" smooth="yes"/>
      <point x="286" y="127"/>
      <point x="343" y="185"/>
      <point x="343" y="254" type="curve" smooth="yes"/>
      <point x="343" y="323"/>
      <point x="286" y="380"/>
      <point x="217" y="380" type="curve" smooth="yes"/>
      <point x="147" y="380"/>
      <point x="91" y="323"/>
      <point x="91" y="254" type="curve" smooth="yes"/>
      <point x="91" y="185"/>
      <point x="147" y="127"/>
    </contour>
    <contour>
      <point x="89" y="83" type="line"/>
      <point x="167" y="160" type="line"/>
      <point x="123" y="204" type="line"/>
      <point x="46" y="127" type="line"/>
    </contour>
    <contour>
      <point x="120" y="307" type="line"/>
      <point x="164" y="350" type="line"/>
      <point x="89" y="424" type="line"/>
      <point x="46" y="381" type="line"/>
    </contour>
    <contour>
      <point x="344" y="83" type="line"/>
      <point x="387" y="127" type="line"/>
      <point x="312" y="202" type="line"/>
      <point x="268" y="159" type="line"/>
    </contour>
    <contour>
      <point x="217" y="181" type="curve" smooth="yes"/>
      <point x="177" y="181"/>
      <point x="145" y="214"/>
      <point x="145" y="254" type="curve" smooth="yes"/>
      <point x="145" y="294"/>
      <point x="177" y="326"/>
      <point x="217" y="326" type="curve" smooth="yes"/>
      <point x="257" y="326"/>
      <point x="289" y="294"/>
      <point x="289" y="254" type="curve" smooth="yes"/>
      <point x="289" y="214"/>
      <point x="257" y="181"/>
    </contour>
    <contour>
      <point x="312" y="305" type="line"/>
      <point x="387" y="381" type="line"/>
      <point x="344" y="424" type="line"/>
      <point x="268" y="349" type="line"/>
    </contour>
  </outline>
</glyph>
<glyph name="yen" format="2">
  <advance width="435"/>
  <unicode hex="00A5"/>
  <note>
GF Latin Plus glyph
</note>
  <outline>
    <component base="Y" xOffset="-14"/>
    <contour>
      <point x="55" y="186" type="line"/>
      <point x="378" y="186" type="line"/>
      <point x="378" y="239" type="line"/>
      <point x="55" y="239" type="line"/>
    </contour>
    <contour>
      <point x="55" y="87" type="line"/>
      <point x="378" y="87" type="line"/>
      <point x="378" y="140" type="line"/>
      <point x="55" y="140" type="line"/>
    </contour>
  </outline>
</glyph>
<glyph name="brokenbar" format="2">
  <advance width="179"/>
  <unicode hex="00A6"/>
  <note>
GF Latin Plus glyph
</note>
  <outline>
    <contour>
      <point x="47" y="306" type="line"/>
      <point x="132" y="306" type="line"/>
      <point x="132" y="550" type="line"/>
      <point x="47" y="550" type="line"/>
    </contour>
    <contour>
      <point x="47" y="-51" type="line"/>
      <point x="132" y="-51" type="line"/>
      <point x="132" y="182" type="line"/>
      <point x="47" y="182" type="line"/>
    </contour>
  </outline>
</glyph>
<glyph name="section" format="2">
  <advance width="385"/>
  <unicode hex="00A7"/>
  <note>
GF Latin Plus glyph
</note>
  <outline>
    <contour>
      <point x="224" y="-4" type="curve" smooth="yes"/>
      <point x="302" y="-4"/>
      <point x="353" y="20"/>
      <point x="353" y="104" type="curve" smooth="yes"/>
      <point x="353" y="141" type="line" smooth="yes"/>
      <point x="353" y="177"/>
      <point x="341" y="206"/>
      <point x="308" y="215" type="curve"/>
      <point x="343" y="227"/>
      <point x="357" y="254"/>
      <point x="357" y="286" type="curve" smooth="yes"/>
      <point x="357" y="314" type="line" smooth="yes"/>
      <point x="357" y="376"/>
      <point x="322" y="399"/>
      <point x="240" y="399" type="curve" smooth="yes"/>
      <point x="171" y="399" type="line" smooth="yes"/>
      <point x="144" y="399"/>
      <point x="136" y="409"/>
      <point x="136" y="426" type="curve" smooth="yes"/>
      <point x="136" y="443" type="line" smooth="yes"/>
      <point x="136" y="467"/>
      <point x="149" y="475"/>
      <point x="179" y="475" type="curve" smooth="yes"/>
      <point x="328" y="475" type="line"/>
      <point x="328" y="548" type="line"/>
      <point x="291" y="557"/>
      <point x="207" y="560"/>
      <point x="163" y="560" type="curve" smooth="yes"/>
      <point x="74" y="560"/>
      <point x="35" y="520"/>
      <point x="35" y="459" type="curve" smooth="yes"/>
      <point x="35" y="421" type="line" smooth="yes"/>
      <point x="35" y="384"/>
      <point x="45" y="351"/>
      <point x="80" y="336" type="curve"/>
      <point x="44" y="324"/>
      <point x="29" y="307"/>
      <point x="29" y="265" type="curve" smooth="yes"/>
      <point x="29" y="236" type="line" smooth="yes"/>
      <point x="29" y="172"/>
      <point x="71" y="153"/>
      <point x="144" y="153" type="curve" smooth="yes"/>
      <point x="214" y="153" type="line" smooth="yes"/>
      <point x="244" y="153"/>
      <point x="249" y="147"/>
      <point x="249" y="128" type="curve" smooth="yes"/>
      <point x="249" y="108" type="line" smooth="yes"/>
      <point x="249" y="90"/>
      <point x="241" y="80"/>
      <point x="202" y="80" type="curve" smooth="yes"/>
      <point x="56" y="80" type="line"/>
      <point x="56" y="5" type="line"/>
      <point x="101" y="-2"/>
      <point x="174" y="-4"/>
    </contour>
    <contour>
      <point x="170" y="232" type="line" smooth="yes"/>
      <point x="140" y="232"/>
      <point x="129" y="243"/>
      <point x="129" y="262" type="curve" smooth="yes"/>
      <point x="129" y="288" type="line" smooth="yes"/>
      <point x="129" y="311"/>
      <point x="140" y="319"/>
      <point x="170" y="319" type="curve" smooth="yes"/>
      <point x="214" y="319" type="line" smooth="yes"/>
      <point x="246" y="319"/>
      <point x="257" y="312"/>
      <point x="257" y="290" type="curve" smooth="yes"/>
      <point x="257" y="263" type="line" smooth="yes"/>
      <point x="257" y="235"/>
      <point x="248" y="232"/>
      <point x="214" y="232" type="curve" smooth="yes"/>
    </contour>
  </outline>
</glyph>
<glyph name="dieresis" format="2">
  <advance width="285"/>
  <unicode hex="00A8"/>
  <note>
GF Latin Plus glyph
</note>
  <outline>
    <contour>
      <point x="188" y="455" type="curve" smooth="yes"/>
      <point x="237" y="455" type="line" smooth="yes"/>
      <point x="246" y="455"/>
      <point x="251" y="460"/>
      <point x="251" y="469" type="curve" smooth="yes"/>
      <point x="251" y="539" type="line" smooth="yes"/>
      <point x="251" y="548"/>
      <point x="246" y="554"/>
      <point x="237" y="554" type="curve" smooth="yes"/>
      <point x="188" y="554" type="line" smooth="yes"/>
      <point x="178" y="554"/>
      <point x="173" y="548"/>
      <point x="173" y="539" type="curve" smooth="yes"/>
      <point x="173" y="469" type="line" smooth="yes"/>
      <point x="173" y="461"/>
      <point x="179" y="455"/>
    </contour>
    <contour>
      <point x="48" y="455" type="curve" smooth="yes"/>
      <point x="97" y="455" type="line" smooth="yes"/>
      <point x="106" y="455"/>
      <point x="111" y="460"/>
      <point x="111" y="469" type="curve" smooth="yes"/>
      <point x="111" y="539" type="line" smooth="yes"/>
      <point x="111" y="548"/>
      <point x="106" y="554"/>
      <point x="97" y="554" type="curve" smooth="yes"/>
      <point x="48" y="554" type="line" smooth="yes"/>
      <point x="38" y="554"/>
      <point x="33" y="548"/>
      <point x="33" y="539" type="curve" smooth="yes"/>
      <point x="33" y="469" type="line" smooth="yes"/>
      <point x="33" y="461"/>
      <point x="39" y="455"/>
    </contour>
  </outline>
</glyph>
<glyph name="copyright" format="2">
  <advance width="579"/>
  <unicode hex="00A9"/>
  <note>
GF Latin Plus glyph
</note>
  <outline>
    <contour>
      <point x="221" y="0" type="curve" smooth="yes"/>
      <point x="374" y="0" type="line" smooth="yes"/>
      <point x="482" y="0"/>
      <point x="549" y="90"/>
      <point x="549" y="262" type="curve" smooth="yes"/>
      <point x="549" y="398"/>
      <point x="518" y="522"/>
      <point x="374" y="522" type="curve" smooth="yes"/>
      <point x="221" y="522" type="line" smooth="yes"/>
      <point x="64" y="522"/>
      <point x="30" y="396"/>
      <point x="30" y="262" type="curve" smooth="yes"/>
      <point x="30" y="121"/>
      <point x="85" y="0"/>
    </contour>
    <contour>
      <point x="270" y="105" type="curve" smooth="yes"/>
      <point x="316" y="105"/>
      <point x="359" y="106"/>
      <point x="397" y="123" type="curve"/>
      <point x="397" y="173" type="line"/>
      <point x="369" y="167"/>
      <point x="332" y="162"/>
      <point x="290" y="162" type="curve" smooth="yes"/>
      <point x="241" y="162"/>
      <point x="220" y="190"/>
      <point x="220" y="258" type="curve" smooth="yes"/>
      <point x="220" y="336"/>
      <point x="241" y="359"/>
      <point x="292" y="359" type="curve" smooth="yes"/>
      <point x="313" y="359"/>
      <point x="352" y="356"/>
      <point x="393" y="350" type="curve"/>
      <point x="393" y="400" type="line"/>
      <point x="354" y="412"/>
      <point x="298" y="416"/>
      <point x="271" y="416" type="curve" smooth="yes"/>
      <point x="202" y="416"/>
      <point x="158" y="375"/>
      <point x="158" y="260" type="curve" smooth="yes"/>
      <point x="158" y="134"/>
      <point x="211" y="105"/>
    </contour>
    <contour>
      <point x="221" y="57" type="line" smooth="yes"/>
      <point x="131" y="57"/>
      <point x="92" y="149"/>
      <point x="92" y="262" type="curve" smooth="yes"/>
      <point x="93" y="427"/>
      <point x="153" y="465"/>
      <point x="221" y="465" type="curve" smooth="yes"/>
      <point x="374" y="465" type="line" smooth="yes"/>
      <point x="472" y="465"/>
      <point x="487" y="362"/>
      <point x="487" y="262" type="curve" smooth="yes"/>
      <point x="487" y="111"/>
      <point x="438" y="57"/>
      <point x="369" y="57" type="curve" smooth="yes"/>
    </contour>
  </outline>
</glyph>
<glyph name="ordfeminine" format="2">
  <advance width="293"/>
  <unicode hex="00AA"/>
  <note>
GF Latin Plus glyph
</note>
  <outline>
    <component base="a.superior" yOffset="57"/>
    <contour>
      <point x="18" y="181" type="line"/>
      <point x="272" y="181" type="line"/>
      <point x="272" y="231" type="line"/>
      <point x="18" y="231" type="line"/>
    </contour>
  </outline>
</glyph>
<glyph name="registered" format="2">
  <advance width="579"/>
  <unicode hex="00AE"/>
  <note>
GF Latin Plus glyph
</note>
  <outline>
    <contour>
      <point x="221" y="0" type="curve" smooth="yes"/>
      <point x="374" y="0" type="line" smooth="yes"/>
      <point x="482" y="0"/>
      <point x="549" y="90"/>
      <point x="549" y="262" type="curve" smooth="yes"/>
      <point x="549" y="398"/>
      <point x="518" y="522"/>
      <point x="374" y="522" type="curve" smooth="yes"/>
      <point x="221" y="522" type="line" smooth="yes"/>
      <point x="64" y="522"/>
      <point x="30" y="396"/>
      <point x="30" y="262" type="curve" smooth="yes"/>
      <point x="30" y="121"/>
      <point x="85" y="0"/>
    </contour>
    <contour>
      <point x="221" y="57" type="line" smooth="yes"/>
      <point x="131" y="57"/>
      <point x="92" y="149"/>
      <point x="92" y="262" type="curve" smooth="yes"/>
      <point x="93" y="427"/>
      <point x="153" y="465"/>
      <point x="221" y="465" type="curve" smooth="yes"/>
      <point x="374" y="465" type="line" smooth="yes"/>
      <point x="472" y="465"/>
      <point x="487" y="362"/>
      <point x="487" y="262" type="curve" smooth="yes"/>
      <point x="487" y="111"/>
      <point x="438" y="57"/>
      <point x="369" y="57" type="curve" smooth="yes"/>
    </contour>
    <contour>
      <point x="178" y="109" type="line"/>
      <point x="240" y="109" type="line"/>
      <point x="240" y="231" type="line"/>
      <point x="290" y="230" type="line"/>
      <point x="351" y="109" type="line"/>
      <point x="414" y="109" type="line"/>
      <point x="349" y="228" type="line"/>
      <point x="379" y="237"/>
      <point x="403" y="255"/>
      <point x="403" y="318" type="curve" smooth="yes"/>
      <point x="403" y="396"/>
      <point x="357" y="414"/>
      <point x="310" y="414" type="curve" smooth="yes"/>
      <point x="178" y="414" type="line"/>
    </contour>
    <contour>
      <point x="240" y="277" type="line"/>
      <point x="240" y="357" type="line"/>
      <point x="309" y="357" type="line" smooth="yes"/>
      <point x="328" y="357"/>
      <point x="341" y="348"/>
      <point x="341" y="317" type="curve" smooth="yes"/>
      <point x="341" y="282"/>
      <point x="329" y="277"/>
      <point x="309" y="277" type="curve" smooth="yes"/>
    </contour>
  </outline>
</glyph>
<glyph name="macron" format="2">
  <advance width="256"/>
  <unicode hex="00AF"/>
  <note>
GF Latin Plus glyph
</note>
  <outline>
    <contour>
      <point x="27" y="462" type="line"/>
      <point x="228" y="462" type="line"/>
      <point x="228" y="524" type="line"/>
      <point x="27" y="524" type="line"/>
    </contour>
  </outline>
</glyph>
<glyph name="degree" format="2">
  <advance width="227"/>
  <unicode hex="00B0"/>
  <note>
GF Latin Plus glyph
</note>
  <outline>
    <contour>
      <point x="114" y="343" type="curve" smooth="yes"/>
      <point x="174" y="343"/>
      <point x="216" y="385"/>
      <point x="216" y="446" type="curve" smooth="yes"/>
      <point x="216" y="507"/>
      <point x="174" y="549"/>
      <point x="114" y="549" type="curve" smooth="yes"/>
      <point x="55" y="549"/>
      <point x="11" y="507"/>
      <point x="11" y="446" type="curve" smooth="yes"/>
      <point x="11" y="385"/>
      <point x="55" y="343"/>
    </contour>
    <contour>
      <point x="114" y="391" type="curve" smooth="yes"/>
      <point x="82" y="391"/>
      <point x="59" y="413"/>
      <point x="59" y="446" type="curve" smooth="yes"/>
      <point x="59" y="479"/>
      <point x="81" y="501"/>
      <point x="114" y="501" type="curve" smooth="yes"/>
      <point x="146" y="501"/>
      <point x="167" y="479"/>
      <point x="167" y="446" type="curve" smooth="yes"/>
      <point x="167" y="413"/>
      <point x="145" y="391"/>
    </contour>
  </outline>
</glyph>
<glyph name="twosuperior" format="2">
  <advance width="322"/>
  <unicode hex="00B2"/>
  <note>
GF Latin Plus glyph
</note>
  <outline>
    <contour>
      <point x="30" y="200" type="line"/>
      <point x="296" y="200" type="line"/>
      <point x="296" y="281" type="line"/>
      <point x="153" y="281" type="line"/>
      <point x="221" y="350" type="line" smooth="yes"/>
      <point x="267" y="400"/>
      <point x="285" y="430"/>
      <point x="285" y="481" type="curve" smooth="yes"/>
      <point x="285" y="549"/>
      <point x="255" y="588"/>
      <point x="163" y="588" type="curve" smooth="yes"/>
      <point x="110" y="588"/>
      <point x="71" y="580"/>
      <point x="38" y="574" type="curve"/>
      <point x="38" y="503" type="line"/>
      <point x="145" y="503" type="line" smooth="yes"/>
      <point x="178" y="503"/>
      <point x="191" y="490"/>
      <point x="191" y="468" type="curve" smooth="yes"/>
      <point x="191" y="444"/>
      <point x="176" y="419"/>
      <point x="149" y="392" type="curve" smooth="yes"/>
      <point x="30" y="267" type="line"/>
    </contour>
  </outline>
</glyph>
<glyph name="threesuperior" format="2">
  <advance width="322"/>
  <unicode hex="00B3"/>
  <note>
GF Latin Plus glyph
</note>
  <outline>
    <contour>
      <point x="170" y="197" type="curve" smooth="yes"/>
      <point x="244" y="197"/>
      <point x="289" y="233"/>
      <point x="289" y="298" type="curve" smooth="yes"/>
      <point x="289" y="315" type="line" smooth="yes"/>
      <point x="289" y="356"/>
      <point x="269" y="384"/>
      <point x="238" y="393" type="curve"/>
      <point x="268" y="403"/>
      <point x="284" y="427"/>
      <point x="284" y="464" type="curve" smooth="yes"/>
      <point x="284" y="492" type="line" smooth="yes"/>
      <point x="284" y="556"/>
      <point x="241" y="588"/>
      <point x="173" y="588" type="curve" smooth="yes"/>
      <point x="121" y="589"/>
      <point x="76" y="584"/>
      <point x="34" y="575" type="curve"/>
      <point x="34" y="503" type="line"/>
      <point x="137" y="503" type="line" smooth="yes"/>
      <point x="178" y="503"/>
      <point x="193" y="493"/>
      <point x="193" y="471" type="curve" smooth="yes"/>
      <point x="193" y="460" type="line" smooth="yes"/>
      <point x="193" y="441"/>
      <point x="176" y="435"/>
      <point x="147" y="433" type="curve" smooth="yes"/>
      <point x="61" y="428" type="line"/>
      <point x="61" y="359" type="line"/>
      <point x="151" y="355" type="line" smooth="yes"/>
      <point x="178" y="353"/>
      <point x="197" y="345"/>
      <point x="197" y="322" type="curve" smooth="yes"/>
      <point x="197" y="311" type="line" smooth="yes"/>
      <point x="197" y="289"/>
      <point x="180" y="281"/>
      <point x="140" y="281" type="curve" smooth="yes"/>
      <point x="27" y="281" type="line"/>
      <point x="27" y="209" type="line"/>
      <point x="69" y="201"/>
      <point x="116" y="197"/>
    </contour>
  </outline>
</glyph>
<glyph name="acute" format="2">
  <advance width="166"/>
  <unicode hex="00B4"/>
  <note>
GF Latin Plus glyph
</note>
  <outline>
    <contour>
      <point x="10" y="450" type="line"/>
      <point x="73" y="450" type="line"/>
      <point x="155" y="550" type="line"/>
      <point x="69" y="550" type="line"/>
    </contour>
  </outline>
</glyph>
<glyph name="paragraph" format="2">
  <advance width="409"/>
  <unicode hex="00B6"/>
  <note>
GF Latin Plus glyph
</note>
  <outline>
    <contour>
      <point x="177" y="-192" type="line"/>
      <point x="246" y="-192" type="line"/>
      <point x="246" y="459" type="line"/>
      <point x="297" y="459" type="line"/>
      <point x="297" y="0" type="line"/>
      <point x="366" y="0" type="line"/>
      <point x="366" y="457" type="line"/>
      <point x="409" y="457" type="line"/>
      <point x="409" y="528" type="line"/>
      <point x="133" y="528" type="line" smooth="yes"/>
      <point x="68" y="528"/>
      <point x="19" y="496"/>
      <point x="19" y="428" type="curve" smooth="yes"/>
      <point x="19" y="322" type="line" smooth="yes"/>
      <point x="19" y="266"/>
      <point x="52" y="218"/>
      <point x="125" y="218" type="curve"/>
      <point x="152" y="217"/>
      <point x="170" y="224"/>
      <point x="177" y="229" type="curve"/>
    </contour>
    <contour>
      <point x="138" y="287" type="line" smooth="yes"/>
      <point x="118" y="287"/>
      <point x="89" y="290"/>
      <point x="89" y="333" type="curve" smooth="yes"/>
      <point x="89" y="410" type="line" smooth="yes"/>
      <point x="89" y="445"/>
      <point x="100" y="459"/>
      <point x="138" y="459" type="curve" smooth="yes"/>
      <point x="177" y="459" type="line"/>
      <point x="177" y="287" type="line"/>
    </contour>
  </outline>
</glyph>
<glyph name="periodcentered" format="2">
  <advance width="184"/>
  <unicode hex="00B7"/>
  <note>
GF Latin Plus glyph
</note>
  <outline>
    <contour>
      <point x="61" y="208" type="curve" smooth="yes"/>
      <point x="123" y="208" type="line" smooth="yes"/>
      <point x="131" y="208"/>
      <point x="138" y="211"/>
      <point x="138" y="222" type="curve" smooth="yes"/>
      <point x="138" y="286" type="line" smooth="yes"/>
      <point x="138" y="295"/>
      <point x="134" y="301"/>
      <point x="123" y="301" type="curve" smooth="yes"/>
      <point x="61" y="301" type="line" smooth="yes"/>
      <point x="52" y="301"/>
      <point x="47" y="295"/>
      <point x="47" y="286" type="curve" smooth="yes"/>
      <point x="47" y="222" type="line" smooth="yes"/>
      <point x="47" y="213"/>
      <point x="53" y="208"/>
    </contour>
  </outline>
</glyph>
<glyph name="cedilla" format="2">
  <advance width="175"/>
  <unicode hex="00B8"/>
  <note>
GF Latin Plus glyph
</note>
  <outline>
    <contour>
      <point x="27" y="-141" type="line"/>
      <point x="62" y="-141" type="line" smooth="yes"/>
      <point x="113" y="-141"/>
      <point x="138" y="-119"/>
      <point x="138" y="-83" type="curve" smooth="yes"/>
      <point x="138" y="-50"/>
      <point x="112" y="-35"/>
      <point x="79" y="-35" type="curve"/>
      <point x="37" y="-45" type="line"/>
      <point x="63" y="-49"/>
      <point x="70" y="-59"/>
      <point x="70" y="-71" type="curve" smooth="yes"/>
      <point x="70" y="-85"/>
      <point x="60" y="-93"/>
      <point x="40" y="-96" type="curve" smooth="yes"/>
      <point x="27" y="-97" type="line"/>
    </contour>
    <contour>
      <point x="37" y="-45" type="line"/>
      <point x="85" y="-45" type="line"/>
      <point x="121" y="12" type="line"/>
      <point x="73" y="12" type="line"/>
    </contour>
  </outline>
</glyph>
<glyph name="onesuperior" format="2">
  <advance width="322"/>
  <unicode hex="00B9"/>
  <note>
GF Latin Plus glyph
</note>
  <outline>
    <contour>
      <point x="121" y="200" type="line"/>
      <point x="214" y="200" type="line"/>
      <point x="214" y="588" type="line"/>
      <point x="131" y="588" type="line"/>
      <point x="45" y="559" type="line"/>
      <point x="45" y="493" type="line"/>
      <point x="121" y="502" type="line"/>
    </contour>
    <contour>
      <point x="39" y="200" type="line"/>
      <point x="295" y="200" type="line"/>
      <point x="295" y="280" type="line"/>
      <point x="39" y="280" type="line"/>
    </contour>
  </outline>
</glyph>
<glyph name="ordmasculine" format="2">
  <advance width="304"/>
  <unicode hex="00BA"/>
  <note>
GF Latin Plus glyph
</note>
  <outline>
    <component base="o.superior" yOffset="57"/>
    <contour>
      <point x="24" y="181" type="line"/>
      <point x="280" y="181" type="line"/>
      <point x="280" y="231" type="line"/>
      <point x="24" y="231" type="line"/>
    </contour>
  </outline>
</glyph>
<glyph name="AE" format="2">
  <advance width="700"/>
  <unicode hex="00C6"/>
  <note>
GF Latin Plus glyph
</note>
  <anchor x="380" y="578" name="top"/>
  <outline>
    <contour>
      <point x="463" y="-3" type="curve" smooth="yes"/>
      <point x="543" y="-3"/>
      <point x="608" y="1"/>
      <point x="668" y="7" type="curve"/>
      <point x="668" y="95" type="line"/>
      <point x="484" y="95" type="line" smooth="yes"/>
      <point x="455" y="95"/>
      <point x="431" y="101"/>
      <point x="431" y="142" type="curve" smooth="yes"/>
      <point x="431" y="215" type="line"/>
      <point x="634" y="221" type="line"/>
      <point x="634" y="305" type="line"/>
      <point x="431" y="311" type="line"/>
      <point x="431" y="391" type="line" smooth="yes"/>
      <point x="431" y="417"/>
      <point x="441" y="430"/>
      <point x="473" y="430" type="curve" smooth="yes"/>
      <point x="668" y="430" type="line"/>
      <point x="668" y="519" type="line"/>
      <point x="616" y="523"/>
      <point x="537" y="528"/>
      <point x="454" y="528" type="curve" smooth="yes"/>
      <point x="343" y="528"/>
      <point x="280" y="494"/>
      <point x="226" y="391" type="curve" smooth="yes"/>
      <point x="11" y="0" type="line"/>
      <point x="115" y="0" type="line"/>
      <point x="181" y="110" type="line"/>
      <point x="335" y="110" type="line"/>
      <point x="336" y="81" type="line" smooth="yes"/>
      <point x="342" y="15"/>
      <point x="385" y="-4"/>
    </contour>
    <contour>
      <point x="227" y="200" type="line"/>
      <point x="335" y="401" type="line"/>
      <point x="335" y="200" type="line"/>
    </contour>
  </outline>
</glyph>
<glyph name="Eth" format="2">
  <advance width="486"/>
  <unicode hex="00D0"/>
  <note>
GF Latin Plus glyph
</note>
  <outline>
    <component base="D"/>
    <contour>
      <point x="8" y="231" type="line"/>
      <point x="236" y="231" type="line"/>
      <point x="236" y="300" type="line"/>
      <point x="8" y="300" type="line"/>
    </contour>
  </outline>
</glyph>
<glyph name="multiply" format="2">
  <advance width="435"/>
  <unicode hex="00D7"/>
  <note>
GF Latin Plus glyph
</note>
  <outline>
    <contour>
      <point x="300" y="110" type="line"/>
      <point x="73" y="337" type="line"/>
      <point x="134" y="397" type="line"/>
      <point x="360" y="171" type="line"/>
    </contour>
    <contour>
      <point x="134" y="110" type="line"/>
      <point x="360" y="337" type="line"/>
      <point x="300" y="397" type="line"/>
      <point x="73" y="171" type="line"/>
    </contour>
  </outline>
</glyph>
<glyph name="Oslash" format="2">
  <advance width="499"/>
  <unicode hex="00D8"/>
  <note>
GF Latin Plus glyph
</note>
  <outline>
    <component base="O"/>
    <contour>
      <point x="39" y="0" type="line"/>
      <point x="109" y="0" type="line"/>
      <point x="460" y="528" type="line"/>
      <point x="390" y="528" type="line"/>
    </contour>
  </outline>
</glyph>
<glyph name="Thorn" format="2">
  <advance width="418"/>
  <unicode hex="00DE"/>
  <note>
GF Latin Plus glyph
</note>
  <outline>
    <contour>
      <point x="45" y="0" type="line"/>
      <point x="151" y="0" type="line"/>
      <point x="151" y="105" type="line"/>
      <point x="170" y="102"/>
      <point x="220" y="93"/>
      <point x="247" y="93" type="curve" smooth="yes"/>
      <point x="312" y="93"/>
      <point x="395" y="116"/>
      <point x="395" y="270" type="curve" smooth="yes"/>
      <point x="395" y="422"/>
      <point x="312" y="442"/>
      <point x="243" y="442" type="curve" smooth="yes"/>
      <point x="151" y="442" type="line"/>
      <point x="151" y="528" type="line"/>
      <point x="45" y="528" type="line"/>
    </contour>
    <contour>
      <point x="151" y="188" type="line"/>
      <point x="151" y="347" type="line"/>
      <point x="233" y="347" type="line" smooth="yes"/>
      <point x="267" y="347"/>
      <point x="289" y="326"/>
      <point x="289" y="269" type="curve" smooth="yes"/>
      <point x="289" y="211"/>
      <point x="268" y="188"/>
      <point x="231" y="188" type="curve" smooth="yes"/>
    </contour>
  </outline>
</glyph>
<glyph name="germandbls" format="2">
  <advance width="432"/>
  <unicode hex="00DF"/>
  <note>
GF Latin Plus glyph
</note>
  <outline>
    <contour>
      <point x="288" y="-4" type="curve" smooth="yes"/>
      <point x="342" y="-4"/>
      <point x="419" y="20"/>
      <point x="419" y="104" type="curve" smooth="yes"/>
      <point x="419" y="124" type="line" smooth="yes"/>
      <point x="419" y="214"/>
      <point x="311" y="218"/>
      <point x="311" y="260" type="curve" smooth="yes"/>
      <point x="311" y="296"/>
      <point x="386" y="330"/>
      <point x="386" y="408" type="curve" smooth="yes"/>
      <point x="386" y="488"/>
      <point x="337" y="546"/>
      <point x="215" y="546" type="curve" smooth="yes"/>
      <point x="88" y="546"/>
      <point x="33" y="475"/>
      <point x="33" y="382" type="curve" smooth="yes"/>
      <point x="33" y="0" type="line"/>
      <point x="139" y="0" type="line"/>
      <point x="139" y="371" type="line" smooth="yes"/>
      <point x="139" y="433"/>
      <point x="161" y="461"/>
      <point x="215" y="461" type="curve" smooth="yes"/>
      <point x="260" y="461"/>
      <point x="285" y="445"/>
      <point x="285" y="402" type="curve" smooth="yes"/>
      <point x="285" y="347"/>
      <point x="210" y="311"/>
      <point x="210" y="240" type="curve" smooth="yes"/>
      <point x="210" y="157"/>
      <point x="318" y="156"/>
      <point x="318" y="115" type="curve" smooth="yes"/>
      <point x="318" y="106" type="line" smooth="yes"/>
      <point x="318" y="93"/>
      <point x="305" y="75"/>
      <point x="261" y="75" type="curve" smooth="yes"/>
      <point x="232" y="75"/>
      <point x="203" y="76"/>
      <point x="181" y="77" type="curve"/>
      <point x="181" y="6" type="line"/>
      <point x="203" y="0"/>
      <point x="245" y="-4"/>
    </contour>
  </outline>
</glyph>
<glyph name="ae" format="2">
  <advance width="608"/>
  <unicode hex="00E6"/>
  <note>
GF Latin Plus glyph
</note>
  <anchor x="305" y="464" name="top"/>
  <outline>
    <contour>
      <point x="127" y="-4" type="curve" smooth="yes"/>
      <point x="193" y="-4"/>
      <point x="248" y="27"/>
      <point x="278" y="59" type="curve"/>
      <point x="298" y="23"/>
      <point x="347" y="-4"/>
      <point x="407" y="-4" type="curve" smooth="yes"/>
      <point x="459" y="-4"/>
      <point x="514" y="0"/>
      <point x="561" y="13" type="curve"/>
      <point x="561" y="75" type="line"/>
      <point x="459" y="75" type="line" smooth="yes"/>
      <point x="393" y="75"/>
      <point x="354" y="87"/>
      <point x="353" y="157" type="curve"/>
      <point x="444" y="157" type="line" smooth="yes"/>
      <point x="527" y="157"/>
      <point x="573" y="180"/>
      <point x="573" y="253" type="curve" smooth="yes"/>
      <point x="573" y="360"/>
      <point x="528" y="389"/>
      <point x="424" y="389" type="curve" smooth="yes"/>
      <point x="368" y="389"/>
      <point x="330" y="372"/>
      <point x="306" y="343" type="curve"/>
      <point x="284" y="371"/>
      <point x="240" y="388"/>
      <point x="185" y="388" type="curve" smooth="yes"/>
      <point x="131" y="388"/>
      <point x="93" y="380"/>
      <point x="52" y="366" type="curve"/>
      <point x="52" y="305" type="line"/>
      <point x="174" y="305" type="line" smooth="yes"/>
      <point x="231" y="305"/>
      <point x="250" y="289"/>
      <point x="250" y="255" type="curve" smooth="yes"/>
      <point x="250" y="225" type="line"/>
      <point x="152" y="225" type="line" smooth="yes"/>
      <point x="61" y="225"/>
      <point x="26" y="181"/>
      <point x="26" y="125" type="curve" smooth="yes"/>
      <point x="26" y="94" type="line" smooth="yes"/>
      <point x="26" y="42"/>
      <point x="53" y="-4"/>
    </contour>
    <contour>
      <point x="177" y="69" type="curve" smooth="yes"/>
      <point x="153" y="69"/>
      <point x="131" y="77"/>
      <point x="131" y="111" type="curve" smooth="yes"/>
      <point x="131" y="126" type="line" smooth="yes"/>
      <point x="131" y="146"/>
      <point x="143" y="166"/>
      <point x="173" y="168" type="curve" smooth="yes"/>
      <point x="248" y="174" type="line"/>
      <point x="249" y="143"/>
      <point x="253" y="117"/>
      <point x="257" y="103" type="curve"/>
      <point x="235" y="83"/>
      <point x="206" y="69"/>
    </contour>
    <contour>
      <point x="353" y="223" type="line"/>
      <point x="354" y="289"/>
      <point x="365" y="309"/>
      <point x="416" y="309" type="curve" smooth="yes"/>
      <point x="458" y="309"/>
      <point x="479" y="297"/>
      <point x="479" y="255" type="curve" smooth="yes"/>
      <point x="479" y="234"/>
      <point x="467" y="223"/>
      <point x="441" y="223" type="curve" smooth="yes"/>
    </contour>
  </outline>
</glyph>
<glyph name="eth" format="2">
  <advance width="410"/>
  <unicode hex="00F0"/>
  <note>
GF Latin Plus glyph
</note>
  <outline>
    <contour>
      <point x="205" y="-3" type="curve" smooth="yes"/>
      <point x="334" y="-3"/>
      <point x="381" y="40"/>
      <point x="381" y="192" type="curve" smooth="yes"/>
      <point x="381" y="255"/>
      <point x="340" y="282"/>
      <point x="310" y="319" type="curve" smooth="yes"/>
      <point x="292" y="358"/>
      <point x="250" y="377"/>
      <point x="190" y="377" type="curve" smooth="yes"/>
      <point x="89" y="377"/>
      <point x="29" y="340"/>
      <point x="29" y="187" type="curve" smooth="yes"/>
      <point x="29" y="42"/>
      <point x="78" y="-3"/>
    </contour>
    <contour>
      <point x="205" y="80" type="curve" smooth="yes"/>
      <point x="155" y="80"/>
      <point x="135" y="91"/>
      <point x="135" y="187" type="curve" smooth="yes"/>
      <point x="135" y="283"/>
      <point x="155" y="294"/>
      <point x="205" y="294" type="curve" smooth="yes"/>
      <point x="254" y="294"/>
      <point x="275" y="283"/>
      <point x="275" y="187" type="curve" smooth="yes"/>
      <point x="275" y="91"/>
      <point x="254" y="80"/>
    </contour>
    <contour>
      <point x="381" y="192" type="line"/>
      <point x="381" y="455"/>
      <point x="302" y="541"/>
      <point x="91" y="546" type="curve"/>
      <point x="91" y="482" type="line"/>
      <point x="228" y="478"/>
      <point x="286" y="420"/>
      <point x="286" y="230" type="curve"/>
    </contour>
    <contour>
      <point x="111" y="396" type="line"/>
      <point x="376" y="497" type="line"/>
      <point x="362" y="532" type="line"/>
      <point x="98" y="430" type="line"/>
    </contour>
  </outline>
</glyph>
<glyph name="divide" format="2">
  <advance width="435"/>
  <unicode hex="00F7"/>
  <note>
GF Latin Plus glyph
</note>
  <outline>
    <component base="minus"/>
    <contour>
      <point x="186" y="355" type="curve" smooth="yes"/>
      <point x="247" y="355" type="line" smooth="yes"/>
      <point x="257" y="355"/>
      <point x="265" y="359"/>
      <point x="265" y="372" type="curve" smooth="yes"/>
      <point x="265" y="428" type="line" smooth="yes"/>
      <point x="265" y="439"/>
      <point x="260" y="446"/>
      <point x="247" y="446" type="curve" smooth="yes"/>
      <point x="186" y="446" type="line" smooth="yes"/>
      <point x="175" y="446"/>
      <point x="169" y="438"/>
      <point x="169" y="428" type="curve" smooth="yes"/>
      <point x="169" y="372" type="line" smooth="yes"/>
      <point x="169" y="362"/>
      <point x="176" y="355"/>
    </contour>
    <contour>
      <point x="186" y="62" type="curve" smooth="yes"/>
      <point x="247" y="62" type="line" smooth="yes"/>
      <point x="257" y="62"/>
      <point x="265" y="66"/>
      <point x="265" y="78" type="curve" smooth="yes"/>
      <point x="265" y="134" type="line" smooth="yes"/>
      <point x="265" y="146"/>
      <point x="260" y="152"/>
      <point x="247" y="152" type="curve" smooth="yes"/>
      <point x="186" y="152" type="line" smooth="yes"/>
      <point x="175" y="152"/>
      <point x="169" y="145"/>
      <point x="169" y="134" type="curve" smooth="yes"/>
      <point x="169" y="78" type="line" smooth="yes"/>
      <point x="169" y="68"/>
      <point x="176" y="62"/>
    </contour>
  </outline>
</glyph>
<glyph name="oslash" format="2">
  <advance width="410"/>
  <unicode hex="00F8"/>
  <note>
GF Latin Plus glyph
</note>
  <outline>
    <component base="o"/>
    <contour>
      <point x="20" y="0" type="line"/>
      <point x="69" y="0" type="line"/>
      <point x="390" y="383" type="line"/>
      <point x="341" y="383" type="line"/>
    </contour>
  </outline>
</glyph>
<glyph name="thorn" format="2">
  <advance width="417"/>
  <unicode hex="00FE"/>
  <note>
GF Latin Plus glyph
</note>
  <outline>
    <contour>
      <point x="40" y="-169" type="line"/>
      <point x="146" y="-169" type="line"/>
      <point x="146" y="19" type="line"/>
      <point x="177" y="3"/>
      <point x="216" y="-5"/>
      <point x="252" y="-5" type="curve" smooth="yes"/>
      <point x="351" y="-5"/>
      <point x="388" y="67"/>
      <point x="388" y="191" type="curve" smooth="yes"/>
      <point x="388" y="314"/>
      <point x="342" y="389"/>
      <point x="252" y="389" type="curve" smooth="yes"/>
      <point x="208" y="389"/>
      <point x="173" y="368"/>
      <point x="146" y="346" type="curve"/>
      <point x="146" y="545" type="line"/>
      <point x="40" y="545" type="line"/>
    </contour>
    <contour>
      <point x="218" y="81" type="curve" smooth="yes"/>
      <point x="192" y="81"/>
      <point x="165" y="89"/>
      <point x="146" y="100" type="curve"/>
      <point x="146" y="282" type="line"/>
      <point x="163" y="292"/>
      <point x="189" y="304"/>
      <point x="218" y="304" type="curve" smooth="yes"/>
      <point x="255" y="304"/>
      <point x="282" y="276"/>
      <point x="282" y="186" type="curve" smooth="yes"/>
      <point x="282" y="102"/>
      <point x="251" y="81"/>
    </contour>
  </outline>
</glyph>
<glyph name="dotlessi" format="2">
  <advance width="186"/>
  <unicode hex="0131"/>
  <note>
GF Latin Plus glyph
</note>
  <outline>
    <contour>
      <point x="40" y="0" type="line"/>
      <point x="146" y="0" type="line"/>
      <point x="146" y="383" type="line"/>
      <point x="40" y="383" type="line"/>
    </contour>
  </outline>
</glyph>
<glyph name="oe" format="2">
  <advance width="625"/>
  <unicode hex="0153"/>
  <note>
GF Latin Plus glyph
</note>
  <outline>
    <contour>
      <point x="204" y="-3" type="curve" smooth="yes"/>
      <point x="321" y="-3"/>
      <point x="365" y="40"/>
      <point x="365" y="192" type="curve" smooth="yes"/>
      <point x="365" y="346"/>
      <point x="319" y="389"/>
      <point x="205" y="389" type="curve" smooth="yes"/>
      <point x="79" y="389"/>
      <point x="29" y="349"/>
      <point x="29" y="192" type="curve" smooth="yes"/>
      <point x="29" y="43"/>
      <point x="77" y="-3"/>
    </contour>
    <contour>
      <point x="205" y="75" type="curve" smooth="yes"/>
      <point x="155" y="75"/>
      <point x="135" y="87"/>
      <point x="135" y="193" type="curve" smooth="yes"/>
      <point x="135" y="298"/>
      <point x="155" y="309"/>
      <point x="205" y="309" type="curve" smooth="yes"/>
      <point x="254" y="309"/>
      <point x="275" y="298"/>
      <point x="275" y="193" type="curve" smooth="yes"/>
      <point x="275" y="87"/>
      <point x="254" y="75"/>
    </contour>
    <contour>
      <point x="435" y="-3" type="curve" smooth="yes"/>
      <point x="496" y="-3"/>
      <point x="544" y="3"/>
      <point x="584" y="13" type="curve"/>
      <point x="584" y="75" type="line"/>
      <point x="467" y="75" type="line" smooth="yes"/>
      <point x="402" y="75"/>
      <point x="377" y="96"/>
      <point x="376" y="154" type="curve"/>
      <point x="484" y="154" type="line" smooth="yes"/>
      <point x="546" y="154"/>
      <point x="596" y="181"/>
      <point x="596" y="246" type="curve" smooth="yes"/>
      <point x="596" y="361"/>
      <point x="552" y="389"/>
      <point x="438" y="389" type="curve" smooth="yes"/>
      <point x="325" y="389"/>
      <point x="287" y="328"/>
      <point x="287" y="191" type="curve" smooth="yes"/>
      <point x="287" y="54"/>
      <point x="333" y="-3"/>
    </contour>
    <contour>
      <point x="375" y="217" type="line"/>
      <point x="375" y="286"/>
      <point x="390" y="313"/>
      <point x="438" y="313" type="curve" smooth="yes"/>
      <point x="484" y="313"/>
      <point x="503" y="299"/>
      <point x="503" y="257" type="curve" smooth="yes"/>
      <point x="503" y="227"/>
      <point x="489" y="217"/>
      <point x="463" y="217" type="curve" smooth="yes"/>
    </contour>
  </outline>
</glyph>
<glyph name="florin" format="2">
  <advance width="435"/>
  <unicode hex="0192"/>
  <note>
GF Latin Plus glyph
</note>
  <outline>
    <contour>
      <point x="90" y="-145" type="curve" smooth="yes"/>
      <point x="179" y="-145"/>
      <point x="219" y="-75"/>
      <point x="242" y="62" type="curve" smooth="yes"/>
      <point x="277" y="267" type="line"/>
      <point x="351" y="267" type="line"/>
      <point x="363" y="341" type="line"/>
      <point x="285" y="341" type="line"/>
      <point x="298" y="408" type="line" smooth="yes"/>
      <point x="308" y="462"/>
      <point x="322" y="491"/>
      <point x="369" y="491" type="curve" smooth="yes"/>
      <point x="404" y="491" type="line"/>
      <point x="414" y="556" type="line"/>
      <point x="403" y="561"/>
      <point x="379" y="571"/>
      <point x="332" y="571" type="curve" smooth="yes"/>
      <point x="247" y="571"/>
      <point x="212" y="514"/>
      <point x="198" y="436" type="curve" smooth="yes"/>
      <point x="180" y="342" type="line"/>
      <point x="121" y="342" type="line"/>
      <point x="110" y="267" type="line"/>
      <point x="171" y="267" type="line"/>
      <point x="132" y="36" type="line" smooth="yes"/>
      <point x="119" y="-39"/>
      <point x="100" y="-66"/>
      <point x="56" y="-66" type="curve" smooth="yes"/>
      <point x="21" y="-66" type="line"/>
      <point x="10" y="-131" type="line"/>
      <point x="24" y="-138"/>
      <point x="53" y="-145"/>
    </contour>
  </outline>
</glyph>
<glyph name="glottalstopsmall" format="2">
  <advance width="302"/>
  <unicode hex="0242"/>
  <outline>
    <contour>
      <point x="280" y="247" type="curve" smooth="yes"/>
      <point x="280" y="305"/>
      <point x="237" y="357"/>
      <point x="132" y="357" type="curve" smooth="yes"/>
      <point x="65" y="357"/>
      <point x="23" y="320"/>
      <point x="23" y="287" type="curve" smooth="yes"/>
      <point x="23" y="254"/>
      <point x="46" y="235"/>
      <point x="74" y="235" type="curve" smooth="yes"/>
      <point x="86" y="235"/>
      <point x="99" y="241"/>
      <point x="99" y="241" type="curve"/>
      <point x="126" y="313" type="line"/>
      <point x="130" y="317"/>
      <point x="137" y="320"/>
      <point x="147" y="320" type="curve" smooth="yes"/>
      <point x="170" y="320"/>
      <point x="181" y="296"/>
      <point x="181" y="247" type="curve" smooth="yes"/>
      <point x="181" y="195"/>
      <point x="142" y="170"/>
      <point x="95" y="159" type="curve"/>
      <point x="95" y="44" type="line" smooth="yes"/>
      <point x="95" y="38"/>
      <point x="92" y="35"/>
      <point x="87" y="35" type="curve" smooth="yes"/>
      <point x="87" y="35"/>
      <point x="64" y="34"/>
      <point x="47" y="33" type="curve"/>
      <point x="47" y="0" type="line"/>
      <point x="239" y="0" type="line"/>
      <point x="239" y="33" type="line"/>
      <point x="222" y="34"/>
      <point x="199" y="35"/>
      <point x="199" y="35" type="curve"/>
      <point x="193" y="35"/>
      <point x="191" y="38"/>
      <point x="191" y="44" type="curve" smooth="yes"/>
      <point x="191" y="148" type="line"/>
      <point x="239" y="164"/>
      <point x="280" y="187"/>
    </contour>
  </outline>
</glyph>
<glyph name="glottalstop" format="2">
  <advance width="342"/>
  <unicode hex="0294"/>
  <outline>
    <contour>
      <point x="316" y="355" type="curve" smooth="yes"/>
      <point x="316" y="437"/>
      <point x="247" y="490"/>
      <point x="154" y="490" type="curve" smooth="yes"/>
      <point x="96" y="490"/>
      <point x="26" y="472"/>
      <point x="26" y="410" type="curve" smooth="yes"/>
      <point x="26" y="380"/>
      <point x="49" y="372"/>
      <point x="65" y="372" type="curve" smooth="yes"/>
      <point x="82" y="372"/>
      <point x="97" y="379"/>
      <point x="97" y="379" type="curve"/>
      <point x="122" y="440" type="line"/>
      <point x="133" y="447"/>
      <point x="140" y="447"/>
      <point x="154" y="447" type="curve" smooth="yes"/>
      <point x="199" y="447"/>
      <point x="219" y="396"/>
      <point x="219" y="356" type="curve" smooth="yes"/>
      <point x="219" y="254"/>
      <point x="95" y="216"/>
      <point x="95" y="216" type="curve"/>
      <point x="95" y="56" type="line" smooth="yes"/>
      <point x="95" y="47"/>
      <point x="89" y="41"/>
      <point x="79" y="40" type="curve" smooth="yes"/>
      <point x="34" y="36" type="line"/>
      <point x="34" y="0" type="line"/>
      <point x="252" y="0" type="line"/>
      <point x="252" y="36" type="line"/>
      <point x="207" y="40" type="line" smooth="yes"/>
      <point x="197" y="41"/>
      <point x="191" y="47"/>
      <point x="191" y="56" type="curve" smooth="yes"/>
      <point x="191" y="205" type="line"/>
      <point x="191" y="205"/>
      <point x="316" y="232"/>
    </contour>
  </outline>
</glyph>
<glyph name="glottalstopmod" format="2">
  <advance width="222"/>
  <unicode hex="02C0"/>
  <outline>
    <contour>
      <point x="205" y="486" type="curve" smooth="yes"/>
      <point x="205" y="536"/>
      <point x="160" y="567"/>
      <point x="100" y="567" type="curve" smooth="yes"/>
      <point x="62" y="567"/>
      <point x="17" y="556"/>
      <point x="17" y="520" type="curve" smooth="yes"/>
      <point x="17" y="501"/>
      <point x="32" y="497"/>
      <point x="42" y="497" type="curve" smooth="yes"/>
      <point x="53" y="497"/>
      <point x="62" y="500"/>
      <point x="62" y="500" type="curve"/>
      <point x="79" y="537" type="line"/>
      <point x="86" y="541"/>
      <point x="91" y="541"/>
      <point x="100" y="541" type="curve" smooth="yes"/>
      <point x="130" y="541"/>
      <point x="142" y="511"/>
      <point x="142" y="487" type="curve" smooth="yes"/>
      <point x="142" y="425"/>
      <point x="62" y="403"/>
      <point x="62" y="403" type="curve"/>
      <point x="62" y="307" type="line" smooth="yes"/>
      <point x="62" y="301"/>
      <point x="57" y="298"/>
      <point x="52" y="297" type="curve" smooth="yes"/>
      <point x="21" y="295" type="line"/>
      <point x="21" y="273" type="line"/>
      <point x="164" y="273" type="line"/>
      <point x="164" y="295" type="line"/>
      <point x="134" y="297" type="line" smooth="yes"/>
      <point x="128" y="298"/>
      <point x="124" y="301"/>
      <point x="124" y="307" type="curve" smooth="yes"/>
      <point x="124" y="397" type="line"/>
      <point x="124" y="397"/>
      <point x="205" y="412"/>
    </contour>
  </outline>
</glyph>
<glyph name="circumflex" format="2">
  <advance width="275"/>
  <unicode hex="02C6"/>
  <note>
GF Latin Plus glyph
</note>
  <outline>
    <contour>
      <point x="27" y="450" type="line"/>
      <point x="89" y="450" type="line"/>
      <point x="139" y="504" type="line"/>
      <point x="186" y="450" type="line"/>
      <point x="248" y="450" type="line"/>
      <point x="177" y="551" type="line"/>
      <point x="105" y="551" type="line"/>
    </contour>
  </outline>
</glyph>
<glyph name="caron" format="2">
  <advance width="275"/>
  <unicode hex="02C7"/>
  <note>
GF Latin Plus glyph
</note>
  <outline>
    <contour>
      <point x="98" y="450" type="line"/>
      <point x="170" y="450" type="line"/>
      <point x="248" y="551" type="line"/>
      <point x="186" y="551" type="line"/>
      <point x="136" y="497" type="line"/>
      <point x="89" y="551" type="line"/>
      <point x="27" y="551" type="line"/>
    </contour>
  </outline>
</glyph>
<glyph name="colontriangularmod" format="2">
  <advance width="202"/>
  <unicode hex="02D0"/>
  <outline>
    <contour>
      <point x="175" y="354" type="line"/>
      <point x="26" y="354" type="line"/>
      <point x="68" y="219" type="line"/>
      <point x="133" y="219" type="line"/>
    </contour>
    <contour>
      <point x="175" y="0" type="line"/>
      <point x="133" y="134" type="line"/>
      <point x="68" y="134" type="line"/>
      <point x="26" y="0" type="line"/>
    </contour>
  </outline>
</glyph>
<glyph name="breve" format="2">
  <advance width="250"/>
  <unicode hex="02D8"/>
  <note>
GF Latin Plus glyph
</note>
  <outline>
    <contour>
      <point x="124" y="445" type="curve" smooth="yes"/>
      <point x="186" y="445"/>
      <point x="225" y="477"/>
      <point x="225" y="553" type="curve"/>
      <point x="175" y="553" type="line"/>
      <point x="175" y="508"/>
      <point x="154" y="493"/>
      <point x="124" y="493" type="curve" smooth="yes"/>
      <point x="99" y="493"/>
      <point x="74" y="507"/>
      <point x="74" y="553" type="curve"/>
      <point x="25" y="553" type="line"/>
      <point x="25" y="478"/>
      <point x="63" y="445"/>
    </contour>
  </outline>
</glyph>
<glyph name="dotaccent" format="2">
  <advance width="133"/>
  <unicode hex="02D9"/>
  <note>
GF Latin Plus glyph
</note>
  <outline>
    <contour>
      <point x="41" y="455" type="curve" smooth="yes"/>
      <point x="90" y="455" type="line" smooth="yes"/>
      <point x="99" y="455"/>
      <point x="104" y="460"/>
      <point x="104" y="469" type="curve" smooth="yes"/>
      <point x="104" y="539" type="line" smooth="yes"/>
      <point x="104" y="548"/>
      <point x="99" y="554"/>
      <point x="90" y="554" type="curve" smooth="yes"/>
      <point x="41" y="554" type="line" smooth="yes"/>
      <point x="31" y="554"/>
      <point x="26" y="548"/>
      <point x="26" y="539" type="curve" smooth="yes"/>
      <point x="26" y="469" type="line" smooth="yes"/>
      <point x="26" y="461"/>
      <point x="32" y="455"/>
    </contour>
  </outline>
</glyph>
<glyph name="ring" format="2">
  <advance width="231"/>
  <unicode hex="02DA"/>
  <note>
GF Latin Plus glyph
</note>
  <outline>
    <contour>
      <point x="116" y="418" type="curve" smooth="yes"/>
      <point x="173" y="418"/>
      <point x="203" y="438"/>
      <point x="203" y="498" type="curve" smooth="yes"/>
      <point x="203" y="559"/>
      <point x="173" y="580"/>
      <point x="116" y="580" type="curve" smooth="yes"/>
      <point x="59" y="580"/>
      <point x="27" y="559"/>
      <point x="27" y="498" type="curve" smooth="yes"/>
      <point x="27" y="438"/>
      <point x="59" y="418"/>
    </contour>
    <contour>
      <point x="116" y="457" type="curve" smooth="yes"/>
      <point x="89" y="457"/>
      <point x="76" y="467"/>
      <point x="76" y="498" type="curve" smooth="yes"/>
      <point x="76" y="530"/>
      <point x="89" y="541"/>
      <point x="116" y="541" type="curve" smooth="yes"/>
      <point x="143" y="541"/>
      <point x="154" y="530"/>
      <point x="154" y="498" type="curve" smooth="yes"/>
      <point x="154" y="467"/>
      <point x="143" y="457"/>
    </contour>
  </outline>
</glyph>
<glyph name="ogonek" format="2">
  <advance width="152"/>
  <unicode hex="02DB"/>
  <note>
GF Latin Plus glyph
</note>
  <outline>
    <contour>
      <point x="102" y="-137" type="curve" smooth="yes"/>
      <point x="112" y="-137"/>
      <point x="120" y="-136"/>
      <point x="125" y="-134" type="curve"/>
      <point x="125" y="-84" type="line"/>
      <point x="119" y="-84" type="line" smooth="yes"/>
      <point x="94" y="-84"/>
      <point x="77" y="-71"/>
      <point x="77" y="-48" type="curve" smooth="yes"/>
      <point x="77" y="-29"/>
      <point x="88" y="-15"/>
      <point x="112" y="0" type="curve"/>
      <point x="74" y="0" type="line"/>
      <point x="44" y="-15"/>
      <point x="26" y="-40"/>
      <point x="26" y="-72" type="curve" smooth="yes"/>
      <point x="26" y="-104"/>
      <point x="48" y="-137"/>
    </contour>
  </outline>
</glyph>
<glyph name="tilde" format="2">
  <advance width="301"/>
  <unicode hex="02DC"/>
  <note>
GF Latin Plus glyph
</note>
  <outline>
    <contour>
      <point x="22" y="449" type="curve"/>
      <point x="75" y="449" type="line"/>
      <point x="76" y="470"/>
      <point x="88" y="483"/>
      <point x="106" y="483" type="curve" smooth="yes"/>
      <point x="136" y="483"/>
      <point x="164" y="450"/>
      <point x="211" y="450" type="curve" smooth="yes"/>
      <point x="255" y="450"/>
      <point x="282" y="481"/>
      <point x="284" y="545" type="curve"/>
      <point x="232" y="545" type="line"/>
      <point x="231" y="521"/>
      <point x="219" y="508"/>
      <point x="201" y="508" type="curve" smooth="yes"/>
      <point x="167" y="508"/>
      <point x="145" y="541"/>
      <point x="97" y="541" type="curve" smooth="yes"/>
      <point x="59" y="541"/>
      <point x="25" y="517"/>
    </contour>
  </outline>
</glyph>
<glyph name="hungarumlaut" format="2">
  <advance width="284"/>
  <unicode hex="02DD"/>
  <note>
GF Latin Plus glyph
</note>
  <outline>
    <contour>
      <point x="127" y="450" type="line"/>
      <point x="190" y="450" type="line"/>
      <point x="261" y="550" type="line"/>
      <point x="181" y="550" type="line"/>
    </contour>
    <contour>
      <point x="10" y="450" type="line"/>
      <point x="73" y="450" type="line"/>
      <point x="144" y="550" type="line"/>
      <point x="64" y="550" type="line"/>
    </contour>
  </outline>
</glyph>
<glyph name="Omegagreek" format="2">
  <advance width="544"/>
  <unicode hex="03A9"/>
  <outline>
    <contour>
      <point x="35" y="287" type="curve" smooth="yes"/>
      <point x="35" y="207"/>
      <point x="65" y="137"/>
      <point x="128" y="92" type="curve"/>
      <point x="30" y="85" type="line"/>
      <point x="30" y="0" type="line"/>
      <point x="227" y="0" type="line"/>
      <point x="227" y="91" type="line"/>
      <point x="166" y="148"/>
      <point x="141" y="202"/>
      <point x="141" y="277" type="curve" smooth="yes"/>
      <point x="141" y="353"/>
      <point x="166" y="432"/>
      <point x="272" y="432" type="curve" smooth="yes"/>
      <point x="374" y="432"/>
      <point x="400" y="353"/>
      <point x="400" y="278" type="curve" smooth="yes"/>
      <point x="400" y="208"/>
      <point x="376" y="142"/>
      <point x="319" y="91" type="curve"/>
      <point x="319" y="0" type="line"/>
      <point x="517" y="0" type="line"/>
      <point x="517" y="85" type="line"/>
      <point x="419" y="91" type="line"/>
      <point x="470" y="140"/>
      <point x="506" y="200"/>
      <point x="506" y="284" type="curve" smooth="yes"/>
      <point x="506" y="419"/>
      <point x="445" y="527"/>
      <point x="272" y="527" type="curve" smooth="yes"/>
      <point x="90" y="527"/>
      <point x="35" y="403"/>
    </contour>
  </outline>
</glyph>
<glyph name="pi" format="2">
  <advance width="455"/>
  <unicode hex="03C0"/>
  <outline>
    <contour>
      <point x="10" y="383" type="line"/>
      <point x="10" y="287" type="line"/>
      <point x="67" y="287" type="line"/>
      <point x="67" y="0" type="line"/>
      <point x="173" y="0" type="line"/>
      <point x="173" y="287" type="line"/>
      <point x="248" y="287" type="line"/>
      <point x="248" y="108" type="line" smooth="yes"/>
      <point x="248" y="33"/>
      <point x="282" y="-4"/>
      <point x="347" y="-4" type="curve" smooth="yes"/>
      <point x="383" y="-4"/>
      <point x="406" y="5"/>
      <point x="420" y="14" type="curve"/>
      <point x="420" y="76" type="line"/>
      <point x="388" y="76" type="line" smooth="yes"/>
      <point x="364" y="76"/>
      <point x="354" y="84"/>
      <point x="354" y="114" type="curve" smooth="yes"/>
      <point x="354" y="287" type="line"/>
      <point x="415" y="287" type="line"/>
      <point x="415" y="383" type="line"/>
    </contour>
  </outline>
</glyph>
<glyph name="om" format="2">
  <advance width="831"/>
  <unicode hex="0950"/>
  <outline>
    <contour>
      <point x="506" y="686" type="curve" smooth="yes"/>
      <point x="435" y="686" type="line" smooth="yes"/>
      <point x="417" y="686"/>
      <point x="404" y="676"/>
      <point x="404" y="656" type="curve" smooth="yes"/>
      <point x="404" y="608" type="line" smooth="yes"/>
      <point x="404" y="597"/>
      <point x="413" y="575"/>
      <point x="435" y="575" type="curve" smooth="yes"/>
      <point x="506" y="575" type="line" smooth="yes"/>
      <point x="522" y="575"/>
      <point x="538" y="588"/>
      <point x="541" y="608" type="curve"/>
      <point x="542" y="656" type="line" smooth="yes"/>
      <point x="542" y="668"/>
      <point x="532" y="686"/>
    </contour>
    <contour>
      <point x="580" y="571" type="curve" smooth="yes"/>
      <point x="373" y="571" type="line" smooth="yes"/>
      <point x="350" y="571"/>
      <point x="327" y="586"/>
      <point x="304" y="617" type="curve"/>
      <point x="236" y="575" type="line"/>
      <point x="273" y="510"/>
      <point x="326" y="489"/>
      <point x="363" y="489" type="curve" smooth="yes"/>
      <point x="594" y="489" type="line" smooth="yes"/>
      <point x="662" y="489"/>
      <point x="700" y="554"/>
      <point x="711" y="576" type="curve"/>
      <point x="648" y="630" type="line"/>
      <point x="640" y="612"/>
      <point x="622" y="571"/>
    </contour>
    <contour>
      <point x="785" y="494" type="curve" smooth="yes"/>
      <point x="637" y="494" type="line" smooth="yes"/>
      <point x="587" y="494"/>
      <point x="551" y="455"/>
      <point x="546" y="414" type="curve"/>
      <point x="546" y="297" type="line" smooth="yes"/>
      <point x="546" y="286"/>
      <point x="535" y="271"/>
      <point x="517" y="271" type="curve" smooth="yes"/>
      <point x="486" y="271" type="line" smooth="yes"/>
      <point x="472" y="271"/>
      <point x="453" y="280"/>
      <point x="430" y="299" type="curve"/>
      <point x="405" y="228" type="line"/>
      <point x="428" y="202"/>
      <point x="455" y="189"/>
      <point x="484" y="189" type="curve" smooth="yes"/>
      <point x="566" y="189" type="line" smooth="yes"/>
      <point x="605" y="189"/>
      <point x="645" y="223"/>
      <point x="645" y="273" type="curve" smooth="yes"/>
      <point x="645" y="392" type="line" smooth="yes"/>
      <point x="645" y="395"/>
      <point x="647" y="412"/>
      <point x="663" y="415" type="curve"/>
      <point x="734" y="414" type="line" smooth="yes"/>
      <point x="749" y="414"/>
      <point x="764" y="405"/>
      <point x="764" y="389" type="curve" smooth="yes"/>
      <point x="764" y="179" type="line" smooth="yes"/>
      <point x="764" y="160"/>
      <point x="749" y="141"/>
      <point x="734" y="141" type="curve" smooth="yes"/>
      <point x="610" y="141" type="line"/>
      <point x="610" y="60" type="line"/>
      <point x="740" y="60" type="line" smooth="yes"/>
      <point x="813" y="60"/>
      <point x="862" y="111"/>
      <point x="862" y="168" type="curve" smooth="yes"/>
      <point x="862" y="422" type="line" smooth="yes"/>
      <point x="862" y="463"/>
      <point x="826" y="494"/>
    </contour>
    <contour>
      <point x="376" y="247" type="curve"/>
      <point x="407" y="267"/>
      <point x="410" y="304"/>
      <point x="410" y="319" type="curve" smooth="yes"/>
      <point x="410" y="405" type="line" smooth="yes"/>
      <point x="410" y="453"/>
      <point x="372" y="492"/>
      <point x="320" y="492" type="curve" smooth="yes"/>
      <point x="150" y="492" type="line" smooth="yes"/>
      <point x="91" y="492"/>
      <point x="47" y="459"/>
      <point x="47" y="415" type="curve" smooth="yes"/>
      <point x="47" y="353" type="line"/>
      <point x="143" y="353" type="line"/>
      <point x="143" y="387" type="line" smooth="yes"/>
      <point x="143" y="410"/>
      <point x="178" y="411"/>
      <point x="181" y="411" type="curve" smooth="yes"/>
      <point x="273" y="411" type="line" smooth="yes"/>
      <point x="297" y="411"/>
      <point x="313" y="395"/>
      <point x="313" y="377" type="curve" smooth="yes"/>
      <point x="313" y="323" type="line" smooth="yes"/>
      <point x="313" y="298"/>
      <point x="297" y="282"/>
      <point x="279" y="282" type="curve" smooth="yes"/>
      <point x="231" y="282" type="line"/>
      <point x="231" y="201" type="line"/>
      <point x="284" y="201" type="line" smooth="yes"/>
      <point x="298" y="201"/>
      <point x="313" y="186"/>
      <point x="313" y="166" type="curve" smooth="yes"/>
      <point x="313" y="118" type="line" smooth="yes"/>
      <point x="313" y="103"/>
      <point x="300" y="81"/>
      <point x="279" y="81" type="curve" smooth="yes"/>
      <point x="166" y="81" type="line" smooth="yes"/>
      <point x="155" y="81"/>
      <point x="143" y="96"/>
      <point x="143" y="110" type="curve" smooth="yes"/>
      <point x="143" y="139" type="line"/>
      <point x="47" y="139" type="line"/>
      <point x="47" y="70" type="line" smooth="yes"/>
      <point x="47" y="51"/>
      <point x="55" y="35"/>
      <point x="72" y="22" type="curve"/>
      <point x="86" y="7"/>
      <point x="108" y="0"/>
      <point x="137" y="2" type="curve"/>
      <point x="334" y="2" type="line" smooth="yes"/>
      <point x="377" y="2"/>
      <point x="410" y="38"/>
      <point x="410" y="76" type="curve" smooth="yes"/>
      <point x="410" y="182" type="line" smooth="yes"/>
      <point x="410" y="220"/>
      <point x="387" y="241"/>
    </contour>
  </outline>
</glyph>
<glyph name="udatta" format="2">
  <unicode hex="0951"/>
  <anchor x="-296" y="553" name="_C"/>
  <outline>
    <contour>
      <point x="-277" y="553" type="line"/>
      <point x="-277" y="719" type="line"/>
      <point x="-344" y="719" type="line"/>
      <point x="-344" y="553" type="line"/>
    </contour>
  </outline>
</glyph>
<glyph name="anudatta" format="2">
  <advance width="11"/>
  <unicode hex="0952"/>
  <outline>
    <contour>
      <point x="-123" y="-349" type="line"/>
      <point x="-170" y="-292" type="line"/>
      <point x="-431" y="-292" type="line"/>
      <point x="-383" y="-349" type="line"/>
    </contour>
  </outline>
</glyph>
<glyph name="gravedeva" format="2">
  <advance width="11"/>
  <unicode hex="0953"/>
  <outline>
    <contour>
      <point x="-257" y="548" type="line"/>
      <point x="-456" y="719" type="line"/>
      <point x="-549" y="721" type="line"/>
      <point x="-357" y="554" type="line"/>
    </contour>
  </outline>
</glyph>
<glyph name="acutedeva" format="2">
  <advance width="11"/>
  <unicode hex="0954"/>
  <outline>
    <contour>
      <point x="-80" y="728" type="line"/>
      <point x="-173" y="726" type="line"/>
      <point x="-371" y="556" type="line"/>
      <point x="-277" y="558" type="line"/>
    </contour>
  </outline>
</glyph>
<glyph name="danda" format="2">
  <advance width="207"/>
  <unicode hex="0964"/>
  <outline>
    <contour>
      <point x="237" y="0" type="line"/>
      <point x="237" y="488" type="line"/>
      <point x="139" y="488" type="line"/>
      <point x="139" y="0" type="line"/>
    </contour>
  </outline>
</glyph>
<glyph name="spacingcandrabindu" format="2">
  <advance width="831"/>
  <unicode hex="0C80"/>
  <outline>
    <contour>
      <point x="506" y="686" type="curve" smooth="yes"/>
      <point x="435" y="686" type="line" smooth="yes"/>
      <point x="417" y="686"/>
      <point x="404" y="676"/>
      <point x="404" y="656" type="curve" smooth="yes"/>
      <point x="404" y="608" type="line" smooth="yes"/>
      <point x="404" y="597"/>
      <point x="413" y="575"/>
      <point x="435" y="575" type="curve" smooth="yes"/>
      <point x="506" y="575" type="line" smooth="yes"/>
      <point x="522" y="575"/>
      <point x="538" y="588"/>
      <point x="541" y="608" type="curve"/>
      <point x="542" y="656" type="line" smooth="yes"/>
      <point x="542" y="668"/>
      <point x="532" y="686"/>
    </contour>
    <contour>
      <point x="580" y="571" type="curve" smooth="yes"/>
      <point x="373" y="571" type="line" smooth="yes"/>
      <point x="350" y="571"/>
      <point x="327" y="586"/>
      <point x="304" y="617" type="curve"/>
      <point x="236" y="575" type="line"/>
      <point x="273" y="510"/>
      <point x="326" y="489"/>
      <point x="363" y="489" type="curve" smooth="yes"/>
      <point x="594" y="489" type="line" smooth="yes"/>
      <point x="662" y="489"/>
      <point x="700" y="554"/>
      <point x="711" y="576" type="curve"/>
      <point x="648" y="630" type="line"/>
      <point x="640" y="612"/>
      <point x="622" y="571"/>
    </contour>
  </outline>
</glyph>
<glyph name="anusvara" format="2">
  <advance width="562"/>
  <unicode hex="0C82"/>
  <outline>
    <contour>
      <point x="449" y="488" type="curve" smooth="yes"/>
      <point x="244" y="488" type="line" smooth="yes"/>
      <point x="171" y="488"/>
      <point x="124" y="437"/>
      <point x="124" y="383" type="curve" smooth="yes"/>
      <point x="124" y="121" type="line" smooth="yes"/>
      <point x="124" y="87"/>
      <point x="136" y="59"/>
      <point x="160" y="37" type="curve" smooth="yes"/>
      <point x="183" y="12"/>
      <point x="211" y="0"/>
      <point x="244" y="0" type="curve" smooth="yes"/>
      <point x="469" y="0" type="line" smooth="yes"/>
      <point x="527" y="0"/>
      <point x="570" y="53"/>
      <point x="570" y="112" type="curve" smooth="yes"/>
      <point x="570" y="374" type="line" smooth="yes"/>
      <point x="570" y="440"/>
      <point x="515" y="488"/>
    </contour>
    <contour>
      <point x="435" y="81" type="curve" smooth="yes"/>
      <point x="275" y="81" type="line" smooth="yes"/>
      <point x="246" y="81"/>
      <point x="221" y="105"/>
      <point x="221" y="127" type="curve" smooth="yes"/>
      <point x="221" y="374" type="line" smooth="yes"/>
      <point x="221" y="394"/>
      <point x="244" y="407"/>
      <point x="271" y="407" type="curve" smooth="yes"/>
      <point x="435" y="407" type="line" smooth="yes"/>
      <point x="473" y="407"/>
      <point x="473" y="369"/>
      <point x="473" y="368" type="curve" smooth="yes"/>
      <point x="473" y="127" type="line" smooth="yes"/>
      <point x="473" y="105"/>
      <point x="456" y="81"/>
    </contour>
  </outline>
</glyph>
<glyph name="visarga" format="2">
  <advance width="363"/>
  <unicode hex="0C83"/>
  <outline>
    <contour>
      <point x="110" y="411" type="curve" smooth="yes"/>
      <point x="110" y="336" type="line" smooth="yes"/>
      <point x="110" y="296"/>
      <point x="145" y="256"/>
      <point x="198" y="256" type="curve" smooth="yes"/>
      <point x="312" y="256" type="line" smooth="yes"/>
      <point x="335" y="256"/>
      <point x="353" y="263"/>
      <point x="367" y="278" type="curve" smooth="yes"/>
      <point x="383" y="292"/>
      <point x="391" y="309"/>
      <point x="391" y="330" type="curve" smooth="yes"/>
      <point x="391" y="406" type="line" smooth="yes"/>
      <point x="391" y="447"/>
      <point x="355" y="488"/>
      <point x="301" y="488" type="curve" smooth="yes"/>
      <point x="198" y="488" type="line" smooth="yes"/>
      <point x="156" y="488"/>
      <point x="110" y="461"/>
    </contour>
    <contour>
      <point x="301" y="233" type="curve" smooth="yes"/>
      <point x="198" y="233" type="line" smooth="yes"/>
      <point x="157" y="233"/>
      <point x="110" y="205"/>
      <point x="110" y="155" type="curve" smooth="yes"/>
      <point x="110" y="80" type="line" smooth="yes"/>
      <point x="110" y="33"/>
      <point x="155" y="1"/>
      <point x="198" y="1" type="curve" smooth="yes"/>
      <point x="318" y="0" type="line" smooth="yes"/>
      <point x="358" y="0"/>
      <point x="391" y="37"/>
      <point x="391" y="83" type="curve" smooth="yes"/>
      <point x="391" y="146" type="line" smooth="yes"/>
      <point x="391" y="187"/>
      <point x="359" y="233"/>
    </contour>
    <contour>
      <point x="277" y="337" type="curve"/>
      <point x="226" y="337" type="line" smooth="yes"/>
      <point x="211" y="337"/>
      <point x="207" y="350"/>
      <point x="205" y="355" type="curve"/>
      <point x="206" y="392" type="line" smooth="yes"/>
      <point x="206" y="399"/>
      <point x="213" y="407"/>
      <point x="230" y="407" type="curve" smooth="yes"/>
      <point x="277" y="407" type="line" smooth="yes"/>
      <point x="281" y="407"/>
      <point x="294" y="407"/>
      <point x="294" y="392" type="curve" smooth="yes"/>
      <point x="294" y="349" type="line" smooth="yes"/>
      <point x="294" y="343"/>
      <point x="291" y="342"/>
    </contour>
    <contour>
      <point x="281" y="81" type="curve" smooth="yes"/>
      <point x="219" y="81" type="line" smooth="yes"/>
      <point x="214" y="81"/>
      <point x="213" y="82"/>
      <point x="211" y="86" type="curve" smooth="yes"/>
      <point x="205" y="100" type="line"/>
      <point x="206" y="141" type="line" smooth="yes"/>
      <point x="206" y="141"/>
      <point x="208" y="151"/>
      <point x="226" y="151" type="curve" smooth="yes"/>
      <point x="287" y="151" type="line"/>
      <point x="292" y="147"/>
      <point x="294" y="146"/>
      <point x="294" y="137" type="curve" smooth="yes"/>
      <point x="294" y="93" type="line"/>
      <point x="291" y="83"/>
      <point x="290" y="81"/>
    </contour>
  </outline>
</glyph>
<glyph name="siddham" format="2">
  <advance width="359"/>
  <unicode hex="0C84"/>
  <outline>
    <contour>
      <point x="163" y="555" type="curve" smooth="yes"/>
      <point x="74" y="555"/>
      <point x="34" y="466"/>
      <point x="34" y="385" type="curve" smooth="yes"/>
      <point x="34" y="310"/>
      <point x="63" y="227"/>
      <point x="138" y="227" type="curve" smooth="yes"/>
      <point x="228" y="227"/>
      <point x="232" y="323"/>
      <point x="232" y="339" type="curve" smooth="yes"/>
      <point x="232" y="428"/>
      <point x="173" y="441"/>
      <point x="139" y="441" type="curve"/>
      <point x="139" y="382" type="line"/>
      <point x="166" y="382"/>
      <point x="180" y="368"/>
      <point x="180" y="339" type="curve" smooth="yes"/>
      <point x="180" y="318"/>
      <point x="170" y="288"/>
      <point x="138" y="288" type="curve" smooth="yes"/>
      <point x="92" y="288"/>
      <point x="86" y="353"/>
      <point x="86" y="385" type="curve" smooth="yes"/>
      <point x="86" y="430"/>
      <point x="104" y="494"/>
      <point x="163" y="494" type="curve" smooth="yes"/>
      <point x="237" y="494"/>
      <point x="274" y="445"/>
      <point x="274" y="348" type="curve" smooth="yes"/>
      <point x="274" y="232"/>
      <point x="165" y="95"/>
      <point x="45" y="60" type="curve"/>
      <point x="56" y="0" type="line"/>
      <point x="202" y="45"/>
      <point x="327" y="210"/>
      <point x="327" y="348" type="curve" smooth="yes"/>
      <point x="327" y="515"/>
      <point x="238" y="555"/>
    </contour>
  </outline>
</glyph>
<glyph name="avowel" format="2">
  <advance width="730"/>
  <unicode hex="0C85"/>
  <anchor x="446" y="-116" name="N"/>
  <outline>
    <contour>
      <point x="639" y="488" type="curve" smooth="yes"/>
      <point x="510" y="488" type="line"/>
      <point x="510" y="358" type="line" smooth="yes"/>
      <point x="510" y="341"/>
      <point x="520" y="322"/>
      <point x="541" y="299" type="curve"/>
      <point x="335" y="299" type="line"/>
      <point x="335" y="218" type="line"/>
      <point x="658" y="218" type="line"/>
      <point x="658" y="295" type="line"/>
      <point x="624" y="318"/>
      <point x="607" y="341"/>
      <point x="607" y="364" type="curve" smooth="yes"/>
      <point x="607" y="407" type="line"/>
      <point x="630" y="407" type="line" smooth="yes"/>
      <point x="663" y="407"/>
      <point x="664" y="381"/>
      <point x="664" y="377" type="curve" smooth="yes"/>
      <point x="664" y="141" type="line" smooth="yes"/>
      <point x="664" y="117"/>
      <point x="646" y="81"/>
      <point x="613" y="81" type="curve" smooth="yes"/>
      <point x="281" y="81" type="line" smooth="yes"/>
      <point x="268" y="81"/>
      <point x="255" y="86"/>
      <point x="242" y="95" type="curve"/>
      <point x="232" y="106"/>
      <point x="227" y="117"/>
      <point x="227" y="127" type="curve" smooth="yes"/>
      <point x="227" y="358" type="line" smooth="yes"/>
      <point x="227" y="376"/>
      <point x="235" y="407"/>
      <point x="260" y="407" type="curve" smooth="yes"/>
      <point x="285" y="407" type="line"/>
      <point x="285" y="322" type="line"/>
      <point x="381" y="322" type="line"/>
      <point x="381" y="488" type="line"/>
      <point x="240" y="488" type="line" smooth="yes"/>
      <point x="184" y="488"/>
      <point x="132" y="452"/>
      <point x="132" y="387" type="curve" smooth="yes"/>
      <point x="132" y="103" type="line" smooth="yes"/>
      <point x="132" y="42"/>
      <point x="187" y="1"/>
      <point x="254" y="1" type="curve" smooth="yes"/>
      <point x="650" y="0" type="line" smooth="yes"/>
      <point x="682" y="0"/>
      <point x="708" y="10"/>
      <point x="727" y="31" type="curve"/>
      <point x="750" y="50"/>
      <point x="761" y="74"/>
      <point x="761" y="103" type="curve" smooth="yes"/>
      <point x="761" y="392" type="line" smooth="yes"/>
      <point x="761" y="449"/>
      <point x="703" y="488"/>
    </contour>
  </outline>
</glyph>
<glyph name="aavowel" format="2">
  <advance width="781"/>
  <unicode hex="0C86"/>
  <anchor x="474" y="-118" name="N"/>
  <outline>
    <contour>
      <point x="718" y="486" type="curve" smooth="yes"/>
      <point x="652" y="486" type="line" smooth="yes"/>
      <point x="603" y="486"/>
      <point x="553" y="461"/>
      <point x="553" y="413" type="curve" smooth="yes"/>
      <point x="553" y="356" type="line" smooth="yes"/>
      <point x="553" y="350"/>
      <point x="557" y="340"/>
      <point x="566" y="327" type="curve"/>
      <point x="389" y="327" type="line"/>
      <point x="389" y="246" type="line"/>
      <point x="603" y="246" type="line"/>
      <point x="618" y="230"/>
      <point x="625" y="217"/>
      <point x="625" y="207" type="curve" smooth="yes"/>
      <point x="625" y="127" type="line" smooth="yes"/>
      <point x="625" y="102"/>
      <point x="603" y="80"/>
      <point x="581" y="80" type="curve" smooth="yes"/>
      <point x="273" y="80" type="line" smooth="yes"/>
      <point x="255" y="80"/>
      <point x="230" y="93"/>
      <point x="230" y="127" type="curve" smooth="yes"/>
      <point x="230" y="374" type="line" smooth="yes"/>
      <point x="230" y="381"/>
      <point x="234" y="407"/>
      <point x="267" y="407" type="curve" smooth="yes"/>
      <point x="277" y="407" type="line"/>
      <point x="277" y="322" type="line"/>
      <point x="373" y="322" type="line"/>
      <point x="373" y="488" type="line"/>
      <point x="263" y="488" type="line" smooth="yes"/>
      <point x="193" y="488"/>
      <point x="133" y="450"/>
      <point x="133" y="387" type="curve" smooth="yes"/>
      <point x="133" y="103" type="line" smooth="yes"/>
      <point x="133" y="38"/>
      <point x="186" y="1"/>
      <point x="236" y="1" type="curve" smooth="yes"/>
      <point x="615" y="-2" type="line" smooth="yes"/>
      <point x="696" y="-2"/>
      <point x="722" y="47"/>
      <point x="722" y="79" type="curve" smooth="yes"/>
      <point x="722" y="205" type="line" smooth="yes"/>
      <point x="722" y="214"/>
      <point x="715" y="227"/>
      <point x="700" y="244" type="curve"/>
      <point x="714" y="244" type="line" smooth="yes"/>
      <point x="763" y="244"/>
      <point x="814" y="285"/>
      <point x="814" y="347" type="curve" smooth="yes"/>
      <point x="814" y="400" type="line" smooth="yes"/>
      <point x="814" y="435"/>
      <point x="786" y="486"/>
    </contour>
    <contour>
      <point x="697" y="326" type="curve" smooth="yes"/>
      <point x="666" y="326" type="line"/>
      <point x="655" y="337"/>
      <point x="650" y="349"/>
      <point x="650" y="362" type="curve" smooth="yes"/>
      <point x="650" y="385" type="line" smooth="yes"/>
      <point x="650" y="388"/>
      <point x="651" y="406"/>
      <point x="673" y="406" type="curve" smooth="yes"/>
      <point x="704" y="406" type="line" smooth="yes"/>
      <point x="712" y="406"/>
      <point x="716" y="399"/>
      <point x="716" y="385" type="curve" smooth="yes"/>
      <point x="716" y="352" type="line" smooth="yes"/>
      <point x="716" y="339"/>
      <point x="708" y="326"/>
    </contour>
  </outline>
</glyph>
<glyph name="ivowel" format="2">
  <advance width="589"/>
  <unicode hex="0C87"/>
  <anchor x="328" y="-116" name="N"/>
  <outline>
    <contour>
      <point x="555" y="99" type="curve" smooth="yes"/>
      <point x="555" y="144" type="line"/>
      <point x="596" y="181"/>
      <point x="617" y="221"/>
      <point x="617" y="264" type="curve" smooth="yes"/>
      <point x="617" y="383" type="line" smooth="yes"/>
      <point x="617" y="414"/>
      <point x="605" y="440"/>
      <point x="581" y="459" type="curve" smooth="yes"/>
      <point x="563" y="476"/>
      <point x="541" y="488"/>
      <point x="497" y="488" type="curve" smooth="yes"/>
      <point x="404" y="488" type="line" smooth="yes"/>
      <point x="385" y="488"/>
      <point x="369" y="483"/>
      <point x="356" y="473" type="curve" smooth="yes"/>
      <point x="347" y="469"/>
      <point x="340" y="462"/>
      <point x="333" y="450" type="curve"/>
      <point x="311" y="481"/>
      <point x="277" y="488"/>
      <point x="250" y="488" type="curve" smooth="yes"/>
      <point x="152" y="488" type="line" smooth="yes"/>
      <point x="89" y="488"/>
      <point x="38" y="445"/>
      <point x="38" y="387" type="curve" smooth="yes"/>
      <point x="38" y="316" type="line" smooth="yes"/>
      <point x="38" y="265"/>
      <point x="82" y="219"/>
      <point x="142" y="219" type="curve"/>
      <point x="187" y="218" type="line"/>
      <point x="187" y="299" type="line"/>
      <point x="162" y="299" type="line" smooth="yes"/>
      <point x="155" y="299"/>
      <point x="149" y="302"/>
      <point x="144" y="309" type="curve" smooth="yes"/>
      <point x="139" y="312"/>
      <point x="135" y="320"/>
      <point x="134" y="331" type="curve"/>
      <point x="135" y="377" type="line" smooth="yes"/>
      <point x="135" y="405"/>
      <point x="164" y="407"/>
      <point x="172" y="407" type="curve" smooth="yes"/>
      <point x="240" y="407" type="line" smooth="yes"/>
      <point x="273" y="407"/>
      <point x="285" y="387"/>
      <point x="285" y="374" type="curve" smooth="yes"/>
      <point x="285" y="322" type="line"/>
      <point x="381" y="322" type="line"/>
      <point x="381" y="377" type="line" smooth="yes"/>
      <point x="381" y="406"/>
      <point x="417" y="407"/>
      <point x="424" y="407" type="curve" smooth="yes"/>
      <point x="480" y="407" type="line" smooth="yes"/>
      <point x="516" y="407"/>
      <point x="520" y="390"/>
      <point x="520" y="383" type="curve" smooth="yes"/>
      <point x="520" y="276" type="line"/>
      <point x="507" y="286" type="line" smooth="yes"/>
      <point x="494" y="295"/>
      <point x="480" y="299"/>
      <point x="465" y="299" type="curve" smooth="yes"/>
      <point x="377" y="299" type="line" smooth="yes"/>
      <point x="328" y="299"/>
      <point x="294" y="277"/>
      <point x="294" y="244" type="curve" smooth="yes"/>
      <point x="294" y="193" type="line" smooth="yes"/>
      <point x="294" y="159"/>
      <point x="330" y="123"/>
      <point x="383" y="123" type="curve" smooth="yes"/>
      <point x="458" y="123" type="line"/>
      <point x="458" y="83" type="line" smooth="yes"/>
      <point x="458" y="35"/>
      <point x="505" y="0"/>
      <point x="558" y="0" type="curve" smooth="yes"/>
      <point x="617" y="0" type="line"/>
      <point x="617" y="81" type="line"/>
      <point x="572" y="81" type="line" smooth="yes"/>
      <point x="572" y="81"/>
      <point x="555" y="83"/>
    </contour>
    <contour>
      <point x="398" y="218" type="curve" smooth="yes"/>
      <point x="445" y="218" type="line" smooth="yes"/>
      <point x="454" y="218"/>
      <point x="458" y="213"/>
      <point x="458" y="204" type="curve"/>
      <point x="398" y="204" type="line"/>
      <point x="395" y="206"/>
      <point x="391" y="207"/>
      <point x="391" y="212" type="curve"/>
      <point x="392" y="218"/>
      <point x="392" y="218"/>
    </contour>
  </outline>
</glyph>
<glyph name="iivowel" format="2">
  <advance width="915"/>
  <unicode hex="0C88"/>
  <anchor x="100" y="558" name="C"/>
  <anchor x="483" y="-71" name="N"/>
  <outline>
    <contour>
      <point x="673" y="365" type="curve" smooth="yes"/>
      <point x="673" y="313" type="line" smooth="yes"/>
      <point x="673" y="294"/>
      <point x="678" y="277"/>
      <point x="689" y="262" type="curve"/>
      <point x="607" y="262" type="line"/>
      <point x="607" y="337" type="line" smooth="yes"/>
      <point x="607" y="370"/>
      <point x="570" y="399"/>
      <point x="555" y="410" type="curve"/>
      <point x="578" y="416"/>
      <point x="596" y="427"/>
      <point x="609" y="444" type="curve" smooth="yes"/>
      <point x="628" y="463"/>
      <point x="638" y="486"/>
      <point x="638" y="512" type="curve" smooth="yes"/>
      <point x="638" y="557" type="line"/>
      <point x="540" y="557" type="line"/>
      <point x="540" y="512" type="line" smooth="yes"/>
      <point x="540" y="512"/>
      <point x="538" y="490"/>
      <point x="517" y="490" type="curve" smooth="yes"/>
      <point x="141" y="490" type="line"/>
      <point x="141" y="409" type="line"/>
      <point x="198" y="409" type="line"/>
      <point x="167" y="379"/>
      <point x="151" y="348"/>
      <point x="151" y="317" type="curve" smooth="yes"/>
      <point x="151" y="262" type="line"/>
      <point x="70" y="262" type="line"/>
      <point x="70" y="181" type="line"/>
      <point x="151" y="181" type="line"/>
      <point x="151" y="90" type="line" smooth="yes"/>
      <point x="151" y="36"/>
      <point x="197" y="1"/>
      <point x="244" y="1" type="curve" smooth="yes"/>
      <point x="501" y="0" type="line" smooth="yes"/>
      <point x="563" y="0"/>
      <point x="607" y="49"/>
      <point x="607" y="99" type="curve" smooth="yes"/>
      <point x="607" y="181" type="line"/>
      <point x="761" y="181" type="line"/>
      <point x="809" y="132" type="line"/>
      <point x="822" y="123"/>
      <point x="828" y="113"/>
      <point x="828" y="103" type="curve" smooth="yes"/>
      <point x="828" y="99" type="line" smooth="yes"/>
      <point x="828" y="96"/>
      <point x="818" y="81"/>
      <point x="809" y="81" type="curve" smooth="yes"/>
      <point x="694" y="81" type="line"/>
      <point x="694" y="0" type="line"/>
      <point x="869" y="0" type="line" smooth="yes"/>
      <point x="905" y="0"/>
      <point x="925" y="36"/>
      <point x="925" y="61" type="curve" smooth="yes"/>
      <point x="925" y="109" type="line" smooth="yes"/>
      <point x="925" y="122"/>
      <point x="906" y="150"/>
      <point x="868" y="191" type="curve"/>
      <point x="943" y="223"/>
      <point x="946" y="280"/>
      <point x="946" y="289" type="curve" smooth="yes"/>
      <point x="946" y="359" type="line" smooth="yes"/>
      <point x="946" y="385"/>
      <point x="936" y="407"/>
      <point x="916" y="425" type="curve" smooth="yes"/>
      <point x="899" y="443"/>
      <point x="876" y="452"/>
      <point x="849" y="452" type="curve" smooth="yes"/>
      <point x="763" y="452" type="line" smooth="yes"/>
      <point x="711" y="452"/>
      <point x="673" y="413"/>
    </contour>
    <contour>
      <point x="812" y="261" type="curve"/>
      <point x="778" y="281" type="line"/>
      <point x="773" y="287"/>
      <point x="771" y="293"/>
      <point x="770" y="300" type="curve" smooth="yes"/>
      <point x="771" y="355" type="line" smooth="yes"/>
      <point x="771" y="355"/>
      <point x="771" y="371"/>
      <point x="788" y="371" type="curve" smooth="yes"/>
      <point x="828" y="371" type="line" smooth="yes"/>
      <point x="846" y="371"/>
      <point x="848" y="351"/>
      <point x="848" y="351" type="curve" smooth="yes"/>
      <point x="848" y="299" type="line" smooth="yes"/>
      <point x="848" y="286"/>
      <point x="833" y="266"/>
    </contour>
    <contour>
      <point x="510" y="264" type="line"/>
      <point x="248" y="264" type="line"/>
      <point x="248" y="323" type="line" smooth="yes"/>
      <point x="248" y="356"/>
      <point x="268" y="385"/>
      <point x="307" y="412" type="curve"/>
      <point x="463" y="412" type="line"/>
      <point x="494" y="395"/>
      <point x="510" y="372"/>
      <point x="510" y="343" type="curve" smooth="yes"/>
    </contour>
    <contour>
      <point x="465" y="83" type="curve" smooth="yes"/>
      <point x="281" y="83" type="line" smooth="yes"/>
      <point x="266" y="83"/>
      <point x="248" y="102"/>
      <point x="248" y="120" type="curve" smooth="yes"/>
      <point x="248" y="183" type="line"/>
      <point x="510" y="183" type="line"/>
      <point x="510" y="130" type="line" smooth="yes"/>
      <point x="510" y="105"/>
      <point x="486" y="83"/>
    </contour>
  </outline>
</glyph>
<glyph name="uvowel" format="2">
  <advance width="1097"/>
  <unicode hex="0C89"/>
  <anchor x="630" y="-116" name="N"/>
  <outline>
    <contour>
      <point x="1033" y="488" type="curve" smooth="yes"/>
      <point x="981" y="488" type="line"/>
      <point x="981" y="398" type="line"/>
      <point x="1003" y="398" type="line" smooth="yes"/>
      <point x="1022" y="398"/>
      <point x="1033" y="386"/>
      <point x="1033" y="377" type="curve" smooth="yes"/>
      <point x="1033" y="112" type="line" smooth="yes"/>
      <point x="1033" y="104"/>
      <point x="1026" y="81"/>
      <point x="1003" y="81" type="curve" smooth="yes"/>
      <point x="886" y="81" type="line" smooth="yes"/>
      <point x="879" y="81"/>
      <point x="853" y="87"/>
      <point x="853" y="117" type="curve" smooth="yes"/>
      <point x="853" y="387" type="line" smooth="yes"/>
      <point x="853" y="444"/>
      <point x="804" y="488"/>
      <point x="736" y="488" type="curve" smooth="yes"/>
      <point x="572" y="488" type="line" smooth="yes"/>
      <point x="543" y="488"/>
      <point x="518" y="478"/>
      <point x="498" y="457" type="curve" smooth="yes"/>
      <point x="479" y="440"/>
      <point x="469" y="415"/>
      <point x="469" y="383" type="curve" smooth="yes"/>
      <point x="469" y="112" type="line" smooth="yes"/>
      <point x="469" y="111"/>
      <point x="465" y="81"/>
      <point x="439" y="81" type="curve" smooth="yes"/>
      <point x="265" y="81" type="line" smooth="yes"/>
      <point x="242" y="81"/>
      <point x="227" y="104"/>
      <point x="227" y="117" type="curve" smooth="yes"/>
      <point x="227" y="377" type="line" smooth="yes"/>
      <point x="227" y="377"/>
      <point x="228" y="407"/>
      <point x="260" y="407" type="curve" smooth="yes"/>
      <point x="305" y="407" type="line"/>
      <point x="305" y="345" type="line" smooth="yes"/>
      <point x="305" y="337"/>
      <point x="295" y="327"/>
      <point x="285" y="327" type="curve" smooth="yes"/>
      <point x="243" y="327" type="line"/>
      <point x="243" y="246" type="line"/>
      <point x="306" y="246" type="line" smooth="yes"/>
      <point x="361" y="246"/>
      <point x="402" y="296"/>
      <point x="402" y="345" type="curve" smooth="yes"/>
      <point x="402" y="488" type="line"/>
      <point x="240" y="488" type="line" smooth="yes"/>
      <point x="234" y="488"/>
      <point x="132" y="486"/>
      <point x="132" y="377" type="curve" smooth="yes"/>
      <point x="132" y="117" type="line" smooth="yes"/>
      <point x="132" y="44"/>
      <point x="194" y="1"/>
      <point x="260" y="1" type="curve" smooth="yes"/>
      <point x="445" y="0" type="line" smooth="yes"/>
      <point x="498" y="0"/>
      <point x="566" y="38"/>
      <point x="566" y="103" type="curve" smooth="yes"/>
      <point x="566" y="383" type="line" smooth="yes"/>
      <point x="566" y="400"/>
      <point x="576" y="407"/>
      <point x="592" y="407" type="curve" smooth="yes"/>
      <point x="726" y="407" type="line" smooth="yes"/>
      <point x="735" y="407"/>
      <point x="742" y="405"/>
      <point x="749" y="401" type="curve"/>
      <point x="754" y="393"/>
      <point x="756" y="387"/>
      <point x="756" y="383" type="curve" smooth="yes"/>
      <point x="756" y="109" type="line" smooth="yes"/>
      <point x="756" y="47"/>
      <point x="817" y="0"/>
      <point x="880" y="0" type="curve" smooth="yes"/>
      <point x="1020" y="0" type="line" smooth="yes"/>
      <point x="1069" y="0"/>
      <point x="1129" y="37"/>
      <point x="1129" y="109" type="curve" smooth="yes"/>
      <point x="1129" y="396" type="line" smooth="yes"/>
      <point x="1129" y="441"/>
      <point x="1094" y="488"/>
    </contour>
  </outline>
</glyph>
<glyph name="uuvowel" format="2">
  <advance width="1315"/>
  <unicode hex="0C8A"/>
  <anchor x="738" y="-116" name="N"/>
  <outline>
    <contour>
      <point x="1214" y="488" type="curve" smooth="yes"/>
      <point x="1095" y="488" type="line" smooth="yes"/>
      <point x="1027" y="488"/>
      <point x="972" y="440"/>
      <point x="972" y="368" type="curve" smooth="yes"/>
      <point x="972" y="121" type="line" smooth="yes"/>
      <point x="972" y="103"/>
      <point x="956" y="81"/>
      <point x="931" y="81" type="curve" smooth="yes"/>
      <point x="835" y="81" type="line" smooth="yes"/>
      <point x="812" y="81"/>
      <point x="803" y="98"/>
      <point x="803" y="112" type="curve" smooth="yes"/>
      <point x="803" y="377" type="line" smooth="yes"/>
      <point x="803" y="427"/>
      <point x="759" y="488"/>
      <point x="675" y="488" type="curve" smooth="yes"/>
      <point x="562" y="488" type="line" smooth="yes"/>
      <point x="490" y="488"/>
      <point x="438" y="437"/>
      <point x="438" y="377" type="curve" smooth="yes"/>
      <point x="438" y="121" type="line" smooth="yes"/>
      <point x="438" y="83"/>
      <point x="405" y="81"/>
      <point x="404" y="81" type="curve" smooth="yes"/>
      <point x="275" y="81" type="line" smooth="yes"/>
      <point x="247" y="81"/>
      <point x="227" y="100"/>
      <point x="227" y="121" type="curve" smooth="yes"/>
      <point x="227" y="377" type="line" smooth="yes"/>
      <point x="227" y="391"/>
      <point x="240" y="407"/>
      <point x="265" y="407" type="curve" smooth="yes"/>
      <point x="305" y="407" type="line"/>
      <point x="305" y="354" type="line" smooth="yes"/>
      <point x="305" y="347"/>
      <point x="296" y="337"/>
      <point x="285" y="337" type="curve" smooth="yes"/>
      <point x="253" y="337" type="line"/>
      <point x="253" y="256" type="line"/>
      <point x="295" y="256" type="line" smooth="yes"/>
      <point x="324" y="256"/>
      <point x="349" y="266"/>
      <point x="369" y="287" type="curve" smooth="yes"/>
      <point x="391" y="307"/>
      <point x="402" y="331"/>
      <point x="402" y="358" type="curve" smooth="yes"/>
      <point x="402" y="488" type="line"/>
      <point x="254" y="488" type="line" smooth="yes"/>
      <point x="180" y="488"/>
      <point x="132" y="442"/>
      <point x="132" y="383" type="curve" smooth="yes"/>
      <point x="132" y="117" type="line" smooth="yes"/>
      <point x="132" y="37"/>
      <point x="208" y="1"/>
      <point x="271" y="1" type="curve" smooth="yes"/>
      <point x="408" y="0" type="line" smooth="yes"/>
      <point x="443" y="0"/>
      <point x="472" y="12"/>
      <point x="497" y="37" type="curve" smooth="yes"/>
      <point x="522" y="60"/>
      <point x="535" y="88"/>
      <point x="535" y="121" type="curve" smooth="yes"/>
      <point x="535" y="374" type="line" smooth="yes"/>
      <point x="535" y="389"/>
      <point x="545" y="407"/>
      <point x="568" y="407" type="curve" smooth="yes"/>
      <point x="671" y="407" type="line" smooth="yes"/>
      <point x="689" y="407"/>
      <point x="705" y="397"/>
      <point x="705" y="377" type="curve" smooth="yes"/>
      <point x="705" y="112" type="line" smooth="yes"/>
      <point x="705" y="47"/>
      <point x="751" y="0"/>
      <point x="809" y="0" type="curve" smooth="yes"/>
      <point x="958" y="0" type="line" smooth="yes"/>
      <point x="1020" y="0"/>
      <point x="1069" y="58"/>
      <point x="1069" y="117" type="curve" smooth="yes"/>
      <point x="1069" y="368" type="line" smooth="yes"/>
      <point x="1069" y="386"/>
      <point x="1081" y="407"/>
      <point x="1112" y="407" type="curve" smooth="yes"/>
      <point x="1214" y="407" type="line" smooth="yes"/>
      <point x="1233" y="407"/>
      <point x="1248" y="390"/>
      <point x="1248" y="368" type="curve" smooth="yes"/>
      <point x="1248" y="99" type="line"/>
      <point x="1245" y="86" type="line" smooth="yes"/>
      <point x="1244" y="85"/>
      <point x="1242" y="83"/>
      <point x="1239" y="81" type="curve"/>
      <point x="1214" y="81" type="line"/>
      <point x="1202" y="85"/>
      <point x="1202" y="85"/>
      <point x="1202" y="93" type="curve" smooth="yes"/>
      <point x="1202" y="166" type="line"/>
      <point x="1105" y="166" type="line"/>
      <point x="1105" y="93" type="line" smooth="yes"/>
      <point x="1105" y="30"/>
      <point x="1163" y="0"/>
      <point x="1203" y="0" type="curve" smooth="yes"/>
      <point x="1245" y="0" type="line" smooth="yes"/>
      <point x="1272" y="0"/>
      <point x="1295" y="11"/>
      <point x="1315" y="32" type="curve" smooth="yes"/>
      <point x="1335" y="50"/>
      <point x="1345" y="74"/>
      <point x="1345" y="103" type="curve" smooth="yes"/>
      <point x="1345" y="368" type="line" smooth="yes"/>
      <point x="1345" y="418"/>
      <point x="1303" y="488"/>
    </contour>
  </outline>
</glyph>
<glyph name="evowel" format="2">
  <advance width="712"/>
  <unicode hex="0C8E"/>
  <anchor x="100" y="558" name="C"/>
  <anchor x="406" y="-71" name="N"/>
  <outline>
    <contour>
      <point x="597" y="488" type="curve" smooth="yes"/>
      <point x="512" y="488" type="line"/>
      <point x="512" y="407" type="line"/>
      <point x="587" y="407" type="line" smooth="yes"/>
      <point x="621" y="407"/>
      <point x="645" y="387"/>
      <point x="645" y="354" type="curve" smooth="yes"/>
      <point x="645" y="127" type="line" smooth="yes"/>
      <point x="645" y="107"/>
      <point x="629" y="81"/>
      <point x="601" y="81" type="curve" smooth="yes"/>
      <point x="515" y="81" type="line" smooth="yes"/>
      <point x="492" y="81"/>
      <point x="466" y="102"/>
      <point x="466" y="127" type="curve" smooth="yes"/>
      <point x="466" y="176" type="line"/>
      <point x="368" y="176" type="line"/>
      <point x="368" y="121" type="line" smooth="yes"/>
      <point x="368" y="112"/>
      <point x="359" y="81"/>
      <point x="330" y="81" type="curve" smooth="yes"/>
      <point x="252" y="81" type="line" smooth="yes"/>
      <point x="228" y="81"/>
      <point x="209" y="99"/>
      <point x="208" y="122" type="curve"/>
      <point x="209" y="217" type="line"/>
      <point x="240" y="208"/>
      <point x="250" y="168"/>
      <point x="253" y="150" type="curve"/>
      <point x="342" y="174" type="line"/>
      <point x="332" y="248"/>
      <point x="288" y="299"/>
      <point x="242" y="299" type="curve" smooth="yes"/>
      <point x="112" y="299" type="line"/>
      <point x="112" y="103" type="line" smooth="yes"/>
      <point x="112" y="42"/>
      <point x="167" y="1"/>
      <point x="232" y="1" type="curve" smooth="yes"/>
      <point x="351" y="0" type="line" smooth="yes"/>
      <point x="386" y="0"/>
      <point x="407" y="24"/>
      <point x="414" y="35" type="curve"/>
      <point x="424" y="18"/>
      <point x="452" y="1"/>
      <point x="486" y="1" type="curve" smooth="yes"/>
      <point x="642" y="0" type="line" smooth="yes"/>
      <point x="697" y="0"/>
      <point x="742" y="48"/>
      <point x="742" y="109" type="curve" smooth="yes"/>
      <point x="742" y="364" type="line" smooth="yes"/>
      <point x="742" y="422"/>
      <point x="691" y="488"/>
    </contour>
  </outline>
</glyph>
<glyph name="eevowel" format="2">
  <advance width="710"/>
  <unicode hex="0C8F"/>
  <anchor x="100" y="558" name="C"/>
  <anchor x="404" y="-71" name="N"/>
  <outline>
    <contour>
      <point x="592" y="488" type="curve" smooth="yes"/>
      <point x="417" y="488" type="line"/>
      <point x="417" y="431" type="line" smooth="yes"/>
      <point x="417" y="406"/>
      <point x="398" y="403"/>
      <point x="398" y="403" type="curve" smooth="yes"/>
      <point x="332" y="403" type="line" smooth="yes"/>
      <point x="322" y="403"/>
      <point x="309" y="412"/>
      <point x="309" y="425" type="curve" smooth="yes"/>
      <point x="309" y="488" type="line"/>
      <point x="212" y="488" type="line"/>
      <point x="212" y="415" type="line" smooth="yes"/>
      <point x="212" y="366"/>
      <point x="259" y="322"/>
      <point x="322" y="322" type="curve" smooth="yes"/>
      <point x="418" y="322" type="line" smooth="yes"/>
      <point x="469" y="322"/>
      <point x="514" y="352"/>
      <point x="514" y="392" type="curve" smooth="yes"/>
      <point x="514" y="407" type="line"/>
      <point x="583" y="407" type="line" smooth="yes"/>
      <point x="621" y="407"/>
      <point x="643" y="383"/>
      <point x="643" y="354" type="curve" smooth="yes"/>
      <point x="643" y="127" type="line" smooth="yes"/>
      <point x="643" y="102"/>
      <point x="621" y="80"/>
      <point x="599" y="80" type="curve" smooth="yes"/>
      <point x="510" y="80" type="line" smooth="yes"/>
      <point x="482" y="80"/>
      <point x="464" y="103"/>
      <point x="464" y="127" type="curve" smooth="yes"/>
      <point x="464" y="176" type="line"/>
      <point x="366" y="176" type="line"/>
      <point x="366" y="121" type="line" smooth="yes"/>
      <point x="366" y="104"/>
      <point x="351" y="80"/>
      <point x="327" y="80" type="curve" smooth="yes"/>
      <point x="250" y="80" type="line" smooth="yes"/>
      <point x="235" y="80"/>
      <point x="211" y="90"/>
      <point x="205" y="122" type="curve"/>
      <point x="206" y="217" type="line"/>
      <point x="233" y="210"/>
      <point x="244" y="175"/>
      <point x="249" y="151" type="curve"/>
      <point x="341" y="174" type="line"/>
      <point x="317" y="288"/>
      <point x="262" y="299"/>
      <point x="240" y="299" type="curve" smooth="yes"/>
      <point x="110" y="299" type="line"/>
      <point x="110" y="112" type="line" smooth="yes"/>
      <point x="110" y="48"/>
      <point x="168" y="0"/>
      <point x="240" y="0" type="curve" smooth="yes"/>
      <point x="332" y="0" type="line" smooth="yes"/>
      <point x="367" y="0"/>
      <point x="394" y="15"/>
      <point x="414" y="45" type="curve"/>
      <point x="433" y="5"/>
      <point x="471" y="1"/>
      <point x="486" y="1" type="curve" smooth="yes"/>
      <point x="596" y="-2" type="line"/>
      <point x="699" y="-2"/>
      <point x="740" y="71"/>
      <point x="740" y="119" type="curve" smooth="yes"/>
      <point x="740" y="364" type="line" smooth="yes"/>
      <point x="740" y="416"/>
      <point x="695" y="488"/>
    </contour>
  </outline>
</glyph>
<glyph name="aivowel" format="2">
  <advance width="753"/>
  <unicode hex="0C90"/>
  <anchor x="100" y="558" name="C"/>
  <anchor x="424" y="-71" name="N"/>
  <outline>
    <contour>
      <point x="660" y="486" type="curve" smooth="yes"/>
      <point x="558" y="486" type="line" smooth="yes"/>
      <point x="512" y="486"/>
      <point x="486" y="456"/>
      <point x="478" y="443" type="curve"/>
      <point x="456" y="480"/>
      <point x="416" y="486"/>
      <point x="392" y="486" type="curve" smooth="yes"/>
      <point x="232" y="486" type="line" smooth="yes"/>
      <point x="171" y="486"/>
      <point x="137" y="437"/>
      <point x="120" y="402" type="curve"/>
      <point x="195" y="356" type="line"/>
      <point x="215" y="405"/>
      <point x="240" y="405"/>
      <point x="248" y="405" type="curve" smooth="yes"/>
      <point x="375" y="405" type="line" smooth="yes"/>
      <point x="429" y="405"/>
      <point x="430" y="377"/>
      <point x="430" y="375" type="curve" smooth="yes"/>
      <point x="430" y="339" type="line"/>
      <point x="527" y="339" type="line"/>
      <point x="527" y="372" type="line" smooth="yes"/>
      <point x="527" y="402"/>
      <point x="550" y="405"/>
      <point x="560" y="405" type="curve" smooth="yes"/>
      <point x="648" y="405" type="line" smooth="yes"/>
      <point x="686" y="405"/>
      <point x="686" y="368"/>
      <point x="686" y="366" type="curve" smooth="yes"/>
      <point x="686" y="129" type="line" smooth="yes"/>
      <point x="686" y="100"/>
      <point x="664" y="79"/>
      <point x="648" y="79" type="curve" smooth="yes"/>
      <point x="549" y="79" type="line" smooth="yes"/>
      <point x="519" y="79"/>
      <point x="497" y="104"/>
      <point x="497" y="129" type="curve" smooth="yes"/>
      <point x="497" y="164" type="line"/>
      <point x="399" y="164" type="line"/>
      <point x="399" y="129" type="line" smooth="yes"/>
      <point x="399" y="104"/>
      <point x="372" y="79"/>
      <point x="340" y="79" type="curve" smooth="yes"/>
      <point x="252" y="79" type="line" smooth="yes"/>
      <point x="226" y="79"/>
      <point x="208" y="107"/>
      <point x="208" y="129" type="curve" smooth="yes"/>
      <point x="209" y="201" type="line" smooth="yes"/>
      <point x="209" y="210"/>
      <point x="216" y="235"/>
      <point x="258" y="235" type="curve" smooth="yes"/>
      <point x="286" y="235" type="line"/>
      <point x="286" y="214" type="line" smooth="yes"/>
      <point x="286" y="213"/>
      <point x="283" y="181"/>
      <point x="233" y="181" type="curve"/>
      <point x="258" y="102" type="line"/>
      <point x="279" y="102"/>
      <point x="296" y="105"/>
      <point x="309" y="110" type="curve" smooth="yes"/>
      <point x="333" y="121"/>
      <point x="383" y="157"/>
      <point x="383" y="212" type="curve" smooth="yes"/>
      <point x="383" y="318" type="line"/>
      <point x="232" y="318" type="line" smooth="yes"/>
      <point x="167" y="318"/>
      <point x="112" y="273"/>
      <point x="112" y="207" type="curve" smooth="yes"/>
      <point x="112" y="103" type="line" smooth="yes"/>
      <point x="112" y="42"/>
      <point x="167" y="1"/>
      <point x="232" y="1" type="curve" smooth="yes"/>
      <point x="361" y="0" type="line" smooth="yes"/>
      <point x="405" y="0"/>
      <point x="437" y="37"/>
      <point x="447" y="50" type="curve"/>
      <point x="480" y="5"/>
      <point x="529" y="1"/>
      <point x="544" y="1" type="curve" smooth="yes"/>
      <point x="653" y="-2" type="line"/>
      <point x="730" y="-2"/>
      <point x="781" y="51"/>
      <point x="781" y="110" type="curve" smooth="yes"/>
      <point x="781" y="385" type="line" smooth="yes"/>
      <point x="781" y="443"/>
      <point x="728" y="486"/>
    </contour>
  </outline>
</glyph>
